SplineFontDB: 3.2
FontName: TengwarSindarin
FullName: Tengwar Sindarin
FamilyName: Tengwar Sindarin
Weight: Book
Copyright: (c)copyright - 1998 - Daniel Steven Smith
Version: 1.0
ItalicAngle: 0
UnderlinePosition: -125
UnderlineWidth: 50
Ascent: 1638
Descent: 410
InvalidEm: 0
sfntRevision: 0x00010000
LayerCount: 2
Layer: 0 1 "Back" 1
Layer: 1 1 "Fore" 0
XUID: [1021 239 -1533091686 11298163]
StyleMap: 0x0040
FSType: 0
OS2Version: 0
OS2_WeightWidthSlopeOnly: 0
OS2_UseTypoMetrics: 0
CreationTime: -2082844800
ModificationTime: -2082844800
PfmFamily: 17
TTFWeight: 400
TTFWidth: 5
LineGap: 0
VLineGap: 0
Panose: 2 11 5 0 0 0 0 0 0 0
OS2TypoAscent: 1747
OS2TypoAOffset: 0
OS2TypoDescent: -1001
OS2TypoDOffset: 0
OS2TypoLinegap: 0
OS2WinAscent: 2038
OS2WinAOffset: 0
OS2WinDescent: 1522
OS2WinDOffset: 0
HheadAscent: 1747
HheadAOffset: 0
HheadDescent: -1021
HheadDOffset: 0
OS2SubXSize: 410
OS2SubYSize: 369
OS2SubXOff: 0
OS2SubYOff: -1001
OS2SupXSize: 410
OS2SupYSize: 369
OS2SupXOff: 0
OS2SupYOff: 1360
OS2StrikeYSize: 102
OS2StrikeYPos: 530
OS2UnicodeRanges: 00000000.00000000.00000000.00000000
DEI: 91125
TtTable: prep
NPUSHB
 24
 18
 45
 7
 41
 26
 22
 3
 22
 114
 12
 13
 70
 166
 35
 114
 32
 82
 3
 114
 114
 63
 13
 82
 0
SCANTYPE
PUSHW_1
 828
SCANCTRL
SCVTCI
CALL
CALL
EndTTInstrs
TtTable: fpgm
NPUSHB
 22
 21
 20
 19
 18
 17
 16
 15
 14
 13
 12
 11
 10
 9
 8
 7
 6
 5
 4
 3
 2
 1
 0
FDEF
PUSHB_3
 0
 128
 0
RS
DUP
ROLL
DIV
ROLL
SWAP
WS
FLOOR
ODD
ENDF
FDEF
PUSHB_3
 42
 0
 0
RS
EQ
JROT
PUSHB_1
 0
CALL
IF
SLOOP
IP
EIF
PUSHB_1
 0
CALL
IF
SLOOP
ALIGNRP
EIF
PUSHB_1
 0
CALL
IF
PUSHB_1
 10
LOOPCALL
EIF
PUSHB_1
 1
RS
SRP0
PUSHB_1
 0
CALL
IF
SLOOP
ALIGNRP
EIF
PUSHB_1
 0
CALL
IF
PUSHB_1
 10
LOOPCALL
EIF
ENDF
FDEF
CALL
ENDF
FDEF
CALL
PUSHB_1
 2
LOOPCALL
ENDF
FDEF
PUSHB_1
 2
LOOPCALL
ENDF
FDEF
PUSHB_1
 1
DIV
PUSHB_1
 0
SWAP
WS
PUSHB_2
 1
 3
CINDEX
WS
DUP
GC[cur]
DUP
ROUND[Grey]
SUB
ABS
PUSHB_1
 3
CINDEX
GC[cur]
DUP
ROUND[Grey]
DUP
PUSHB_1
 4
RS
SWAP
SUB
DUP
ABS
PUSHB_2
 64
 64
ROLL
EQ
IF
POP

StartChar: .notdef
Encoding: 65536 -1 0
Width: 1536
Flags: W
LayerCount: 2
Fore
SplineSet
256 0 m 1,0,-1
 256 1280 l 1,1,-1
 1280 1280 l 1,2,-1
 1280 0 l 1,3,-1
 256 0 l 1,0,-1
1248 32 m 1,4,-1
 1248 1248 l 1,5,-1
 288 1248 l 1,6,-1
 288 32 l 1,7,-1
 1248 32 l 1,4,-1
EndSplineSet
EndChar

StartChar: exclam
Encoding: 33 33 4
Width: 1331
Flags: W
LayerCount: 2
Fore
SplineSet
180 0 m 1,0,1
 184 78 184 78 184 225 c 0,2,3
 184 352 184 352 180 532 c 0,4,5
 178 584 178 584 176 694 c 0,6,7
 174 807 174 807 166 928 c 1,8,9
 154 1047 154 1047 125 1176 c 0,10,11
 94 1305 94 1305 47 1393 c 1,12,13
 117 1417 117 1417 190 1473 c 0,14,15
 264 1526 264 1526 322 1595 c 0,16,17
 342 1618 342 1618 356 1618 c 0,18,19
 385 1618 385 1618 385 1516 c 0,20,21
 385 1448 385 1448 373 1333 c 0,22,23
 373 1305 373 1305 373 1249 c 0,24,25
 371 1196 371 1196 371 1163 c 256,26,27
 371 1130 371 1130 371 1090 c 0,28,29
 371 1040 371 1040 371 997 c 0,30,31
 371 956 371 956 373 881 c 0,32,33
 373 803 373 803 373 760 c 1,34,35
 432 799 432 799 485 821 c 0,36,37
 539 846 539 846 592 856 c 0,38,39
 643 866 643 866 707 866 c 0,40,41
 836 862 836 862 969 821 c 0,42,43
 1100 780 1100 780 1188 701.5 c 128,-1,44
 1276 623 1276 623 1276 512 c 1,45,46
 1265 367 1265 367 1214 276 c 0,47,48
 1159 184 1159 184 1063 111 c 0,49,50
 983 51 983 51 893 16 c 0,51,52
 799 -20 799 -20 725 -20 c 1,53,54
 645 -12 645 -12 598 43 c 0,55,56
 547 100 547 100 547 154 c 0,57,58
 547 213 547 213 582 256 c 0,59,60
 616 297 616 297 678 297 c 0,61,62
 705 297 705 297 737 287 c 1,63,64
 737 238 737 238 780 199 c 0,65,66
 825 160 825 160 885 160 c 0,67,68
 930 160 930 160 971 190 c 0,69,70
 1012 221 1012 221 1036 270 c 1,71,72
 1042 299 1042 299 1042 326 c 0,73,74
 1042 361 1042 361 1035.5 398 c 128,-1,75
 1029 435 1029 435 1016 465 c 0,76,77
 987 522 987 522 946 567 c 0,78,79
 903 612 903 612 856 639 c 0,80,81
 793 676 793 676 719 696 c 0,82,83
 643 715 643 715 582 715 c 1,84,85
 518 707 518 707 475 682 c 0,86,87
 434 657 434 657 414 625 c 0,88,89
 391 590 391 590 383 551 c 0,90,91
 375 510 375 510 365 451 c 0,92,93
 348 334 348 334 348 143 c 0,94,95
 348 53 348 53 352 -80 c 256,96,97
 356 -213 356 -213 358 -295 c 0,98,99
 362 -377 362 -377 369 -526 c 0,100,101
 377 -676 377 -676 379 -778 c 1,102,103
 350 -854 350 -854 274 -913 c 0,104,105
 199 -975 199 -975 80 -1001 c 1,106,107
 61 -1001 61 -1001 55 -999 c 128,-1,108
 49 -997 49 -997 49 -989 c 0,109,110
 49 -979 49 -979 59 -954 c 0,111,112
 106 -795 106 -795 133 -602 c 0,113,114
 162 -412 162 -412 170 -252 c 0,115,116
 180 -92 180 -92 180 0 c 1,0,1
EndSplineSet
EndChar

StartChar: quotedbl
Encoding: 34 34 5
Width: 2
Flags: W
LayerCount: 2
Fore
SplineSet
-1692 -322 m 1,0,-1
 -1626 -199 l 1,1,-1
 -209 -199 l 1,2,-1
 -266 -322 l 1,3,-1
 -1692 -322 l 1,0,-1
EndSplineSet
EndChar

StartChar: numbersign
Encoding: 35 35 6
Width: 2
Flags: W
LayerCount: 2
Fore
SplineSet
-729 1432 m 256,0,1
 -729 1389 -729 1389 -760 1358 c 0,2,3
 -793 1325 -793 1325 -836 1325 c 0,4,5
 -877 1325 -877 1325 -909.5 1358 c 128,-1,6
 -942 1391 -942 1391 -942 1432 c 256,7,8
 -942 1473 -942 1473 -909 1505 c 0,9,10
 -877 1538 -877 1538 -836 1538 c 0,11,12
 -793 1538 -793 1538 -760 1507 c 0,13,14
 -729 1475 -729 1475 -729 1432 c 256,0,1
-1040 1432 m 256,15,16
 -1040 1389 -1040 1389 -1071 1358 c 0,17,18
 -1104 1325 -1104 1325 -1147 1325 c 0,19,20
 -1188 1325 -1188 1325 -1219 1358 c 0,21,22
 -1251 1389 -1251 1389 -1251 1432 c 0,23,24
 -1251 1473 -1251 1473 -1221 1505 c 0,25,26
 -1190 1538 -1190 1538 -1147 1538 c 256,27,28
 -1104 1538 -1104 1538 -1071 1507 c 0,29,30
 -1040 1475 -1040 1475 -1040 1432 c 256,15,16
-881 1681 m 256,31,32
 -881 1638 -881 1638 -911 1608 c 0,33,34
 -944 1575 -944 1575 -987 1575 c 0,35,36
 -1028 1575 -1028 1575 -1059 1608 c 0,37,38
 -1092 1638 -1092 1638 -1092 1681 c 0,39,40
 -1092 1722 -1092 1722 -1061 1755 c 128,-1,41
 -1030 1788 -1030 1788 -987 1788 c 256,42,43
 -944 1788 -944 1788 -911 1757 c 0,44,45
 -881 1724 -881 1724 -881 1681 c 256,31,32
EndSplineSet
EndChar

StartChar: dollar
Encoding: 36 36 7
Width: 2
Flags: W
LayerCount: 2
Fore
SplineSet
-729 1626 m 0,0,1
 -729 1595 -729 1595 -754 1569 c 0,2,3
 -770 1550 -770 1550 -815 1522 c 2,4,-1
 -1122 1327 l 1,5,-1
 -1208 1327 l 1,6,-1
 -913 1624 l 2,7,8
 -883 1655 -883 1655 -850 1674.5 c 128,-1,9
 -817 1694 -817 1694 -784 1694 c 0,10,11
 -768 1694 -768 1694 -748.5 1670.5 c 128,-1,12
 -729 1647 -729 1647 -729 1626 c 0,0,1
EndSplineSet
EndChar

StartChar: percent
Encoding: 37 37 8
Width: 2
Flags: W
LayerCount: 2
Fore
SplineSet
-879 1432 m 256,0,1
 -879 1389 -879 1389 -909 1358 c 0,2,3
 -942 1325 -942 1325 -985 1325 c 0,4,5
 -1026 1325 -1026 1325 -1057 1358 c 0,6,7
 -1090 1389 -1090 1389 -1090 1432 c 0,8,9
 -1090 1473 -1090 1473 -1059 1505 c 0,10,11
 -1028 1538 -1028 1538 -985 1538 c 256,12,13
 -942 1538 -942 1538 -909 1507 c 0,14,15
 -879 1475 -879 1475 -879 1432 c 256,0,1
EndSplineSet
EndChar

StartChar: ampersand
Encoding: 38 38 9
Width: 2
Flags: W
LayerCount: 2
Fore
SplineSet
-770 1743 m 0,0,1
 -729 1706 -729 1706 -729 1640 c 0,2,3
 -729 1587 -729 1587 -760 1536 c 0,4,5
 -786 1499 -786 1499 -834 1460 c 0,6,7
 -881 1419 -881 1419 -944 1384 c 0,8,9
 -1010 1348 -1010 1348 -1085 1319 c 1,10,-1
 -1106 1356 l 1,11,12
 -1010 1411 -1010 1411 -954 1462 c 0,13,14
 -901 1511 -901 1511 -864 1571 c 1,15,16
 -850 1602 -850 1602 -850 1630 c 0,17,18
 -850 1671 -850 1671 -872 1692 c 0,19,20
 -891 1710 -891 1710 -924 1710 c 0,21,22
 -952 1710 -952 1710 -989 1698 c 1,23,-1
 -1010 1722 l 1,24,25
 -981 1753 -981 1753 -965 1767 c 0,26,27
 -946 1782 -946 1782 -913 1788 c 1,28,29
 -819 1788 -819 1788 -770 1743 c 0,0,1
EndSplineSet
EndChar

StartChar: quotesingle
Encoding: 39 39 10
Width: 2
Flags: W
LayerCount: 2
Fore
SplineSet
-1061 -326 m 1,0,-1
 -995 -203 l 1,1,-1
 -193 -203 l 1,2,-1
 -250 -326 l 1,3,-1
 -1061 -326 l 1,0,-1
EndSplineSet
EndChar

StartChar: parenleft
Encoding: 40 40 11
Width: 2
Flags: W
LayerCount: 2
Fore
SplineSet
-846 -537 m 256,0,1
 -846 -580 -846 -580 -877 -610 c 0,2,3
 -909 -643 -909 -643 -952 -643 c 0,4,5
 -993 -643 -993 -643 -1024 -610 c 0,6,7
 -1057 -580 -1057 -580 -1057 -537 c 0,8,9
 -1057 -496 -1057 -496 -1026 -463 c 128,-1,10
 -995 -430 -995 -430 -952 -430 c 256,11,12
 -909 -430 -909 -430 -877 -461 c 0,13,14
 -846 -494 -846 -494 -846 -537 c 256,0,1
EndSplineSet
EndChar

StartChar: parenright
Encoding: 41 41 12
Width: 2
Flags: W
LayerCount: 2
Fore
SplineSet
-207 1972 m 1,0,1
 -219 1946 -219 1946 -250 1888 c 0,2,3
 -279 1831 -279 1831 -322 1782 c 0,4,5
 -365 1731 -365 1731 -432 1698 c 0,6,7
 -502 1665 -502 1665 -598 1665 c 0,8,9
 -735 1665 -735 1665 -901 1733 c 0,10,11
 -993 1772 -993 1772 -1077 1790 c 128,-1,12
 -1161 1808 -1161 1808 -1235 1808 c 0,13,14
 -1325 1808 -1325 1808 -1411 1786 c 0,15,16
 -1497 1761 -1497 1761 -1671 1700 c 1,17,18
 -1546 1849 -1546 1849 -1425.5 1921 c 128,-1,19
 -1305 1993 -1305 1993 -1163 1993 c 0,20,21
 -1051 1993 -1051 1993 -901 1946 c 0,22,23
 -772 1905 -772 1905 -727 1890 c 0,24,25
 -682 1876 -682 1876 -623 1864 c 0,26,27
 -563 1851 -563 1851 -518 1851 c 0,28,29
 -446 1851 -446 1851 -373 1880 c 0,30,31
 -299 1909 -299 1909 -207 1972 c 1,0,1
EndSplineSet
EndChar

StartChar: asterisk
Encoding: 42 42 13
Width: 1434
Flags: W
LayerCount: 2
Fore
SplineSet
1180 1954 m 1,0,1
 944 1937 944 1937 762 1860 c 0,2,3
 578 1782 578 1782 494 1675 c 0,4,5
 444 1614 444 1614 410 1536 c 0,6,7
 373 1458 373 1458 349.5 1368 c 128,-1,8
 326 1278 326 1278 315 1184 c 0,9,10
 305 1087 305 1087 305 985 c 0,11,12
 305 809 305 809 338 637 c 0,13,14
 371 463 371 463 428 336 c 0,15,16
 485 207 485 207 553 156 c 1,17,18
 598 115 598 115 662 78 c 0,19,20
 725 43 725 43 803 18 c 0,21,22
 879 -6 879 -6 948 -6 c 0,23,24
 1171 -6 1171 -6 1171 252 c 1,25,26
 1165 305 1165 305 1128 385 c 0,27,28
 1094 463 1094 463 1042 539 c 0,29,30
 991 614 991 614 944 659 c 1,31,32
 836 733 836 733 799 733 c 0,33,34
 772 733 772 733 772 696 c 0,35,36
 772 686 772 686 776 666 c 0,37,38
 778 645 778 645 786 618 c 0,39,40
 793 592 793 592 801 561 c 0,41,42
 809 528 809 528 811 512 c 1,43,44
 745 512 745 512 674 528 c 0,45,46
 635 539 635 539 625 555 c 0,47,48
 614 567 614 567 598 618 c 1,49,50
 598 670 598 670 635 721 c 0,51,52
 670 770 670 770 715 803 c 1,53,54
 813 864 813 864 938 864 c 0,55,56
 1028 864 1028 864 1110 831 c 0,57,58
 1190 801 1190 801 1225 758 c 0,59,60
 1305 666 1305 666 1343 573 c 0,61,62
 1380 487 1380 487 1380 401 c 0,63,64
 1380 395 1380 395 1380 391 c 0,65,66
 1380 254 1380 254 1294 139 c 0,67,68
 1206 27 1206 27 1063 -39 c 0,69,70
 918 -104 918 -104 745 -104 c 0,71,72
 655 -104 655 -104 553 -82 c 0,73,74
 434 -59 434 -59 344 16 c 0,75,76
 256 90 256 90 195 211 c 0,77,78
 133 330 133 330 104 471 c 0,79,80
 74 614 74 614 74 774 c 0,81,82
 74 956 74 956 115 1137 c 0,83,84
 156 1315 156 1315 236 1466 c 0,85,86
 317 1620 317 1620 434 1726 c 0,87,88
 520 1802 520 1802 631 1860 c 0,89,90
 739 1915 739 1915 877 1944 c 0,91,92
 1014 1974 1014 1974 1171 1974 c 1,93,-1
 1180 1954 l 1,0,1
EndSplineSet
EndChar

StartChar: plus
Encoding: 43 43 14
Width: 410
Flags: W
LayerCount: 2
Fore
SplineSet
78 147 m 0,0,1
 147 147 147 147 233 102 c 1,2,3
 299 58 299 58 322 2 c 0,4,5
 346 -59 346 -59 346 -133 c 0,6,7
 346 -251 346 -251 307 -332 c 0,8,9
 226 -502 226 -502 23 -502 c 1,10,11
 -53 -497 -53 -497 -123 -452 c 0,12,13
 -193 -409 -193 -409 -193 -344 c 1,14,15
 -184 -309 -184 -309 -168 -287 c 0,16,17
 -152 -264 -152 -264 -129 -254 c 0,18,19
 -109 -244 -109 -244 -88 -244 c 0,20,21
 -59 -244 -59 -244 -39 -260 c 0,22,23
 -20 -274 -20 -274 -20 -301 c 0,24,25
 -20 -321 -20 -321 -43 -352 c 1,26,27
 -25 -446 -25 -446 63 -446 c 0,28,29
 92 -446 92 -446 118.5 -436 c 128,-1,30
 145 -426 145 -426 160 -409 c 0,31,32
 217 -344 217 -344 217 -262 c 0,33,34
 217 -209 217 -209 194.5 -169 c 128,-1,35
 172 -129 172 -129 135 -107.5 c 128,-1,36
 98 -86 98 -86 57 -86 c 1,37,38
 32 -78 32 -78 -13 -78 c 0,39,40
 -36 -78 -36 -78 -106 -82 c 128,-1,41
 -176 -86 -176 -86 -224 -86 c 0,42,43
 -288 -86 -288 -86 -343.5 -80.5 c 128,-1,44
 -399 -75 -399 -75 -471 -59.5 c 128,-1,45
 -543 -44 -543 -44 -618 -16 c 1,46,-1
 -549 45 l 1,47,-1
 -271 159 l 1,48,49
 -222 144 -222 144 -106 144 c 0,50,51
 -57 145 -57 145 -1 146 c 128,-1,52
 55 147 55 147 78 147 c 0,0,1
EndSplineSet
EndChar

StartChar: comma
Encoding: 44 44 15
Width: 1434
Flags: W
LayerCount: 2
Fore
SplineSet
465 -1393 m 1,0,1
 461 -1397 461 -1397 440 -1411 c 0,2,3
 422 -1427 422 -1427 385 -1458 c 1,4,5
 350 -1493 350 -1493 332 -1507 c 0,6,7
 309 -1522 309 -1522 283 -1522 c 0,8,9
 244 -1522 244 -1522 211 -1489 c 128,-1,10
 178 -1456 178 -1456 178 -1419 c 1,11,12
 203 -1243 203 -1243 313 -1126 c 0,13,14
 426 -1010 426 -1010 639 -872 c 0,15,16
 850 -735 850 -735 961 -637 c 0,17,18
 1071 -537 1071 -537 1106 -385 c 0,19,20
 1110 -373 1110 -373 1110 -344 c 0,21,22
 1110 -303 1110 -303 1094 -260 c 0,23,24
 1075 -217 1075 -217 1049 -182 c 0,25,26
 1020 -145 1020 -145 989 -123 c 0,27,28
 911 -57 911 -57 825 -20.5 c 128,-1,29
 739 16 739 16 688 16 c 0,30,31
 582 16 582 16 473 -25 c 0,32,33
 326 -78 326 -78 326 -205 c 0,34,35
 326 -231 326 -231 338 -285 c 0,36,37
 350 -338 350 -338 352 -348 c 0,38,39
 399 -420 399 -420 459 -467 c 0,40,41
 518 -512 518 -512 561 -512 c 0,42,43
 580 -512 580 -512 590 -504 c 1,44,45
 606 -500 606 -500 616 -469 c 0,46,47
 627 -442 627 -442 633 -395 c 128,-1,48
 639 -348 639 -348 639 -344 c 1,49,50
 682 -344 682 -344 733 -373 c 0,51,52
 782 -401 782 -401 791 -438 c 1,53,54
 791 -485 791 -485 770 -518 c 0,55,56
 752 -551 752 -551 711 -580 c 1,57,58
 618 -623 618 -623 522 -623 c 0,59,60
 436 -623 436 -623 360 -596 c 0,61,62
 283 -567 283 -567 225 -532 c 0,63,64
 96 -444 96 -444 96 -305 c 0,65,66
 96 -250 96 -250 115 -190 c 0,67,68
 145 -96 145 -96 231 -33 c 0,69,70
 315 31 315 31 440 55 c 0,71,72
 631 94 631 94 784 162 c 0,73,74
 938 229 938 229 1085 344 c 1,75,76
 1124 401 1124 401 1124 477 c 0,77,78
 1124 528 1124 528 1106 582 c 0,79,80
 1087 633 1087 633 1060.5 672 c 128,-1,81
 1034 711 1034 711 1008 733 c 0,82,83
 932 793 932 793 848 825 c 0,84,85
 762 858 762 858 705 864 c 0,86,87
 676 868 676 868 627 868 c 0,88,89
 555 868 555 868 510 854 c 0,90,91
 461 838 461 838 406 803 c 0,92,93
 371 780 371 780 352 733 c 0,94,95
 334 686 334 686 330 639 c 0,96,97
 326 590 326 590 326 532 c 1,98,99
 358 444 358 444 413.5 387 c 128,-1,100
 469 330 469 330 524 330 c 0,101,102
 543 330 543 330 557 336 c 0,103,104
 575 342 575 342 584 365 c 0,105,106
 590 387 590 387 594 428 c 128,-1,107
 598 469 598 469 602 481 c 1,108,109
 653 481 653 481 702 467 c 0,110,111
 752 451 752 451 762 418 c 0,112,113
 766 406 766 406 766 385 c 0,114,115
 766 319 766 319 682 262 c 1,116,117
 614 240 614 240 547 240 c 0,118,119
 389 240 389 240 221 340 c 0,120,121
 162 375 162 375 133 438 c 0,122,123
 106 500 106 500 106 569 c 0,124,125
 106 598 106 598 115 639 c 1,126,127
 158 748 158 748 242 813 c 0,128,129
 324 879 324 879 451 913 c 0,130,131
 598 952 598 952 766 952 c 0,132,133
 836 952 836 952 870 948 c 1,134,135
 989 948 989 948 1085 911 c 0,136,137
 1182 872 1182 872 1245 813 c 0,138,139
 1311 752 1311 752 1345.5 678 c 128,-1,140
 1380 604 1380 604 1380 530 c 0,141,142
 1380 471 1380 471 1341 406 c 0,143,144
 1303 340 1303 340 1243 299 c 0,145,146
 1180 256 1180 256 1057 197 c 1,147,148
 934 133 934 133 852 102 c 1,149,150
 999 102 999 102 1100 59 c 0,151,152
 1200 18 1200 18 1257 -47 c 0,153,154
 1313 -115 1313 -115 1335 -186 c 0,155,156
 1358 -260 1358 -260 1358 -332 c 0,157,158
 1358 -365 1358 -365 1335 -422 c 0,159,160
 1313 -477 1313 -477 1276 -530 c 0,161,162
 1237 -584 1237 -584 1194 -610 c 0,163,164
 967 -752 967 -752 793 -864 c 1,165,166
 621 -981 621 -981 520 -1059 c 0,167,168
 422 -1137 422 -1137 377 -1194 c 0,169,170
 330 -1251 330 -1251 330 -1300 c 0,171,172
 330 -1333 330 -1333 352 -1368 c 0,173,174
 367 -1386 367 -1386 385 -1391 c 0,175,176
 403 -1393 403 -1393 465 -1393 c 1,0,1
EndSplineSet
EndChar

StartChar: hyphen
Encoding: 45 45 16
Width: 573
Flags: W
LayerCount: 2
Fore
SplineSet
389 838 m 256,0,1
 389 795 389 795 358 764 c 0,2,3
 326 731 326 731 283 731 c 0,4,5
 242 731 242 731 209 764 c 128,-1,6
 176 797 176 797 176 838 c 256,7,8
 176 879 176 879 209 911 c 0,9,10
 242 944 242 944 283 944 c 0,11,12
 326 944 326 944 357.5 912.5 c 128,-1,13
 389 881 389 881 389 838 c 256,0,1
379 106 m 0,14,15
 379 63 379 63 348 33 c 0,16,17
 315 0 315 0 272 0 c 0,18,19
 231 0 231 0 198.5 33 c 128,-1,20
 166 66 166 66 166 106 c 0,21,22
 166 147 166 147 198.5 180 c 128,-1,23
 231 213 231 213 272 213 c 0,24,25
 315 213 315 213 348 182 c 0,26,27
 379 150 379 150 379 106 c 0,14,15
EndSplineSet
EndChar

StartChar: period
Encoding: 46 46 17
Width: 1331
Flags: W
LayerCount: 2
Fore
SplineSet
498 733 m 0,0,1
 434 717 434 717 389 684 c 0,2,3
 342 653 342 653 317 596 c 0,4,5
 301 565 301 565 301 528 c 0,6,7
 301 451 301 451 346 377 c 0,8,9
 393 301 393 301 469 238 c 1,10,11
 543 182 543 182 645 150 c 0,12,13
 748 115 748 115 827 115 c 0,14,15
 920 115 920 115 999 186 c 0,16,17
 1061 240 1061 240 1081 309 c 0,18,19
 1102 379 1102 379 1102 465 c 1,20,21
 987 748 987 748 653 748 c 0,22,23
 571 748 571 748 498 733 c 0,0,1
768 920 m 1,24,25
 879 920 879 920 977 897 c 0,26,27
 1073 874 1073 874 1151 823 c 0,28,29
 1227 772 1227 772 1268 694 c 1,30,31
 1284 621 1284 621 1284 537 c 0,32,33
 1284 389 1284 389 1233 279 c 0,34,35
 1180 168 1180 168 1116 111 c 0,36,37
 1085 82 1085 82 1024 55 c 0,38,39
 963 29 963 29 893 12 c 0,40,41
 821 -2 821 -2 766 -2 c 0,42,43
 741 -2 741 -2 684 -4 c 0,44,45
 629 -6 629 -6 598 -6 c 0,46,47
 528 -6 528 -6 494 0 c 0,48,49
 371 20 371 20 273.5 61 c 128,-1,50
 176 102 176 102 113 178 c 0,51,52
 49 256 49 256 49 369 c 1,53,54
 55 498 55 498 104 586 c 0,55,56
 152 672 152 672 250 754 c 0,57,58
 311 807 311 807 393 840 c 0,59,60
 473 874 473 874 567 893 c 0,61,62
 662 911 662 911 768 920 c 1,24,25
EndSplineSet
EndChar

StartChar: slash
Encoding: 47 47 18
Width: 2
Flags: W
LayerCount: 2
Fore
SplineSet
-184 -606 m 1,0,1
 -285 -868 -285 -868 -461 -868 c 0,2,3
 -516 -868 -516 -868 -590 -840 c 0,4,5
 -637 -819 -637 -819 -664 -809 c 0,6,7
 -688 -797 -688 -797 -715 -788 c 0,8,9
 -741 -782 -741 -782 -774 -782 c 0,10,11
 -872 -782 -872 -782 -1059 -881 c 1,12,13
 -1036 -813 -1036 -813 -958 -713 c 0,14,15
 -883 -612 -883 -612 -739 -612 c 0,16,17
 -664 -612 -664 -612 -569 -659 c 0,18,19
 -477 -707 -477 -707 -414 -707 c 0,20,21
 -365 -707 -365 -707 -309.5 -682 c 128,-1,22
 -254 -657 -254 -657 -184 -606 c 1,0,1
EndSplineSet
EndChar

StartChar: zero
Encoding: 48 48 19
Width: 2
Flags: W
LayerCount: 2
Fore
SplineSet
-213 1966 m 1,0,1
 -262 1837 -262 1837 -330 1772 c 0,2,3
 -397 1704 -397 1704 -489 1704 c 0,4,5
 -547 1704 -547 1704 -618 1733 c 0,6,7
 -653 1749 -653 1749 -686 1761 c 0,8,9
 -719 1776 -719 1776 -745 1784 c 0,10,11
 -772 1790 -772 1790 -803 1790 c 0,12,13
 -901 1790 -901 1790 -1087 1692 c 1,14,15
 -1077 1722 -1077 1722 -1044 1782 c 0,16,17
 -1010 1841 -1010 1841 -938 1901 c 0,18,19
 -864 1960 -864 1960 -768 1960 c 0,20,21
 -686 1960 -686 1960 -598 1913 c 0,22,23
 -508 1866 -508 1866 -442 1866 c 0,24,25
 -348 1866 -348 1866 -213 1966 c 1,0,1
EndSplineSet
EndChar

StartChar: one
Encoding: 49 49 20
Width: 1331
Flags: W
LayerCount: 2
Fore
SplineSet
1036 270 m 1,0,1
 1042 299 1042 299 1042 326 c 0,2,3
 1042 362 1042 362 1035.5 402.5 c 128,-1,4
 1029 443 1029 443 1016 473 c 0,5,6
 987 532 987 532 946 578 c 0,7,8
 903 623 903 623 856 649 c 0,9,10
 793 686 793 686 719 707 c 0,11,12
 643 725 643 725 582 725 c 1,13,14
 518 717 518 717 475 692 c 0,15,16
 438 669 438 669 414 625 c 0,17,18
 391 590 391 590 383 551 c 0,19,20
 375 510 375 510 365 451 c 0,21,22
 348 334 348 334 348 143 c 0,23,24
 348 53 348 53 352 -80 c 256,25,26
 356 -213 356 -213 358 -295 c 0,27,28
 362 -377 362 -377 369 -526 c 0,29,30
 377 -676 377 -676 379 -778 c 1,31,32
 350 -854 350 -854 274 -913 c 0,33,34
 199 -975 199 -975 80 -1001 c 1,35,36
 61 -1001 61 -1001 55 -999 c 128,-1,37
 49 -997 49 -997 49 -989 c 0,38,39
 49 -979 49 -979 59 -954 c 0,40,41
 106 -795 106 -795 133 -602 c 0,42,43
 162 -412 162 -412 170 -252 c 0,44,45
 180 -92 180 -92 180 0 c 2,46,-1
 180 51 l 2,47,48
 180 218 180 218 165 336.5 c 128,-1,49
 150 455 150 455 123 538.5 c 128,-1,50
 96 622 96 622 47 717 c 1,51,52
 121 743 121 743 195 799 c 0,53,54
 266 852 266 852 322 920 c 0,55,56
 344 942 344 942 356 942 c 0,57,58
 385 942 385 942 385 840 c 0,59,60
 385 820 385 820 381 810 c 128,-1,61
 377 800 377 800 373 760 c 1,62,63
 393 774 393 774 411.5 787 c 128,-1,64
 430 800 430 800 447.5 811 c 128,-1,65
 465 822 465 822 485 831 c 0,66,67
 539 854 539 854 592 866 c 0,68,69
 643 877 643 877 707 877 c 0,70,71
 836 872 836 872 969 831 c 0,72,73
 1100 791 1100 791 1188 713 c 0,74,75
 1276 633 1276 633 1276 522 c 1,76,77
 1265 366 1265 366 1214 276 c 0,78,79
 1159 184 1159 184 1063 111 c 0,80,81
 985 53 985 53 891 18 c 0,82,83
 797 -16 797 -16 721 -16 c 1,84,85
 641 -8 641 -8 594 47 c 0,86,87
 543 104 543 104 543 158 c 0,88,89
 543 215 543 215 580 256 c 0,90,91
 614 297 614 297 676 297 c 0,92,93
 700 297 700 297 737 287 c 1,94,95
 737 238 737 238 780 199 c 0,96,97
 825 160 825 160 885 160 c 0,98,99
 930 160 930 160 971 190 c 0,100,101
 1012 221 1012 221 1036 270 c 1,0,1
EndSplineSet
EndChar

StartChar: two
Encoding: 50 50 21
Width: 1946
Flags: W
LayerCount: 2
Fore
SplineSet
1124 709 m 1,0,1
 1212 608 1212 608 1212 522 c 1,2,3
 1203 400 1203 400 1182 340 c 0,4,5
 1157 270 1157 270 1114 215 c 0,6,7
 1069 160 1069 160 1010 111 c 0,8,9
 958 72 958 72 901 43 c 0,10,11
 846 12 846 12 791 -2 c 0,12,13
 733 -20 733 -20 688 -20 c 1,14,15
 612 -12 612 -12 567 43 c 0,16,17
 520 100 520 100 520 154 c 0,18,19
 520 213 520 213 555 256 c 0,20,21
 588 297 588 297 645 297 c 0,22,23
 668 297 668 297 700 287 c 1,24,25
 700 238 700 238 741 199 c 0,26,27
 784 160 784 160 842 160 c 0,28,29
 901 160 901 160 938 182 c 0,30,31
 973 203 973 203 983 270 c 0,32,33
 991 311 991 311 991 330 c 0,34,35
 991 367 991 367 984.5 407 c 128,-1,36
 978 447 978 447 965 475 c 0,37,38
 938 532 938 532 897 580 c 0,39,40
 854 625 854 625 813 649 c 0,41,42
 641 756 641 756 547 756 c 1,43,44
 513 751 513 751 459 711 c 0,45,46
 424 682 424 682 406 641 c 0,47,48
 387 598 387 598 385 571 c 1,49,50
 379 545 379 545 365 451 c 0,51,52
 348 334 348 334 348 143 c 0,53,54
 348 53 348 53 352 -80 c 256,55,56
 356 -213 356 -213 358 -295 c 0,57,58
 362 -377 362 -377 369 -526 c 0,59,60
 377 -676 377 -676 379 -778 c 1,61,62
 350 -854 350 -854 274 -913 c 0,63,64
 199 -975 199 -975 80 -1001 c 1,65,66
 61 -1001 61 -1001 55 -999 c 128,-1,67
 49 -997 49 -997 49 -989 c 0,68,69
 49 -979 49 -979 59 -954 c 0,70,71
 106 -795 106 -795 133 -602 c 0,72,73
 162 -412 162 -412 170 -252 c 0,74,75
 180 -92 180 -92 180 0 c 2,76,-1
 180 51 l 2,77,78
 180 218 180 218 165 336.5 c 128,-1,79
 150 455 150 455 123 538.5 c 128,-1,80
 96 622 96 622 47 717 c 1,81,82
 121 743 121 743 195 799 c 0,83,84
 266 852 266 852 322 920 c 0,85,86
 344 942 344 942 356 942 c 0,87,88
 385 942 385 942 385 840 c 0,89,90
 385 820 385 820 381 810 c 128,-1,91
 377 800 377 800 373 760 c 1,92,93
 413 786 413 786 441.5 804.5 c 128,-1,94
 470 823 470 823 492.5 835.5 c 128,-1,95
 515 848 515 848 535 854 c 0,96,97
 602 877 602 877 672 877 c 0,98,99
 909 868 909 868 1057 770 c 1,100,101
 1217 877 1217 877 1356 877 c 1,102,103
 1477 872 1477 872 1602 831 c 0,104,105
 1726 791 1726 791 1810 711 c 0,106,107
 1894 633 1894 633 1894 522 c 1,108,109
 1885 400 1885 400 1864 340 c 0,110,111
 1839 270 1839 270 1796 215 c 0,112,113
 1751 160 1751 160 1692 111 c 0,114,115
 1640 72 1640 72 1583 43 c 0,116,117
 1528 12 1528 12 1473 -2 c 0,118,119
 1415 -20 1415 -20 1370 -20 c 1,120,121
 1296 -12 1296 -12 1249 45 c 0,122,123
 1202 100 1202 100 1202 154 c 0,124,125
 1202 213 1202 213 1237 256 c 0,126,127
 1270 297 1270 297 1327 297 c 0,128,129
 1350 297 1350 297 1382 287 c 1,130,131
 1382 238 1382 238 1423 199 c 0,132,133
 1466 160 1466 160 1524 160 c 0,134,135
 1640 160 1640 160 1665 270 c 0,136,137
 1673 311 1673 311 1673 332 c 0,138,139
 1673 382 1673 382 1659 438 c 128,-1,140
 1645 494 1645 494 1620 530 c 0,141,142
 1565 610 1565 610 1495 649 c 0,143,144
 1337 737 1337 737 1225 737 c 0,145,146
 1161 737 1161 737 1124 709 c 1,0,1
EndSplineSet
EndChar

StartChar: three
Encoding: 51 51 22
Width: 1331
Flags: W
LayerCount: 2
Fore
SplineSet
365 451 m 1,0,1
 365 307 365 307 379 164 c 1,2,3
 360 115 360 115 322 72 c 0,4,5
 281 29 281 29 221 -4 c 0,6,7
 164 -39 164 -39 80 -59 c 1,8,9
 61 -59 61 -59 55 -57 c 128,-1,10
 49 -55 49 -55 49 -47 c 0,11,12
 49 -37 49 -37 59 -12 c 0,13,14
 109 154 109 154 131 246 c 0,15,16
 156 338 156 338 162 381 c 0,17,18
 168 426 168 426 180 532 c 0,19,20
 186 578 186 578 186 664 c 0,21,22
 186 848 186 848 153.5 1050.5 c 128,-1,23
 121 1253 121 1253 47 1393 c 1,24,25
 117 1417 117 1417 190 1473 c 0,26,27
 264 1526 264 1526 322 1595 c 0,28,29
 342 1618 342 1618 356 1618 c 0,30,31
 385 1618 385 1618 385 1516 c 0,32,33
 385 1448 385 1448 373 1333 c 0,34,35
 373 1305 373 1305 373 1249 c 0,36,37
 371 1196 371 1196 371 1163 c 256,38,39
 371 1130 371 1130 371 1090 c 0,40,41
 371 1040 371 1040 371 997 c 0,42,43
 371 956 371 956 373 881 c 0,44,45
 373 803 373 803 373 760 c 1,46,47
 393 774 393 774 411.5 787 c 128,-1,48
 430 800 430 800 447.5 811 c 128,-1,49
 465 822 465 822 485 831 c 0,50,51
 539 854 539 854 592 866 c 0,52,53
 643 877 643 877 707 877 c 0,54,55
 836 872 836 872 969 831 c 0,56,57
 1100 791 1100 791 1188 713 c 0,58,59
 1276 633 1276 633 1276 522 c 1,60,61
 1265 366 1265 366 1214 276 c 0,62,63
 1159 184 1159 184 1063 111 c 0,64,65
 983 51 983 51 893 16 c 0,66,67
 799 -20 799 -20 725 -20 c 1,68,69
 645 -12 645 -12 598 43 c 0,70,71
 547 100 547 100 547 154 c 0,72,73
 547 213 547 213 582 256 c 0,74,75
 616 297 616 297 678 297 c 0,76,77
 705 297 705 297 737 287 c 1,78,79
 737 238 737 238 780 199 c 0,80,81
 825 160 825 160 885 160 c 0,82,83
 930 160 930 160 971 190 c 0,84,85
 1012 221 1012 221 1036 270 c 1,86,87
 1042 299 1042 299 1042 326 c 0,88,89
 1042 362 1042 362 1035.5 402.5 c 128,-1,90
 1029 443 1029 443 1016 473 c 0,91,92
 987 532 987 532 946 578 c 0,93,94
 903 623 903 623 856 649 c 0,95,96
 793 686 793 686 719 707 c 0,97,98
 643 725 643 725 582 725 c 1,99,100
 518 717 518 717 475 692 c 0,101,102
 438 669 438 669 414 625 c 0,103,104
 391 590 391 590 383 551 c 0,105,106
 375 510 375 510 365 451 c 1,0,1
EndSplineSet
EndChar

StartChar: four
Encoding: 52 52 23
Width: 1946
Flags: W
LayerCount: 2
Fore
SplineSet
360 737 m 1,0,1
 408 810 408 810 492 842 c 0,2,3
 576 872 576 872 672 877 c 1,4,5
 774 877 774 877 874 850 c 0,6,7
 977 823 977 823 1057 770 c 1,8,9
 1217 877 1217 877 1356 877 c 1,10,11
 1477 872 1477 872 1602 831 c 0,12,13
 1726 791 1726 791 1810 711 c 0,14,15
 1894 633 1894 633 1894 522 c 1,16,17
 1885 400 1885 400 1864 340 c 0,18,19
 1839 270 1839 270 1796 215 c 0,20,21
 1751 160 1751 160 1692 111 c 0,22,23
 1640 72 1640 72 1583 43 c 0,24,25
 1528 12 1528 12 1473 -2 c 0,26,27
 1415 -20 1415 -20 1370 -20 c 1,28,29
 1296 -12 1296 -12 1249 45 c 0,30,31
 1202 100 1202 100 1202 154 c 0,32,33
 1202 213 1202 213 1237 256 c 0,34,35
 1270 297 1270 297 1327 297 c 0,36,37
 1350 297 1350 297 1382 287 c 1,38,39
 1382 238 1382 238 1423 199 c 0,40,41
 1466 160 1466 160 1524 160 c 0,42,43
 1640 160 1640 160 1665 270 c 0,44,45
 1673 311 1673 311 1673 332 c 0,46,47
 1673 382 1673 382 1659 438 c 128,-1,48
 1645 494 1645 494 1620 530 c 0,49,50
 1565 610 1565 610 1495 649 c 0,51,52
 1337 737 1337 737 1225 737 c 0,53,54
 1161 737 1161 737 1124 709 c 1,55,56
 1212 608 1212 608 1212 522 c 1,57,58
 1203 400 1203 400 1182 340 c 0,59,60
 1157 270 1157 270 1114 215 c 0,61,62
 1069 160 1069 160 1010 111 c 0,63,64
 958 72 958 72 901 43 c 0,65,66
 846 12 846 12 791 -2 c 0,67,68
 733 -20 733 -20 688 -20 c 1,69,70
 612 -12 612 -12 567 43 c 0,71,72
 520 100 520 100 520 154 c 0,73,74
 520 213 520 213 555 256 c 0,75,76
 588 297 588 297 645 297 c 0,77,78
 668 297 668 297 700 287 c 1,79,80
 700 238 700 238 741 199 c 0,81,82
 784 160 784 160 842 160 c 0,83,84
 901 160 901 160 938 182 c 0,85,86
 973 203 973 203 983 270 c 0,87,88
 991 311 991 311 991 330 c 0,89,90
 991 367 991 367 984.5 407 c 128,-1,91
 978 447 978 447 965 475 c 0,92,93
 938 532 938 532 897 580 c 0,94,95
 854 625 854 625 813 649 c 0,96,97
 641 756 641 756 547 756 c 1,98,99
 507 748 507 748 455 705 c 0,100,101
 420 674 420 674 399 629 c 0,102,103
 379 584 379 584 354 502 c 1,104,105
 354 487 354 487 354 477 c 0,106,107
 352 469 352 469 352 457 c 0,108,109
 352 416 352 416 356 373 c 0,110,111
 360 332 360 332 369 266 c 0,112,113
 377 203 377 203 379 164 c 1,114,115
 360 115 360 115 322 72 c 0,116,117
 281 29 281 29 221 -4 c 0,118,119
 164 -39 164 -39 80 -59 c 1,120,121
 61 -59 61 -59 55 -57 c 128,-1,122
 49 -55 49 -55 49 -47 c 0,123,124
 49 -37 49 -37 59 -12 c 0,125,126
 109 154 109 154 131 246 c 0,127,128
 156 338 156 338 162 381 c 0,129,130
 168 426 168 426 180 532 c 0,131,132
 186 578 186 578 186 664 c 0,133,134
 186 848 186 848 153.5 1050.5 c 128,-1,135
 121 1253 121 1253 47 1393 c 1,136,137
 117 1417 117 1417 190 1473 c 0,138,139
 264 1526 264 1526 322 1595 c 0,140,141
 340 1616 340 1616 352 1616 c 0,142,143
 385 1616 385 1616 385 1499 c 0,144,145
 385 1427 385 1427 373 1313 c 1,146,147
 371 1241 371 1241 369 1176 c 0,148,149
 367 1108 367 1108 365 1036 c 0,150,151
 362 967 362 967 362 897 c 0,152,153
 360 825 360 825 360 737 c 1,0,1
EndSplineSet
EndChar

StartChar: five
Encoding: 53 53 24
Width: 1946
Flags: W
LayerCount: 2
Fore
SplineSet
1659 346 m 0,0,1
 1659 418 1659 418 1621.5 495.5 c 128,-1,2
 1584 573 1584 573 1511 633 c 0,3,4
 1473 666 1473 666 1419 686 c 0,5,6
 1368 709 1368 709 1321 717 c 128,-1,7
 1274 725 1274 725 1241 725 c 0,8,9
 1194 725 1194 725 1167 709 c 0,10,11
 1141 692 1141 692 1141 674 c 1,12,13
 1163 631 1163 631 1169 604 c 0,14,15
 1176 575 1176 575 1178 522 c 0,16,17
 1178 482 1178 482 1171 436 c 128,-1,18
 1164 390 1164 390 1153 354.5 c 128,-1,19
 1142 319 1142 319 1122 285 c 0,20,21
 1067 195 1067 195 967 111 c 0,22,23
 874 33 874 33 823 4 c 0,24,25
 770 -23 770 -23 657 -29 c 1,26,27
 598 -23 598 -23 547 20 c 0,28,29
 494 63 494 63 494 133 c 0,30,31
 494 147 494 147 502 184 c 0,32,33
 512 229 512 229 540.5 264 c 128,-1,34
 569 299 569 299 616 299 c 0,35,36
 641 299 641 299 672 287 c 1,37,38
 680 252 680 252 719 222.5 c 128,-1,39
 758 193 758 193 797 176 c 1,40,41
 821 172 821 172 836 172 c 0,42,43
 881 172 881 172 911 211 c 0,44,45
 940 246 940 246 948 348 c 0,46,47
 948 389 948 389 938 441 c 128,-1,48
 928 493 928 493 911 524 c 0,49,50
 872 596 872 596 811 645 c 0,51,52
 766 682 766 682 702 705 c 0,53,54
 637 729 637 729 580 729 c 0,55,56
 549 729 549 729 535 725 c 0,57,58
 477 714 477 714 410 653 c 0,59,60
 362 608 362 608 354 502 c 0,61,62
 354 487 354 487 354 477 c 0,63,64
 352 469 352 469 352 457 c 0,65,66
 352 416 352 416 356 373 c 0,67,68
 360 332 360 332 369 266 c 0,69,70
 377 203 377 203 379 164 c 1,71,72
 360 115 360 115 322 72 c 0,73,74
 281 29 281 29 221 -4 c 0,75,76
 164 -39 164 -39 80 -59 c 1,77,78
 61 -59 61 -59 55 -57 c 128,-1,79
 49 -55 49 -55 49 -47 c 0,80,81
 49 -37 49 -37 59 -12 c 0,82,83
 78 49 78 49 94 133 c 0,84,85
 113 215 113 215 125 313 c 0,86,87
 135 410 135 410 135 500 c 0,88,89
 135 608 135 608 119 638.5 c 128,-1,90
 103 669 103 669 47 717 c 1,91,92
 121 743 121 743 195 799 c 0,93,94
 266 852 266 852 322 920 c 0,95,96
 344 942 344 942 356 942 c 0,97,98
 385 942 385 942 385 840 c 0,99,100
 385 820 385 820 381 810 c 128,-1,101
 377 800 377 800 373 760 c 1,102,103
 393 774 393 774 411.5 787 c 128,-1,104
 430 800 430 800 447.5 811 c 128,-1,105
 465 822 465 822 485 831 c 0,106,107
 539 854 539 854 592 866 c 0,108,109
 643 877 643 877 707 877 c 1,110,111
 791 868 791 868 856 850 c 0,112,113
 924 829 924 829 969 805 c 0,114,115
 1012 780 1012 780 1038 762 c 0,116,117
 1065 743 1065 743 1065 743 c 1,118,119
 1073 750 1073 750 1096 766 c 0,120,121
 1116 782 1116 782 1155 805 c 0,122,123
 1194 825 1194 825 1248.5 841.5 c 128,-1,124
 1303 858 1303 858 1364 858 c 0,125,126
 1477 852 1477 852 1591 817 c 0,127,128
 1706 782 1706 782 1788 707 c 0,129,130
 1868 631 1868 631 1872 510 c 1,131,132
 1872 355 1872 355 1829 279 c 0,133,134
 1786 205 1786 205 1690 123 c 0,135,136
 1604 51 1604 51 1528 12 c 0,137,138
 1450 -27 1450 -27 1366 -29 c 1,139,140
 1288 -8 1288 -8 1247 41 c 0,141,142
 1206 88 1206 88 1206 141 c 0,143,144
 1206 184 1206 184 1222.5 219 c 128,-1,145
 1239 254 1239 254 1270 274 c 0,146,147
 1298 295 1298 295 1335 295 c 0,148,149
 1360 295 1360 295 1380 287 c 1,150,151
 1403 211 1403 211 1464 184 c 0,152,153
 1505 162 1505 162 1548 162 c 0,154,155
 1657 162 1657 162 1659 346 c 0,0,1
EndSplineSet
EndChar

StartChar: six
Encoding: 54 54 25
Width: 1331
Flags: W
LayerCount: 2
Fore
SplineSet
47 717 m 1,0,1
 121 743 121 743 195 799 c 0,2,3
 266 852 266 852 322 920 c 0,4,5
 344 942 344 942 356 942 c 0,6,7
 385 942 385 942 385 840 c 0,8,9
 385 820 385 820 381 810 c 128,-1,10
 377 800 377 800 373 760 c 1,11,12
 393 774 393 774 411.5 787 c 128,-1,13
 430 800 430 800 447.5 811 c 128,-1,14
 465 822 465 822 485 831 c 0,15,16
 539 854 539 854 592 866 c 0,17,18
 643 877 643 877 707 877 c 0,19,20
 836 872 836 872 969 831 c 0,21,22
 1100 791 1100 791 1188 713 c 0,23,24
 1276 633 1276 633 1276 522 c 1,25,26
 1265 366 1265 366 1214 276 c 0,27,28
 1159 184 1159 184 1063 111 c 0,29,30
 983 51 983 51 893 16 c 0,31,32
 799 -20 799 -20 725 -20 c 1,33,34
 645 -12 645 -12 598 43 c 0,35,36
 547 100 547 100 547 154 c 0,37,38
 547 213 547 213 582 256 c 0,39,40
 616 297 616 297 678 297 c 0,41,42
 705 297 705 297 737 287 c 1,43,44
 737 238 737 238 780 199 c 0,45,46
 825 160 825 160 885 160 c 0,47,48
 930 160 930 160 971 190 c 0,49,50
 1012 221 1012 221 1036 270 c 1,51,52
 1042 299 1042 299 1042 326 c 0,53,54
 1042 362 1042 362 1035.5 402.5 c 128,-1,55
 1029 443 1029 443 1016 473 c 0,56,57
 987 532 987 532 946 578 c 0,58,59
 903 623 903 623 856 649 c 0,60,61
 793 686 793 686 719 707 c 0,62,63
 643 725 643 725 582 725 c 1,64,65
 518 717 518 717 475 692 c 0,66,67
 438 669 438 669 414 625 c 0,68,69
 391 590 391 590 383 551 c 0,70,71
 375 510 375 510 365 451 c 0,72,73
 362 416 362 416 362 367 c 0,74,75
 362 350 362 350 365 332 c 0,76,77
 365 311 365 311 369 266 c 128,-1,78
 373 221 373 221 379 164 c 1,79,80
 360 115 360 115 322 72 c 0,81,82
 281 29 281 29 221 -4 c 0,83,84
 164 -39 164 -39 80 -59 c 1,85,86
 61 -59 61 -59 55 -57 c 128,-1,87
 49 -55 49 -55 49 -47 c 0,88,89
 49 -37 49 -37 59 -12 c 1,90,91
 111 233 111 233 127 326 c 0,92,93
 143 420 143 420 143 492 c 1,94,95
 116 633 116 633 47 717 c 1,0,1
EndSplineSet
EndChar

StartChar: seven
Encoding: 55 55 26
Width: 1331
Flags: W
LayerCount: 2
Fore
SplineSet
246 905 m 1,0,1
 271 905 271 905 304 891 c 128,-1,2
 337 877 337 877 363 851 c 128,-1,3
 389 825 389 825 401 788 c 1,4,-1
 770 154 l 1,5,6
 918 277 918 277 975 329 c 128,-1,7
 1032 381 1032 381 1057.5 418 c 128,-1,8
 1083 455 1083 455 1083 494 c 0,9,10
 1083 518 1083 518 1061 604 c 1,11,12
 1039 662 1039 662 1013 698 c 128,-1,13
 987 734 987 734 962 751 c 128,-1,14
 937 768 937 768 910 777 c 128,-1,15
 883 786 883 786 842 795 c 1,16,-1
 1079 895 l 2,17,18
 1107 905 1107 905 1124 905 c 0,19,20
 1202 905 1202 905 1255 811 c 0,21,22
 1307 719 1307 719 1307 625 c 0,23,24
 1307 600 1307 600 1298 571 c 1,25,26
 1287 503 1287 503 1230.5 428.5 c 128,-1,27
 1174 354 1174 354 1092 280 c 128,-1,28
 1010 206 1010 206 909 126.5 c 128,-1,29
 808 47 808 47 655 -72 c 0,30,31
 602 -114 602 -114 579.5 -134.5 c 128,-1,32
 557 -155 557 -155 519.5 -191 c 128,-1,33
 482 -227 482 -227 434 -270 c 0,34,35
 401 -298 401 -298 363.5 -364.5 c 128,-1,36
 326 -431 326 -431 326 -494 c 0,37,38
 326 -544 326 -544 354 -582 c 0,39,40
 444 -702 444 -702 565 -758 c 1,41,42
 452 -863 452 -863 322 -922 c 1,43,44
 305 -903 305 -903 251.5 -847 c 128,-1,45
 198 -791 198 -791 176.5 -763.5 c 128,-1,46
 155 -736 155 -736 133 -688 c 0,47,48
 109 -636 109 -636 109 -582 c 0,49,50
 109 -409 109 -409 324 -217 c 0,51,52
 545 -19 545 -19 580 10 c 1,53,-1
 221 618 l 2,54,55
 186 680 186 680 158.5 717.5 c 128,-1,56
 131 755 131 755 112 769.5 c 128,-1,57
 93 784 93 784 77.5 788 c 128,-1,58
 62 792 62 792 12 803 c 1,59,-1
 246 905 l 1,0,1
EndSplineSet
EndChar

StartChar: eight
Encoding: 56 56 27
Width: 1434
Flags: W
LayerCount: 2
Fore
SplineSet
1049 1554 m 1,0,1
 1102 1620 1102 1620 1155 1653 c 128,-1,2
 1208 1686 1208 1686 1284 1686 c 0,3,4
 1311 1683 1311 1683 1333 1663 c 0,5,6
 1356 1642 1356 1642 1356 1606 c 0,7,8
 1356 1567 1356 1567 1327 1522 c 1,9,10
 1286 1395 1286 1395 1188 1327 c 0,11,12
 1087 1260 1087 1260 844 1126 c 0,13,14
 598 993 598 993 475 862 c 0,15,16
 354 731 354 731 332 516 c 1,17,18
 332 395 332 395 393 291 c 0,19,20
 455 184 455 184 518 152 c 1,21,22
 610 86 610 86 712.5 49 c 128,-1,23
 815 12 815 12 909 12 c 0,24,25
 1024 12 1024 12 1096 70 c 0,26,27
 1165 125 1165 125 1165 238 c 0,28,29
 1165 328 1165 328 1137 414 c 0,30,31
 1106 500 1106 500 1057 569 c 0,32,33
 1006 637 1006 637 946 678 c 0,34,35
 885 717 885 717 827 717 c 1,36,37
 778 713 778 713 778 672 c 0,38,39
 778 641 778 641 799 600 c 0,40,41
 811 580 811 580 817 571 c 0,42,43
 825 563 825 563 868 528 c 1,44,45
 819 502 819 502 772 502 c 0,46,47
 741 502 741 502 702 516 c 1,48,49
 664 535 664 535 647 559 c 0,50,51
 631 586 631 586 610 639 c 1,52,53
 610 686 610 686 641 725 c 0,54,55
 674 764 674 764 723 799 c 0,56,57
 795 852 795 852 897 852 c 0,58,59
 991 852 991 852 1083 811 c 0,60,61
 1176 768 1176 768 1221 721 c 0,62,63
 1384 549 1384 549 1384 360 c 0,64,65
 1384 307 1384 307 1372 254 c 0,66,67
 1337 102 1337 102 1255 37 c 0,68,69
 1171 -31 1171 -31 1040 -66 c 0,70,71
 948 -90 948 -90 829 -90 c 0,72,73
 768 -90 768 -90 565 -74 c 1,74,75
 426 -47 426 -47 330 8 c 0,76,77
 231 61 231 61 170 131 c 128,-1,78
 109 201 109 201 80 270 c 0,79,80
 49 340 49 340 43 406 c 0,81,82
 41 426 41 426 41 465 c 0,83,84
 41 541 41 541 61 610 c 0,85,86
 80 680 80 680 121 745 c 0,87,88
 162 811 162 811 221 868 c 0,89,90
 338 987 338 987 444 1051 c 0,91,92
 551 1114 551 1114 705 1178 c 0,93,94
 858 1239 858 1239 940 1284 c 0,95,96
 1024 1327 1024 1327 1120 1421 c 0,97,98
 1159 1460 1159 1460 1159 1489 c 0,99,100
 1159 1520 1159 1520 1128 1536 c 0,101,102
 1098 1554 1098 1554 1049 1554 c 1,0,1
EndSplineSet
EndChar

StartChar: nine
Encoding: 57 57 28
Width: 1331
Flags: W
LayerCount: 2
Fore
SplineSet
291 1389 m 1,0,1
 225 1427 225 1427 197 1427 c 0,2,3
 172 1427 172 1427 160 1417 c 0,4,5
 145 1407 145 1407 74 1352 c 1,6,-1
 209 1542 l 2,7,8
 233 1579 233 1579 285 1579 c 0,9,10
 338 1579 338 1579 401 1544 c 0,11,12
 467 1509 467 1509 516 1460 c 128,-1,13
 565 1411 565 1411 569 1376 c 1,14,15
 604 1303 604 1303 717 1059 c 0,16,17
 827 815 827 815 897 672 c 0,18,19
 965 526 965 526 1049 381 c 1,20,21
 1130 233 1130 233 1217 115 c 0,22,23
 1247 76 1247 76 1257 63 c 0,24,25
 1268 53 1268 53 1282 45 c 0,26,27
 1296 39 1296 39 1315 37 c 0,28,29
 1331 35 1331 35 1372 29 c 1,30,-1
 1169 -33 l 1,31,32
 1069 -33 1069 -33 958 115 c 0,33,34
 848 262 848 262 766 438 c 0,35,36
 682 612 682 612 645 719 c 1,37,38
 637 719 637 719 606 641 c 0,39,40
 575 565 575 565 496 358 c 0,41,42
 418 150 418 150 414 147 c 0,43,44
 381 72 381 72 319 16 c 0,45,46
 256 -39 256 -39 193 -39 c 0,47,48
 164 -39 164 -39 135 -27 c 0,49,50
 84 -2 84 -2 55 25 c 0,51,52
 29 49 29 49 29 90 c 0,53,54
 31 119 31 119 53 152 c 0,55,56
 76 184 76 184 109 209 c 0,57,58
 141 231 141 231 168 231 c 0,59,60
 184 231 184 231 201 225 c 1,61,62
 227 178 227 178 295 168 c 1,63,64
 338 168 338 168 373 221 c 0,65,66
 406 274 406 274 418 311 c 2,67,-1
 588 797 l 1,68,69
 569 874 569 874 500 1042 c 0,70,71
 430 1212 430 1212 291 1389 c 1,0,1
EndSplineSet
EndChar

StartChar: colon
Encoding: 58 58 29
Width: 2
Flags: W
LayerCount: 2
Fore
SplineSet
-211 -109 m 1,0,1
 -227 -141 -227 -141 -254 -195 c 0,2,3
 -283 -250 -283 -250 -326 -299 c 128,-1,4
 -369 -348 -369 -348 -436 -383 c 0,5,6
 -506 -416 -506 -416 -602 -416 c 0,7,8
 -737 -416 -737 -416 -905 -348 c 0,9,10
 -1094 -272 -1094 -272 -1239 -272 c 0,11,12
 -1331 -272 -1331 -272 -1415 -297 c 0,13,14
 -1501 -319 -1501 -319 -1675 -381 c 1,15,16
 -1591 -279 -1591 -279 -1511 -213 c 0,17,18
 -1432 -152 -1432 -152 -1348 -119 c 0,19,20
 -1264 -88 -1264 -88 -1167 -88 c 0,21,22
 -1051 -88 -1051 -88 -905 -135 c 0,23,24
 -776 -176 -776 -176 -731 -190.5 c 128,-1,25
 -686 -205 -686 -205 -625 -215 c 1,26,27
 -565 -229 -565 -229 -522 -229 c 0,28,29
 -451 -229 -451 -229 -377 -201 c 0,30,31
 -303 -172 -303 -172 -211 -109 c 1,0,1
EndSplineSet
EndChar

StartChar: semicolon
Encoding: 59 59 30
Width: 2
Flags: W
LayerCount: 2
Fore
SplineSet
-172 -131 m 1,0,1
 -221 -260 -221 -260 -289 -326 c 0,2,3
 -356 -393 -356 -393 -449 -393 c 0,4,5
 -504 -393 -504 -393 -578 -365 c 0,6,7
 -659 -330 -659 -330 -688 -317 c 0,8,9
 -717 -307 -717 -307 -762 -307 c 0,10,11
 -860 -307 -860 -307 -1047 -406 c 1,12,13
 -1036 -377 -1036 -377 -1004 -315 c 0,14,15
 -971 -256 -971 -256 -897 -197 c 0,16,17
 -825 -137 -825 -137 -727 -137 c 0,18,19
 -651 -137 -651 -137 -557 -184 c 0,20,21
 -467 -231 -467 -231 -401 -231 c 0,22,23
 -307 -231 -307 -231 -172 -131 c 1,0,1
EndSplineSet
EndChar

StartChar: less
Encoding: 60 60 31
Width: 1331
Flags: W
LayerCount: 2
Fore
SplineSet
963 270 m 0,0,1
 993 317 993 317 993 375 c 0,2,3
 993 432 993 432 963 485 c 0,4,5
 930 539 930 539 887 580 c 0,6,7
 842 621 842 621 795 647 c 0,8,9
 752 672 752 672 705 688 c 0,10,11
 657 707 657 707 610 715 c 128,-1,12
 563 723 563 723 522 723 c 0,13,14
 444 721 444 721 379 686 c 0,15,16
 311 651 311 651 289 580 c 0,17,18
 283 553 283 553 283 526 c 0,19,20
 283 465 283 465 310.5 407.5 c 128,-1,21
 338 350 338 350 381 305 c 128,-1,22
 424 260 424 260 471 233 c 0,23,24
 537 197 537 197 610 178 c 0,25,26
 682 160 682 160 748 160 c 1,27,28
 891 170 891 170 963 270 c 0,0,1
215 113 m 1,29,30
 164 133 164 133 126 172 c 128,-1,31
 88 211 88 211 69.5 258 c 128,-1,32
 51 305 51 305 51 356 c 0,33,34
 57 477 57 477 109 569 c 0,35,36
 162 662 162 662 260 739 c 0,37,38
 307 776 307 776 377 809 c 0,39,40
 444 842 444 842 514 858 c 0,41,42
 582 874 582 874 647 874 c 0,43,44
 897 866 897 866 1044 770 c 1,45,46
 1044 891 1044 891 1040 961 c 0,47,48
 1038 1030 1038 1030 1026 1108 c 0,49,50
 1016 1186 1016 1186 991 1257 c 0,51,52
 967 1331 967 1331 930 1393 c 1,53,54
 999 1417 999 1417 1073 1473 c 0,55,56
 1149 1528 1149 1528 1204 1595 c 0,57,58
 1227 1618 1227 1618 1239 1618 c 0,59,60
 1270 1618 1270 1618 1270 1509 c 0,61,62
 1270 1440 1270 1440 1257 1333 c 1,63,64
 1249 1081 1249 1081 1249 451 c 0,65,66
 1251 369 1251 369 1251 330 c 0,67,68
 1251 289 1251 289 1255 236 c 0,69,70
 1257 180 1257 180 1264 131 c 1,71,72
 1237 55 1237 55 1159 -4 c 0,73,74
 1083 -63 1083 -63 965 -92 c 1,75,-1
 270 -92 l 2,76,77
 211 -92 211 -92 170 -80 c 0,78,79
 131 -70 131 -70 96 -27 c 0,80,81
 40 39 40 39 40 113 c 1,82,-1
 215 113 l 1,29,30
EndSplineSet
EndChar

StartChar: equal
Encoding: 61 61 32
Width: 573
Flags: W
LayerCount: 2
Fore
SplineSet
385 479 m 256,0,1
 385 436 385 436 354 406 c 0,2,3
 322 373 322 373 279 373 c 0,4,5
 238 373 238 373 205 405.5 c 128,-1,6
 172 438 172 438 172 479 c 256,7,8
 172 520 172 520 205 553 c 128,-1,9
 238 586 238 586 279 586 c 0,10,11
 322 586 322 586 354 555 c 0,12,13
 385 522 385 522 385 479 c 256,0,1
EndSplineSet
EndChar

StartChar: greater
Encoding: 62 62 33
Width: 2
Flags: W
LayerCount: 2
Fore
SplineSet
-188 -743 m 0,0,1
 -188 -778 -188 -778 -215 -807 c 0,2,3
 -244 -836 -244 -836 -279 -836 c 0,4,5
 -313 -836 -313 -836 -340 -807 c 0,6,7
 -369 -780 -369 -780 -369 -743 c 0,8,9
 -369 -711 -369 -711 -342 -682 c 128,-1,10
 -315 -653 -315 -653 -279 -653 c 0,11,12
 -244 -653 -244 -653 -215 -680 c 0,13,14
 -188 -709 -188 -709 -188 -743 c 0,0,1
-63 -537 m 0,15,16
 -63 -571 -63 -571 -90 -600 c 0,17,18
 -119 -629 -119 -629 -154 -629 c 0,19,20
 -188 -629 -188 -629 -215 -600 c 0,21,22
 -244 -573 -244 -573 -244 -537 c 0,23,24
 -244 -504 -244 -504 -217 -475 c 128,-1,25
 -190 -446 -190 -446 -154 -446 c 0,26,27
 -119 -446 -119 -446 -90 -473 c 0,28,29
 -63 -502 -63 -502 -63 -537 c 0,15,16
-303 -532 m 0,30,31
 -303 -567 -303 -567 -330.5 -596 c 128,-1,32
 -358 -625 -358 -625 -393 -625 c 256,33,34
 -428 -625 -428 -625 -455 -596 c 0,35,36
 -483 -569 -483 -569 -483 -532 c 0,37,38
 -483 -500 -483 -500 -457 -471 c 0,39,40
 -430 -442 -430 -442 -393 -442 c 0,41,42
 -358 -442 -358 -442 -330 -469 c 0,43,44
 -303 -498 -303 -498 -303 -532 c 0,30,31
EndSplineSet
EndChar

StartChar: question
Encoding: 63 63 34
Width: 2
Flags: W
LayerCount: 2
Fore
SplineSet
-211 -600 m 1,0,1
 -223 -627 -223 -627 -254 -682 c 0,2,3
 -283 -741 -283 -741 -326 -791.5 c 128,-1,4
 -369 -842 -369 -842 -436 -874 c 0,5,6
 -506 -907 -506 -907 -602 -907 c 0,7,8
 -739 -907 -739 -907 -905 -840 c 0,9,10
 -1092 -764 -1092 -764 -1239 -764 c 0,11,12
 -1329 -764 -1329 -764 -1415 -786 c 0,13,14
 -1501 -811 -1501 -811 -1675 -872 c 1,15,16
 -1550 -721 -1550 -721 -1430 -649 c 0,17,18
 -1311 -580 -1311 -580 -1167 -580 c 0,19,20
 -1051 -580 -1051 -580 -905 -627 c 0,21,22
 -776 -670 -776 -670 -731 -682 c 0,23,24
 -686 -696 -686 -696 -625 -709 c 0,25,26
 -565 -721 -565 -721 -522 -721 c 0,27,28
 -451 -721 -451 -721 -377 -692 c 0,29,30
 -301 -664 -301 -664 -211 -600 c 1,0,1
EndSplineSet
EndChar

StartChar: at
Encoding: 64 64 35
Width: 1946
Flags: W
LayerCount: 2
Fore
SplineSet
360 737 m 1,0,1
 418 805 418 805 506 836 c 0,2,3
 592 866 592 866 672 866 c 0,4,5
 909 858 909 858 1057 760 c 1,6,7
 1217 866 1217 866 1356 866 c 1,8,9
 1477 862 1477 862 1601.5 821 c 128,-1,10
 1726 780 1726 780 1810 700 c 0,11,12
 1894 623 1894 623 1894 512 c 1,13,14
 1886 403 1886 403 1864 340 c 0,15,16
 1839 270 1839 270 1796 215 c 0,17,18
 1751 160 1751 160 1692 111 c 0,19,20
 1640 72 1640 72 1583 43 c 0,21,22
 1528 12 1528 12 1473 -2 c 0,23,24
 1415 -20 1415 -20 1370 -20 c 1,25,26
 1296 -12 1296 -12 1249 45 c 0,27,28
 1202 100 1202 100 1202 154 c 0,29,30
 1202 213 1202 213 1237 256 c 0,31,32
 1270 297 1270 297 1327 297 c 0,33,34
 1350 297 1350 297 1382 287 c 1,35,36
 1382 238 1382 238 1423 199 c 0,37,38
 1466 160 1466 160 1524 160 c 0,39,40
 1640 160 1640 160 1665 270 c 0,41,42
 1673 311 1673 311 1673 332 c 0,43,44
 1673 381 1673 381 1658.5 433.5 c 128,-1,45
 1644 486 1644 486 1620 520 c 0,46,47
 1565 600 1565 600 1495 639 c 0,48,49
 1337 727 1337 727 1225 727 c 0,50,51
 1161 727 1161 727 1124 698 c 1,52,53
 1212 598 1212 598 1212 512 c 1,54,55
 1204 403 1204 403 1182 340 c 0,56,57
 1157 270 1157 270 1114 215 c 0,58,59
 1069 160 1069 160 1010 111 c 0,60,61
 958 72 958 72 901 43 c 0,62,63
 846 12 846 12 791 -2 c 0,64,65
 733 -20 733 -20 688 -20 c 1,66,67
 612 -12 612 -12 567 43 c 0,68,69
 520 100 520 100 520 154 c 0,70,71
 520 213 520 213 555 256 c 0,72,73
 588 297 588 297 645 297 c 0,74,75
 668 297 668 297 700 287 c 1,76,77
 700 238 700 238 741 199 c 0,78,79
 784 160 784 160 842 160 c 0,80,81
 901 160 901 160 938 182 c 0,82,83
 973 203 973 203 983 270 c 0,84,85
 991 311 991 311 991 330 c 0,86,87
 991 404 991 404 965 467 c 0,88,89
 938 522 938 522 897 569 c 0,90,91
 854 614 854 614 813 639 c 0,92,93
 641 745 641 745 547 745 c 1,94,95
 492 737 492 737 459 711 c 0,96,97
 424 682 424 682 406 641 c 0,98,99
 387 598 387 598 385 571 c 1,100,101
 379 545 379 545 365 451 c 0,102,103
 348 334 348 334 348 143 c 0,104,105
 348 53 348 53 352 -80 c 256,106,107
 356 -213 356 -213 358 -295 c 0,108,109
 362 -377 362 -377 369 -526 c 0,110,111
 377 -676 377 -676 379 -778 c 1,112,113
 350 -854 350 -854 274 -913 c 0,114,115
 199 -975 199 -975 80 -1001 c 1,116,117
 61 -1001 61 -1001 55 -999 c 128,-1,118
 49 -997 49 -997 49 -989 c 0,119,120
 49 -979 49 -979 59 -954 c 0,121,122
 106 -795 106 -795 133 -602 c 0,123,124
 162 -412 162 -412 170 -252 c 0,125,126
 180 -92 180 -92 180 0 c 2,127,-1
 180 532 l 1,128,-1
 180 584 l 2,129,130
 180 707 180 707 172 844 c 128,-1,131
 164 981 164 981 135 1133 c 0,132,133
 104 1282 104 1282 47 1393 c 1,134,135
 117 1417 117 1417 190 1473 c 0,136,137
 264 1526 264 1526 322 1595 c 0,138,139
 340 1616 340 1616 352 1616 c 0,140,141
 385 1616 385 1616 385 1499 c 0,142,143
 385 1427 385 1427 373 1313 c 1,144,145
 371 1241 371 1241 369 1176 c 0,146,147
 367 1108 367 1108 365 1036 c 0,148,149
 362 967 362 967 362 897 c 0,150,151
 360 825 360 825 360 737 c 1,0,1
EndSplineSet
EndChar

StartChar: A
Encoding: 65 65 36
Width: 1331
Flags: W
LayerCount: 2
Fore
SplineSet
1253 760 m 1,0,1
 1235 643 1235 643 1235 272 c 0,2,3
 1235 109 1235 109 1237 -78 c 0,4,5
 1241 -262 1241 -262 1247 -463 c 0,6,7
 1255 -666 1255 -666 1260 -778 c 1,8,9
 1231 -854 1231 -854 1153 -913 c 0,10,11
 1077 -975 1077 -975 961 -1001 c 1,12,13
 928 -1001 928 -1001 928 -989 c 256,14,15
 928 -977 928 -977 940 -954 c 1,16,17
 985 -801 985 -801 1014 -604 c 0,18,19
 1040 -410 1040 -410 1051 -252 c 0,20,21
 1061 -92 1061 -92 1061 0 c 0,22,23
 1061 121 1061 121 1057 213 c 1,24,25
 993 147 993 147 926 100 c 1,26,27
 854 55 854 55 780 33 c 0,28,29
 705 8 705 8 623 6 c 0,30,31
 524 6 524 6 424 29 c 0,32,33
 322 51 322 51 236 98 c 128,-1,34
 150 145 150 145 100 211 c 0,35,36
 51 274 51 274 51 356 c 0,37,38
 58 500 58 500 109 590 c 0,39,40
 162 682 162 682 260 760 c 0,41,42
 340 819 340 819 430 856 c 0,43,44
 522 893 522 893 598 893 c 1,45,46
 653 889 653 889 692 860 c 128,-1,47
 731 831 731 831 754 795 c 0,48,49
 776 756 776 756 778 721 c 0,50,51
 778 662 778 662 741 621 c 0,52,53
 707 578 707 578 645 578 c 0,54,55
 614 578 614 578 588 586 c 1,56,57
 588 637 588 637 545 676 c 0,58,59
 500 713 500 713 440 713 c 0,60,61
 395 713 395 713 356 682 c 0,62,63
 315 649 315 649 289 600 c 1,64,65
 283 571 283 571 283 547 c 0,66,67
 283 467 283 467 311 408 c 0,68,69
 338 350 338 350 381 305 c 128,-1,70
 424 260 424 260 471 233 c 0,71,72
 537 197 537 197 610 178 c 0,73,74
 682 160 682 160 748 160 c 1,75,76
 905 174 905 174 974.5 280.5 c 128,-1,77
 1044 387 1044 387 1044 561 c 1,78,79
 1049 694 1049 694 1049 791 c 0,80,81
 1049 922 1049 922 1039.5 1022 c 128,-1,82
 1030 1122 1030 1122 1004 1217 c 0,83,84
 979 1311 979 1311 930 1393 c 1,85,86
 999 1417 999 1417 1073 1473 c 0,87,88
 1149 1528 1149 1528 1204 1595 c 0,89,90
 1227 1618 1227 1618 1239 1618 c 0,91,92
 1270 1618 1270 1618 1270 1509 c 0,93,94
 1270 1440 1270 1440 1257 1333 c 1,95,96
 1253 1145 1253 1145 1253 760 c 1,0,1
EndSplineSet
EndChar

StartChar: B
Encoding: 66 66 37
Width: 2
Flags: W
LayerCount: 2
Fore
SplineSet
-170 1430 m 0,0,1
 -170 1386 -170 1386 -201 1356 c 0,2,3
 -233 1323 -233 1323 -276 1323 c 0,4,5
 -317 1323 -317 1323 -348 1356 c 0,6,7
 -381 1386 -381 1386 -381 1430 c 0,8,9
 -381 1470 -381 1470 -350 1503 c 128,-1,10
 -319 1536 -319 1536 -276 1536 c 256,11,12
 -233 1536 -233 1536 -201.5 1504.5 c 128,-1,13
 -170 1473 -170 1473 -170 1430 c 0,0,1
EndSplineSet
EndChar

StartChar: C
Encoding: 67 67 38
Width: 2
Flags: W
LayerCount: 2
Fore
SplineSet
-188 1657 m 256,0,1
 -188 1622 -188 1622 -215 1593 c 0,2,3
 -244 1565 -244 1565 -279 1565 c 0,4,5
 -313 1565 -313 1565 -340 1593 c 0,6,7
 -369 1620 -369 1620 -369 1657 c 0,8,9
 -369 1690 -369 1690 -342 1718 c 0,10,11
 -315 1747 -315 1747 -279 1747 c 0,12,13
 -244 1747 -244 1747 -215 1720 c 0,14,15
 -188 1692 -188 1692 -188 1657 c 256,0,1
-63 1413 m 256,16,17
 -63 1378 -63 1378 -90 1350 c 0,18,19
 -119 1321 -119 1321 -154 1321 c 0,20,21
 -188 1321 -188 1321 -215 1350 c 0,22,23
 -244 1376 -244 1376 -244 1413 c 0,24,25
 -244 1446 -244 1446 -217 1474.5 c 128,-1,26
 -190 1503 -190 1503 -154 1503 c 0,27,28
 -119 1503 -119 1503 -90 1477 c 0,29,30
 -63 1448 -63 1448 -63 1413 c 256,16,17
-303 1417 m 256,31,32
 -303 1382 -303 1382 -330.5 1353.5 c 128,-1,33
 -358 1325 -358 1325 -393 1325 c 256,34,35
 -428 1325 -428 1325 -455 1354 c 0,36,37
 -483 1380 -483 1380 -483 1417 c 0,38,39
 -483 1450 -483 1450 -457 1479 c 0,40,41
 -430 1507 -430 1507 -393 1507 c 0,42,43
 -358 1507 -358 1507 -330 1481 c 0,44,45
 -303 1452 -303 1452 -303 1417 c 256,31,32
EndSplineSet
EndChar

StartChar: D
Encoding: 68 68 39
Width: 2
Flags: W
LayerCount: 2
Fore
SplineSet
-201 1432 m 256,0,1
 -201 1389 -201 1389 -231 1358 c 0,2,3
 -264 1325 -264 1325 -307 1325 c 0,4,5
 -348 1325 -348 1325 -381 1358 c 128,-1,6
 -414 1391 -414 1391 -414 1432 c 256,7,8
 -414 1473 -414 1473 -381 1505 c 0,9,10
 -348 1538 -348 1538 -307 1538 c 0,11,12
 -264 1538 -264 1538 -231 1507 c 0,13,14
 -201 1475 -201 1475 -201 1432 c 256,0,1
-512 1432 m 256,15,16
 -512 1389 -512 1389 -543 1358 c 0,17,18
 -575 1325 -575 1325 -618 1325 c 0,19,20
 -659 1325 -659 1325 -690 1358 c 0,21,22
 -723 1389 -723 1389 -723 1432 c 0,23,24
 -723 1473 -723 1473 -692 1505 c 0,25,26
 -662 1538 -662 1538 -618 1538 c 0,27,28
 -575 1538 -575 1538 -543.5 1506.5 c 128,-1,29
 -512 1475 -512 1475 -512 1432 c 256,15,16
-352 1681 m 256,30,31
 -352 1638 -352 1638 -383 1608 c 0,32,33
 -416 1575 -416 1575 -459 1575 c 0,34,35
 -500 1575 -500 1575 -530 1608 c 1,36,37
 -563 1638 -563 1638 -563 1681 c 0,38,39
 -563 1722 -563 1722 -532.5 1755 c 128,-1,40
 -502 1788 -502 1788 -459 1788 c 256,41,42
 -416 1788 -416 1788 -383 1757 c 0,43,44
 -352 1724 -352 1724 -352 1681 c 256,30,31
EndSplineSet
EndChar

StartChar: E
Encoding: 69 69 40
Width: 2
Flags: W
LayerCount: 2
Fore
SplineSet
-360 1432 m 256,0,1
 -360 1389 -360 1389 -391 1358 c 0,2,3
 -424 1325 -424 1325 -467 1325 c 0,4,5
 -508 1325 -508 1325 -541 1358 c 0,6,7
 -573 1391 -573 1391 -573 1432 c 256,8,9
 -573 1473 -573 1473 -541 1505 c 0,10,11
 -508 1538 -508 1538 -467 1538 c 0,12,13
 -424 1538 -424 1538 -391 1507 c 0,14,15
 -360 1475 -360 1475 -360 1432 c 256,0,1
-672 1432 m 256,16,17
 -672 1389 -672 1389 -702 1358 c 0,18,19
 -735 1325 -735 1325 -778 1325 c 0,20,21
 -819 1325 -819 1325 -850 1358 c 0,22,23
 -883 1389 -883 1389 -883 1432 c 0,24,25
 -883 1473 -883 1473 -852 1505 c 0,26,27
 -821 1538 -821 1538 -778 1538 c 256,28,29
 -735 1538 -735 1538 -702 1507 c 0,30,31
 -672 1475 -672 1475 -672 1432 c 256,16,17
-512 1681 m 256,32,33
 -512 1638 -512 1638 -543 1608 c 0,34,35
 -575 1575 -575 1575 -618 1575 c 0,36,37
 -659 1575 -659 1575 -690 1608 c 0,38,39
 -723 1638 -723 1638 -723 1681 c 0,40,41
 -723 1722 -723 1722 -692.5 1755 c 128,-1,42
 -662 1788 -662 1788 -618 1788 c 0,43,44
 -575 1788 -575 1788 -543 1757 c 0,45,46
 -512 1724 -512 1724 -512 1681 c 256,32,33
EndSplineSet
EndChar

StartChar: F
Encoding: 70 70 41
Width: 2
Flags: W
LayerCount: 2
Fore
SplineSet
-201 1622 m 0,0,1
 -201 1591 -201 1591 -225 1565 c 0,2,3
 -242 1546 -242 1546 -287 1518 c 2,4,-1
 -594 1323 l 1,5,-1
 -680 1323 l 1,6,-1
 -385 1620 l 2,7,8
 -354 1651 -354 1651 -322 1671 c 0,9,10
 -289 1690 -289 1690 -256 1690 c 0,11,12
 -240 1690 -240 1690 -219 1667 c 0,13,14
 -201 1642 -201 1642 -201 1622 c 0,0,1
EndSplineSet
EndChar

StartChar: G
Encoding: 71 71 42
Width: 2
Flags: W
LayerCount: 2
Fore
SplineSet
-352 1436 m 256,0,1
 -352 1393 -352 1393 -383 1362 c 0,2,3
 -416 1329 -416 1329 -459 1329 c 0,4,5
 -500 1329 -500 1329 -530 1362 c 0,6,7
 -563 1393 -563 1393 -563 1436 c 0,8,9
 -563 1477 -563 1477 -532 1509 c 0,10,11
 -502 1542 -502 1542 -459 1542 c 256,12,13
 -416 1542 -416 1542 -383 1511 c 0,14,15
 -352 1479 -352 1479 -352 1436 c 256,0,1
EndSplineSet
EndChar

StartChar: H
Encoding: 72 72 43
Width: 2
Flags: W
LayerCount: 2
Fore
SplineSet
-711 1325 m 1,0,1
 -657 1489 -657 1489 -610 1571 c 0,2,3
 -563 1651 -563 1651 -473 1724 c 1,4,5
 -420 1755 -420 1755 -367 1755 c 0,6,7
 -301 1755 -301 1755 -242 1702 c 0,8,9
 -219 1683 -219 1683 -211 1655 c 0,10,11
 -203 1622 -203 1622 -203 1569 c 1,12,13
 -209 1542 -209 1542 -233 1503 c 0,14,15
 -260 1464 -260 1464 -262 1462 c 2,16,-1
 -291 1481 l 1,17,18
 -289 1495 -289 1495 -289 1522 c 0,19,20
 -289 1567 -289 1567 -309 1593 c 0,21,22
 -330 1616 -330 1616 -367 1616 c 0,23,24
 -399 1616 -399 1616 -430 1595 c 0,25,26
 -475 1567 -475 1567 -543 1489 c 0,27,28
 -608 1411 -608 1411 -659 1311 c 1,29,-1
 -711 1325 l 1,0,1
EndSplineSet
EndChar

StartChar: I
Encoding: 73 73 44
Width: 1434
Flags: W
LayerCount: 2
Fore
SplineSet
213 324 m 0,0,1
 70 383 70 383 70 518 c 0,2,3
 70 582 70 582 106 647 c 0,4,5
 141 713 141 713 201 758 c 0,6,7
 299 831 299 831 424 877 c 0,8,9
 545 922 545 922 645 922 c 2,10,-1
 694 922 l 2,11,12
 856 922 856 922 985 887 c 0,13,14
 1114 850 1114 850 1198 786 c 0,15,16
 1284 725 1284 725 1329 645 c 0,17,18
 1372 565 1372 565 1376 479 c 0,19,20
 1376 461 1376 461 1378 446 c 0,21,22
 1378 432 1378 432 1378 408 c 0,23,24
 1378 147 1378 147 1310.5 -53.5 c 128,-1,25
 1243 -254 1243 -254 1134.5 -393 c 128,-1,26
 1026 -532 1026 -532 907 -621 c 0,27,28
 786 -711 786 -711 659 -770 c 0,29,30
 573 -813 573 -813 516 -840.5 c 128,-1,31
 459 -868 459 -868 410 -883 c 0,32,33
 358 -897 358 -897 293 -897 c 0,34,35
 236 -897 236 -897 178 -868 c 0,36,37
 113 -834 113 -834 76 -803 c 0,38,39
 37 -770 37 -770 37 -731 c 0,40,41
 37 -719 37 -719 43 -702 c 0,42,43
 61 -655 61 -655 119 -618 c 0,44,45
 172 -584 172 -584 227 -584 c 0,46,47
 276 -584 276 -584 311 -610 c 1,48,49
 342 -649 342 -649 373 -672 c 0,50,51
 403 -692 403 -692 446 -702 c 0,52,53
 469 -709 469 -709 496 -709 c 0,54,55
 514 -709 514 -709 524 -709 c 0,56,57
 537 -711 537 -711 549 -711 c 0,58,59
 604 -711 604 -711 659 -676 c 0,60,61
 809 -578 809 -578 903 -453 c 0,62,63
 997 -330 997 -330 1044 -199 c 0,64,65
 1094 -70 1094 -70 1110 47 c 128,-1,66
 1126 164 1126 164 1126 270 c 0,67,68
 1126 356 1126 356 1092 434 c 0,69,70
 1059 514 1059 514 995 575 c 0,71,72
 934 637 934 637 846 680 c 128,-1,73
 758 723 758 723 647 741 c 0,74,75
 575 756 575 756 510 756 c 0,76,77
 455 756 455 756 416 742.5 c 128,-1,78
 377 729 377 729 342 700 c 0,79,80
 309 672 309 672 274 623 c 1,81,82
 346 596 346 596 377 563 c 0,83,84
 406 530 406 530 406 442 c 1,85,86
 401 387 401 387 356 350 c 0,87,88
 309 315 309 315 258 315 c 0,89,90
 231 315 231 315 213 324 c 0,0,1
EndSplineSet
EndChar

StartChar: J
Encoding: 74 74 45
Width: 2
Flags: W
LayerCount: 2
Fore
SplineSet
-242 1743 m 0,0,1
 -201 1706 -201 1706 -201 1640 c 0,2,3
 -201 1589 -201 1589 -231 1536 c 1,4,5
 -274 1477 -274 1477 -356 1419 c 0,6,7
 -436 1364 -436 1364 -553 1319 c 1,8,-1
 -578 1356 l 1,9,10
 -477 1413 -477 1413 -426 1460 c 0,11,12
 -377 1507 -377 1507 -336 1571 c 1,13,14
 -322 1602 -322 1602 -322 1630 c 0,15,16
 -322 1671 -322 1671 -344 1692 c 0,17,18
 -362 1710 -362 1710 -395 1710 c 0,19,20
 -424 1710 -424 1710 -461 1698 c 1,21,-1
 -481 1722 l 1,22,23
 -457 1751 -457 1751 -436 1767 c 0,24,25
 -418 1782 -418 1782 -385 1788 c 1,26,27
 -291 1788 -291 1788 -242 1743 c 0,0,1
EndSplineSet
EndChar

StartChar: K
Encoding: 75 75 46
Width: 1434
Flags: W
LayerCount: 2
Fore
SplineSet
846 788 m 0,0,1
 860 786 860 786 889 786 c 0,2,3
 983 786 983 786 1042.5 820 c 128,-1,4
 1102 854 1102 854 1118 899 c 0,5,6
 1121 906 1121 906 1127 918.5 c 128,-1,7
 1133 931 1133 931 1137 943.5 c 128,-1,8
 1141 956 1141 956 1141 969 c 0,9,10
 1141 1047 1141 1047 975 1069 c 1,11,12
 1060 1137 1060 1137 1163 1137 c 0,13,14
 1248 1137 1248 1137 1309 1093 c 128,-1,15
 1370 1049 1370 1049 1370 987 c 0,16,17
 1370 953 1370 953 1354 926 c 1,18,19
 1317 829 1317 829 1235 772 c 128,-1,20
 1153 715 1153 715 979 690 c 0,21,22
 956 686 956 686 834 674 c 0,23,24
 713 659 713 659 627 641 c 0,25,26
 543 621 543 621 467 578 c 0,27,28
 389 535 389 535 342 461 c 1,29,30
 319 414 319 414 319 358 c 0,31,32
 319 285 319 285 358 215 c 0,33,34
 397 147 397 147 455 117 c 1,35,36
 570 15 570 15 672 -14 c 0,37,38
 790 -51 790 -51 922 -51 c 0,39,40
 982 -51 982 -51 1044 -27 c 1,41,42
 1095 2 1095 2 1120 47 c 128,-1,43
 1145 92 1145 92 1145 162 c 0,44,45
 1145 227 1145 227 1122 297 c 0,46,47
 1098 373 1098 373 1067 403 c 0,48,49
 1034 434 1034 434 1006 442 c 0,50,51
 975 449 975 449 940 457 c 0,52,53
 924 463 924 463 924 469 c 256,54,55
 924 475 924 475 958 483 c 0,56,57
 993 489 993 489 1036 489 c 0,58,59
 1151 489 1151 489 1204 457 c 0,60,61
 1276 416 1276 416 1321 352 c 0,62,63
 1364 289 1364 289 1364 215 c 0,64,65
 1364 186 1364 186 1354 145 c 1,66,67
 1323 66 1323 66 1257 2 c 0,68,69
 1192 -61 1192 -61 1071 -109 c 0,70,71
 1004 -133 1004 -133 915 -145 c 0,72,73
 827 -158 827 -158 743 -158 c 0,74,75
 643 -158 643 -158 563 -145 c 1,76,77
 436 -137 436 -137 317 -76 c 0,78,79
 197 -12 197 -12 123 80 c 0,80,81
 49 170 49 170 49 260 c 0,82,83
 49 354 49 354 75.5 456.5 c 128,-1,84
 102 559 102 559 176 604 c 0,85,86
 258 655 258 655 295 670 c 0,87,88
 330 682 330 682 422 690 c 1,89,90
 279 721 279 721 195 795 c 0,91,92
 109 868 109 868 78 956 c 0,93,94
 45 1044 45 1044 45 1133 c 1,95,96
 51 1245 51 1245 86 1350 c 0,97,98
 117 1452 117 1452 164 1534 c 0,99,100
 211 1614 211 1614 254 1665 c 0,101,102
 322 1747 322 1747 440 1815 c 0,103,104
 559 1882 559 1882 700 1935 c 0,105,106
 877 2000 877 2000 958 2017 c 0,107,108
 1050 2038 1050 2038 1139 2038 c 0,109,110
 1239 2038 1239 2038 1311 2011 c 1,111,112
 1341 1991 1341 1991 1341 1974 c 1,113,114
 1327 1944 1327 1944 1257.5 1913 c 128,-1,115
 1188 1882 1188 1882 1116 1882 c 1,116,117
 1091 1921 1091 1921 991 1921 c 0,118,119
 910 1921 910 1921 840 1903 c 0,120,121
 723 1874 723 1874 598 1800 c 0,122,123
 475 1724 475 1724 385 1569 c 0,124,125
 293 1413 293 1413 293 1169 c 1,126,127
 315 1026 315 1026 406 942 c 0,128,129
 496 856 496 856 612 823 c 0,130,131
 729 788 729 788 846 788 c 0,0,1
EndSplineSet
EndChar

StartChar: L
Encoding: 76 76 47
Width: 2
Flags: W
LayerCount: 2
Fore
SplineSet
-606 76 m 256,0,1
 -606 33 -606 33 -637 2 c 0,2,3
 -670 -31 -670 -31 -713 -31 c 0,4,5
 -754 -31 -754 -31 -784 2 c 0,6,7
 -817 33 -817 33 -817 76 c 0,8,9
 -817 117 -817 117 -786.5 149.5 c 128,-1,10
 -756 182 -756 182 -713 182 c 256,11,12
 -670 182 -670 182 -637 152 c 0,13,14
 -606 119 -606 119 -606 76 c 256,0,1
EndSplineSet
EndChar

StartChar: M
Encoding: 77 77 48
Width: 2
Flags: W
LayerCount: 2
Fore
SplineSet
-119 1702 m 0,0,1
 -76 1663 -76 1663 -76 1591 c 0,2,3
 -76 1538 -76 1538 -106 1485 c 1,4,5
 -147 1430 -147 1430 -197 1401 c 0,6,7
 -246 1372 -246 1372 -377 1323 c 1,8,-1
 -397 1356 l 1,9,10
 -299 1413 -299 1413 -264 1444 c 0,11,12
 -231 1475 -231 1475 -195 1532 c 0,13,14
 -180 1563 -180 1563 -180 1583 c 0,15,16
 -180 1614 -180 1614 -203 1632 c 0,17,18
 -229 1657 -229 1657 -270 1657 c 0,19,20
 -293 1657 -293 1657 -328 1647 c 1,21,-1
 -348 1671 l 1,22,23
 -324 1700 -324 1700 -305.5 1712 c 128,-1,24
 -287 1724 -287 1724 -254 1731 c 0,25,26
 -233 1735 -233 1735 -219 1735 c 0,27,28
 -213 1735 -213 1735 -209 1733 c 0,29,30
 -154 1733 -154 1733 -119 1702 c 0,0,1
EndSplineSet
EndChar

StartChar: N
Encoding: 78 78 49
Width: 2
Flags: W
LayerCount: 2
Fore
SplineSet
-397 1325 m 1,0,1
 -358 1464 -358 1464 -324.5 1540 c 128,-1,2
 -291 1616 -291 1616 -233 1667 c 0,3,4
 -201 1696 -201 1696 -166 1708 c 0,5,6
 -129 1722 -129 1722 -78 1722 c 1,7,8
 -43 1716 -43 1716 -23 1688 c 0,9,10
 -2 1659 -2 1659 -2 1614 c 0,11,12
 -4 1573 -4 1573 -14 1544 c 0,13,14
 -25 1518 -25 1518 -49 1485 c 1,15,-1
 -78 1505 l 1,16,17
 -66 1542 -66 1542 -66 1552 c 0,18,19
 -66 1571 -66 1571 -78 1585 c 0,20,21
 -94 1606 -94 1606 -119 1606 c 0,22,23
 -141 1606 -141 1606 -176 1583 c 0,24,25
 -209 1565 -209 1565 -240 1509 c 0,26,27
 -272 1454 -272 1454 -344 1311 c 1,28,-1
 -397 1325 l 1,0,1
EndSplineSet
EndChar

StartChar: O
Encoding: 79 79 50
Width: 2
Flags: W
LayerCount: 2
Fore
SplineSet
-535 -532 m 256,0,1
 -535 -575 -535 -575 -565 -606 c 0,2,3
 -598 -639 -598 -639 -641 -639 c 0,4,5
 -682 -639 -682 -639 -713 -606 c 0,6,7
 -745 -575 -745 -575 -745 -532 c 0,8,9
 -745 -492 -745 -492 -715 -459 c 0,10,11
 -684 -426 -684 -426 -641 -426 c 256,12,13
 -598 -426 -598 -426 -565 -457 c 0,14,15
 -535 -489 -535 -489 -535 -532 c 256,0,1
EndSplineSet
EndChar

StartChar: P
Encoding: 80 80 51
Width: 2
Flags: W
LayerCount: 2
Fore
SplineSet
-215 1382 m 1,0,1
 -227 1356 -227 1356 -256 1300 c 0,2,3
 -287 1241 -287 1241 -330 1192 c 0,4,5
 -373 1141 -373 1141 -440 1108 c 0,6,7
 -510 1075 -510 1075 -606 1075 c 0,8,9
 -743 1075 -743 1075 -909 1143 c 0,10,11
 -1096 1219 -1096 1219 -1243 1219 c 0,12,13
 -1333 1219 -1333 1219 -1419 1196 c 0,14,15
 -1505 1171 -1505 1171 -1679 1110 c 1,16,17
 -1616 1188 -1616 1188 -1559 1241 c 0,18,19
 -1499 1292 -1499 1292 -1438 1331 c 0,20,21
 -1374 1368 -1374 1368 -1309 1386 c 0,22,23
 -1243 1403 -1243 1403 -1171 1403 c 0,24,25
 -1057 1403 -1057 1403 -909 1356 c 0,26,27
 -780 1313 -780 1313 -735 1299.5 c 128,-1,28
 -690 1286 -690 1286 -629.5 1274 c 128,-1,29
 -569 1262 -569 1262 -526 1262 c 0,30,31
 -455 1262 -455 1262 -381 1290 c 0,32,33
 -305 1319 -305 1319 -215 1382 c 1,0,1
EndSplineSet
EndChar

StartChar: Q
Encoding: 81 81 52
Width: 1331
Flags: W
LayerCount: 2
Fore
SplineSet
360 440 m 1,0,-1
 360 113 l 1,1,-1
 553 113 l 1,2,3
 735 117 735 117 836 133 c 0,4,5
 936 152 936 152 975 186 c 0,6,7
 1016 221 1016 221 1036 291 c 0,8,9
 1042 317 1042 317 1042 346 c 0,10,11
 1042 406 1042 406 1016 465 c 0,12,13
 987 522 987 522 946 567 c 0,14,15
 903 612 903 612 856 639 c 0,16,17
 793 676 793 676 719 696 c 0,18,19
 643 715 643 715 582 715 c 1,20,21
 496 702 496 702 451 664 c 0,22,23
 406 627 406 627 387 573 c 0,24,25
 371 518 371 518 360 440 c 1,0,-1
1277 113 m 1,26,27
 1277 35 1277 35 1226 -29 c 0,28,29
 1205 -54 1205 -54 1182 -68 c 0,30,31
 1153 -84 1153 -84 1122 -86 c 1,32,33
 1094 -92 1094 -92 1055 -92 c 2,34,-1
 360 -92 l 1,35,36
 365 -444 365 -444 379 -778 c 1,37,38
 350 -854 350 -854 274 -913 c 0,39,40
 199 -975 199 -975 80 -1001 c 1,41,42
 61 -1001 61 -1001 55 -999 c 128,-1,43
 49 -997 49 -997 49 -989 c 0,44,45
 49 -979 49 -979 59 -954 c 0,46,47
 106 -795 106 -795 133 -602 c 0,48,49
 162 -412 162 -412 170 -252 c 0,50,51
 180 -92 180 -92 180 0 c 1,52,53
 184 78 184 78 184 225 c 0,54,55
 184 352 184 352 180 532 c 0,56,57
 178 584 178 584 176 694 c 0,58,59
 174 807 174 807 166 928 c 1,60,61
 154 1047 154 1047 125 1176 c 0,62,63
 94 1305 94 1305 47 1393 c 1,64,65
 117 1417 117 1417 190 1473 c 0,66,67
 264 1526 264 1526 322 1595 c 0,68,69
 342 1618 342 1618 356 1618 c 0,70,71
 385 1618 385 1618 385 1516 c 0,72,73
 385 1448 385 1448 373 1333 c 0,74,75
 373 1305 373 1305 373 1249 c 0,76,77
 371 1196 371 1196 371 1163 c 256,78,79
 371 1130 371 1130 371 1090 c 0,80,81
 371 1040 371 1040 371 997 c 0,82,83
 371 956 371 956 373 881 c 0,84,85
 373 803 373 803 373 760 c 1,86,87
 432 799 432 799 485 821 c 0,88,89
 539 846 539 846 592 856 c 0,90,91
 643 866 643 866 707 866 c 0,92,93
 836 862 836 862 969 821 c 0,94,95
 1100 780 1100 780 1188 701.5 c 128,-1,96
 1276 623 1276 623 1276 512 c 0,97,98
 1274 424 1274 424 1239 342 c 0,99,100
 1202 258 1202 258 1143 197 c 0,101,102
 1092 146 1092 146 995 115 c 1,103,-1
 1277 113 l 1,26,27
EndSplineSet
EndChar

StartChar: R
Encoding: 82 82 53
Width: 2
Flags: W
LayerCount: 2
Fore
SplineSet
-358 1622 m 0,0,1
 -358 1591 -358 1591 -383 1565 c 0,2,3
 -399 1546 -399 1546 -444 1518 c 2,4,-1
 -752 1323 l 1,5,-1
 -838 1323 l 1,6,-1
 -543 1620 l 2,7,8
 -512 1651 -512 1651 -479 1670.5 c 128,-1,9
 -446 1690 -446 1690 -414 1690 c 0,10,11
 -397 1690 -397 1690 -377 1667 c 0,12,13
 -358 1642 -358 1642 -358 1622 c 0,0,1
EndSplineSet
EndChar

StartChar: S
Encoding: 83 83 54
Width: 1946
Flags: W
LayerCount: 2
Fore
SplineSet
1851 750 m 1,0,1
 1845 670 1845 670 1845 381 c 0,2,3
 1845 270 1845 270 1847 143 c 0,4,5
 1849 14 1849 14 1853 -168 c 0,6,7
 1858 -350 1858 -350 1862 -510 c 0,8,9
 1866 -668 1866 -668 1870 -786 c 1,10,11
 1839 -862 1839 -862 1765 -922 c 0,12,13
 1690 -981 1690 -981 1571 -1010 c 1,14,15
 1538 -1010 1538 -1010 1538 -997 c 0,16,17
 1538 -983 1538 -983 1550 -963 c 1,18,19
 1597 -805 1597 -805 1624 -612 c 0,20,21
 1653 -420 1653 -420 1663 -260 c 0,22,23
 1671 -100 1671 -100 1671 -8 c 0,24,25
 1671 113 1671 113 1667 205 c 1,26,27
 1620 131 1620 131 1569 86 c 0,28,29
 1516 43 1516 43 1448 25 c 0,30,31
 1378 4 1378 4 1272 2 c 0,32,33
 1047 2 1047 2 887 109 c 1,34,35
 803 51 803 51 731 27 c 0,36,37
 657 2 657 2 588 2 c 0,38,39
 467 4 467 4 342 47 c 0,40,41
 215 88 215 88 133 168 c 0,42,43
 49 246 49 246 49 356 c 1,44,45
 56 493 56 493 106 590 c 0,46,47
 156 682 156 682 252 758 c 0,48,49
 330 817 330 817 416 854 c 0,50,51
 500 889 500 889 571 889 c 1,52,53
 647 881 647 881 694 824.5 c 128,-1,54
 741 768 741 768 741 715 c 0,55,56
 741 655 741 655 707 614 c 0,57,58
 672 571 672 571 616 571 c 0,59,60
 596 571 596 571 561 582 c 1,61,62
 561 614 561 614 543 643 c 0,63,64
 522 674 522 674 492 690 c 0,65,66
 459 709 459 709 420 709 c 0,67,68
 305 709 305 709 276 598 c 0,69,70
 270 567 270 567 270 541 c 0,71,72
 270 432 270 432 324 350 c 0,73,74
 379 270 379 270 449 229 c 0,75,76
 516 190 516 190 587.5 165.5 c 128,-1,77
 659 141 659 141 719 141 c 0,78,79
 780 141 780 141 819 170 c 1,80,81
 731 266 731 266 731 356 c 1,82,83
 738 493 738 493 788 590 c 0,84,85
 838 682 838 682 934 758 c 0,86,87
 1010 815 1010 815 1098 852 c 128,-1,88
 1186 889 1186 889 1255 889 c 1,89,90
 1331 881 1331 881 1378 825 c 0,91,92
 1423 768 1423 768 1423 715 c 0,93,94
 1423 655 1423 655 1389 614 c 0,95,96
 1354 571 1354 571 1298 571 c 0,97,98
 1278 571 1278 571 1243 582 c 1,99,100
 1243 614 1243 614 1225 643 c 0,101,102
 1204 674 1204 674 1174 690 c 0,103,104
 1141 709 1141 709 1102 709 c 0,105,106
 1040 709 1040 709 1006 686 c 0,107,108
 971 666 971 666 961 598 c 0,109,110
 952 559 952 559 952 539 c 0,111,112
 952 493 952 493 966 442.5 c 128,-1,113
 980 392 980 392 1006 350 c 0,114,115
 1061 272 1061 272 1130 229 c 0,116,117
 1303 123 1303 123 1397 123 c 0,118,119
 1448 123 1448 123 1493 154 c 0,120,121
 1540 182 1540 182 1579 240 c 0,122,123
 1616 295 1616 295 1636 367 c 0,124,125
 1657 438 1657 438 1657 518 c 0,126,127
 1657 547 1657 547 1655 561 c 0,128,129
 1659 721 1659 721 1659 791 c 0,130,131
 1659 922 1659 922 1651 1022 c 0,132,133
 1640 1122 1640 1122 1613.5 1216.5 c 128,-1,134
 1587 1311 1587 1311 1540 1393 c 1,135,136
 1610 1417 1610 1417 1683 1473 c 0,137,138
 1757 1526 1757 1526 1815 1595 c 0,139,140
 1835 1618 1835 1618 1849 1618 c 0,141,142
 1880 1618 1880 1618 1880 1509 c 0,143,144
 1880 1444 1880 1444 1868 1333 c 1,145,146
 1868 1288 1868 1288 1864 1196 c 0,147,148
 1860 1106 1860 1106 1858 1049 c 0,149,150
 1855 993 1855 993 1853 901 c 0,151,152
 1851 811 1851 811 1851 750 c 1,0,1
EndSplineSet
EndChar

StartChar: T
Encoding: 84 84 55
Width: 2
Flags: W
LayerCount: 2
Fore
SplineSet
-510 1436 m 256,0,1
 -510 1393 -510 1393 -541 1362 c 0,2,3
 -573 1329 -573 1329 -616 1329 c 0,4,5
 -657 1329 -657 1329 -688 1362 c 0,6,7
 -721 1393 -721 1393 -721 1436 c 0,8,9
 -721 1477 -721 1477 -690 1509 c 0,10,11
 -659 1542 -659 1542 -616 1542 c 256,12,13
 -573 1542 -573 1542 -541.5 1510.5 c 128,-1,14
 -510 1479 -510 1479 -510 1436 c 256,0,1
EndSplineSet
EndChar

StartChar: U
Encoding: 85 85 56
Width: 2
Flags: W
LayerCount: 2
Fore
SplineSet
-401 1743 m 0,0,1
 -360 1704 -360 1704 -360 1640 c 0,2,3
 -360 1589 -360 1589 -391 1536 c 1,4,5
 -483 1409 -483 1409 -721 1319 c 1,6,-1
 -741 1352 l 1,7,8
 -643 1409 -643 1409 -590 1458 c 128,-1,9
 -537 1507 -537 1507 -496 1571 c 1,10,11
 -481 1602 -481 1602 -481 1630 c 0,12,13
 -481 1671 -481 1671 -504 1692 c 0,14,15
 -522 1710 -522 1710 -555 1710 c 0,16,17
 -584 1710 -584 1710 -621 1698 c 1,18,-1
 -641 1722 l 1,19,20
 -612 1753 -612 1753 -596 1767 c 0,21,22
 -578 1782 -578 1782 -545 1788 c 1,23,24
 -451 1788 -451 1788 -401 1743 c 0,0,1
EndSplineSet
EndChar

StartChar: V
Encoding: 86 86 57
Width: 2
Flags: W
LayerCount: 2
Fore
SplineSet
-39 1642 m 0,0,1
 -39 1614 -39 1614 -55 1595 c 0,2,3
 -59 1589 -59 1589 -86 1561 c 0,4,5
 -113 1530 -113 1530 -121 1522 c 2,6,-1
 -307 1327 l 1,7,-1
 -393 1327 l 1,8,-1
 -217 1583 l 2,9,10
 -188 1628 -188 1628 -143 1671 c 0,11,12
 -123 1692 -123 1692 -104 1694 c 0,13,14
 -78 1694 -78 1694 -61 1683 c 1,15,16
 -39 1661 -39 1661 -39 1642 c 0,0,1
EndSplineSet
EndChar

StartChar: W
Encoding: 87 87 58
Width: 1946
Flags: W
LayerCount: 2
Fore
SplineSet
373 451 m 0,0,1
 362 385 362 385 360 305 c 0,2,3
 356 223 356 223 356 113 c 1,4,-1
 631 115 l 2,5,6
 649 113 649 113 686 113 c 0,7,8
 799 113 799 113 887 160 c 0,9,10
 973 205 973 205 991 291 c 0,11,12
 999 332 999 332 999 350 c 0,13,14
 999 410 999 410 973 467 c 0,15,16
 946 522 946 522 905 569 c 0,17,18
 862 614 862 614 821 639 c 0,19,20
 647 745 647 745 555 745 c 1,21,22
 500 737 500 737 467 711 c 0,23,24
 432 682 432 682 414 641 c 0,25,26
 395 598 395 598 391 571 c 0,27,28
 387 545 387 545 373 451 c 0,0,1
1391 113 m 2,29,30
 1479 113 1479 113 1532 125 c 0,31,32
 1585 133 1585 133 1622 174 c 0,33,34
 1659 213 1659 213 1673 291 c 0,35,36
 1681 332 1681 332 1681 352 c 0,37,38
 1681 442 1681 442 1626 520 c 0,39,40
 1573 600 1573 600 1503 639 c 0,41,42
 1346 727 1346 727 1233 727 c 0,43,44
 1169 727 1169 727 1133 698 c 1,45,46
 1219 600 1219 600 1221 512 c 0,47,48
 1221 383 1221 383 1164.5 286.5 c 128,-1,49
 1108 190 1108 190 997 113 c 1,50,-1
 1391 113 l 2,29,30
1897 113 m 1,51,52
 1897 49 1897 49 1851 -20 c 0,53,54
 1821 -61 1821 -61 1784 -78 c 0,55,56
 1745 -92 1745 -92 1688 -92 c 2,57,-1
 362 -92 l 1,58,59
 365 -190 365 -190 369 -295 c 0,60,61
 373 -401 373 -401 379 -528 c 0,62,63
 383 -657 383 -657 387 -778 c 1,64,65
 358 -854 358 -854 283 -913 c 0,66,67
 207 -975 207 -975 88 -1001 c 0,68,69
 70 -1001 70 -1001 63 -999 c 0,70,71
 57 -997 57 -997 57 -989 c 0,72,73
 57 -979 57 -979 68 -954 c 0,74,75
 170 -608 170 -608 188 0 c 0,76,77
 188 10 188 10 188 23 c 0,78,79
 188 45 188 45 188 80 c 0,80,81
 190 129 190 129 193 186 c 0,82,83
 195 244 195 244 197 317 c 0,84,85
 197 440 197 440 188 532 c 1,86,-1
 188 584 l 2,87,88
 188 707 188 707 180 844 c 128,-1,89
 172 981 172 981 143 1133 c 0,90,91
 113 1282 113 1282 55 1393 c 1,92,93
 123 1415 123 1415 199 1473 c 0,94,95
 274 1528 274 1528 330 1595 c 0,96,97
 346 1616 346 1616 360 1616 c 0,98,99
 393 1616 393 1616 393 1499 c 0,100,101
 393 1427 393 1427 381 1313 c 1,102,103
 375 1108 375 1108 373 983 c 0,104,105
 369 860 369 860 369 737 c 1,106,107
 430 815 430 815 510 842 c 0,108,109
 588 866 588 866 680 866 c 0,110,111
 918 858 918 858 1065 760 c 1,112,113
 1225 866 1225 866 1364 866 c 1,114,115
 1485 862 1485 862 1610 821 c 128,-1,116
 1735 780 1735 780 1819 701.5 c 128,-1,117
 1903 623 1903 623 1903 512 c 0,118,119
 1903 365 1903 365 1841 268 c 0,120,121
 1808 213 1808 213 1769 175 c 128,-1,122
 1730 137 1730 137 1667 115 c 1,123,-1
 1897 113 l 1,51,52
EndSplineSet
EndChar

StartChar: X
Encoding: 88 88 59
Width: 1946
Flags: W
LayerCount: 2
Fore
SplineSet
965 578 m 0,0,1
 956 530 956 530 956 518 c 0,2,3
 956 459 956 459 983 401 c 0,4,5
 1010 344 1010 344 1051 301 c 0,6,7
 1090 258 1090 258 1135 229 c 0,8,9
 1307 123 1307 123 1401 123 c 0,10,11
 1499 123 1499 123 1566.5 226.5 c 128,-1,12
 1634 330 1634 330 1634 489 c 0,13,14
 1634 524 1634 524 1632 543 c 0,15,16
 1630 584 1630 584 1630 678 c 0,17,18
 1630 750 1630 750 1622 770 c 1,19,-1
 1405 770 l 2,20,21
 1198 770 1198 770 1090 725 c 0,22,23
 981 678 981 678 965 578 c 0,0,1
293 573 m 0,24,25
 287 543 287 543 287 510 c 0,26,27
 287 422 287 422 338 344 c 0,28,29
 387 266 387 266 453 229 c 0,30,31
 606 141 606 141 723 141 c 0,32,33
 784 141 784 141 823 170 c 1,34,35
 741 260 741 260 735 356 c 1,36,37
 735 426 735 426 753.5 491.5 c 128,-1,38
 772 557 772 557 805 608 c 0,39,40
 838 662 838 662 883 701.5 c 128,-1,41
 928 741 928 741 983 766 c 1,42,-1
 782 766 l 2,43,44
 645 766 645 766 539 745 c 0,45,46
 430 725 430 725 369 682 c 0,47,48
 305 639 305 639 293 573 c 0,24,25
54 770 m 1,49,50
 54 805 54 805 66 832 c 128,-1,51
 78 859 78 859 104 893 c 0,52,53
 139 936 139 936 180 950 c 0,54,55
 221 965 221 965 281 965 c 2,56,-1
 1651 967 l 1,57,58
 1651 1092 1651 1092 1620 1206 c 0,59,60
 1589 1323 1589 1323 1540 1393 c 1,61,62
 1610 1417 1610 1417 1683 1473 c 0,63,64
 1757 1526 1757 1526 1815 1595 c 0,65,66
 1835 1618 1835 1618 1849 1618 c 0,67,68
 1880 1618 1880 1618 1880 1509 c 0,69,70
 1880 1444 1880 1444 1868 1333 c 1,71,72
 1853 926 1853 926 1853 745 c 0,73,74
 1853 610 1853 610 1855 446 c 0,75,76
 1855 281 1855 281 1855 143 c 0,77,78
 1858 4 1858 4 1864 -270 c 0,79,80
 1868 -549 1868 -549 1874 -786 c 1,81,82
 1843 -862 1843 -862 1769 -922 c 0,83,84
 1694 -981 1694 -981 1573 -1010 c 1,85,86
 1554 -1010 1554 -1010 1548 -1008 c 0,87,88
 1542 -1008 1542 -1008 1542 -997 c 0,89,90
 1542 -983 1542 -983 1554 -963 c 1,91,92
 1622 -739 1622 -739 1647 -467 c 0,93,94
 1673 -197 1673 -197 1673 -8 c 0,95,96
 1673 113 1673 113 1671 205 c 1,97,98
 1622 131 1622 131 1573 88 c 0,99,100
 1520 43 1520 43 1450 25 c 0,101,102
 1382 4 1382 4 1274 2 c 0,103,104
 1171 2 1171 2 1071 28.5 c 128,-1,105
 971 55 971 55 891 109 c 1,106,107
 805 51 805 51 733 27 c 0,108,109
 662 2 662 2 592 2 c 0,110,111
 489 2 489 2 391 27 c 0,112,113
 293 49 293 49 217 94 c 0,114,115
 141 137 141 137 98 207 c 1,116,117
 53 272 53 272 53 356 c 0,118,119
 57 451 57 451 88 532 c 0,120,121
 117 614 117 614 178 678 c 1,122,123
 245 741 245 741 346 771 c 1,124,-1
 54 770 l 1,49,50
EndSplineSet
EndChar

StartChar: Y
Encoding: 89 89 60
Width: 2
Flags: W
LayerCount: 2
Fore
SplineSet
-866 1325 m 1,0,1
 -829 1438 -829 1438 -799 1507 c 0,2,3
 -768 1577 -768 1577 -729 1626 c 128,-1,4
 -690 1675 -690 1675 -629 1724 c 1,5,6
 -575 1755 -575 1755 -522 1755 c 0,7,8
 -457 1755 -457 1755 -397 1702 c 0,9,10
 -375 1683 -375 1683 -367 1653 c 0,11,12
 -358 1622 -358 1622 -358 1569 c 1,13,14
 -365 1546 -365 1546 -375 1528 c 0,15,16
 -385 1505 -385 1505 -395 1493 c 0,17,18
 -408 1479 -408 1479 -418 1462 c 1,19,-1
 -446 1481 l 1,20,21
 -444 1495 -444 1495 -444 1522 c 0,22,23
 -444 1567 -444 1567 -465 1593 c 0,24,25
 -483 1616 -483 1616 -522 1616 c 0,26,27
 -555 1616 -555 1616 -586 1595 c 0,28,29
 -610 1581 -610 1581 -651 1538 c 128,-1,30
 -692 1495 -692 1495 -733 1438 c 0,31,32
 -776 1380 -776 1380 -811 1311 c 1,33,-1
 -866 1325 l 1,0,1
EndSplineSet
EndChar

StartChar: Z
Encoding: 90 90 61
Width: 1331
Flags: W
LayerCount: 2
Fore
SplineSet
1040 553 m 0,0,1
 1032 688 1032 688 1016 766 c 1,2,-1
 793 764 l 2,3,4
 573 762 573 762 440 719 c 0,5,6
 305 676 305 676 289 580 c 0,7,8
 283 553 283 553 283 526 c 0,9,10
 283 465 283 465 310.5 407.5 c 128,-1,11
 338 350 338 350 381 305 c 128,-1,12
 424 260 424 260 471 233 c 0,13,14
 537 197 537 197 610 178 c 0,15,16
 682 160 682 160 748 160 c 1,17,18
 895 172 895 172 969 260 c 0,19,20
 1044 348 1044 348 1044 489 c 0,21,22
 1044 508 1044 508 1040 553 c 0,0,1
54 765 m 1,23,24
 62 840 62 840 109 897 c 0,25,26
 143 938 143 938 184 953.5 c 128,-1,27
 225 969 225 969 285 969 c 2,28,-1
 1040 971 l 1,29,30
 1040 1104 1040 1104 1012 1219 c 0,31,32
 981 1333 981 1333 930 1393 c 1,33,34
 999 1417 999 1417 1073 1473 c 0,35,36
 1149 1528 1149 1528 1204 1595 c 0,37,38
 1227 1618 1227 1618 1239 1618 c 0,39,40
 1270 1618 1270 1618 1270 1509 c 0,41,42
 1270 1440 1270 1440 1257 1333 c 1,43,44
 1253 1221 1253 1221 1249 1143 c 128,-1,45
 1245 1065 1245 1065 1243 973 c 256,46,47
 1241 881 1241 881 1241 766 c 1,48,49
 1231 657 1231 657 1231 457 c 0,50,51
 1231 412 1231 412 1231 360 c 0,52,53
 1231 -82 1231 -82 1260 -778 c 1,54,55
 1231 -854 1231 -854 1153 -913 c 0,56,57
 1077 -975 1077 -975 961 -1001 c 1,58,59
 928 -1001 928 -1001 928 -989 c 256,60,61
 928 -977 928 -977 940 -954 c 1,62,63
 985 -801 985 -801 1014 -604 c 0,64,65
 1040 -410 1040 -410 1051 -252 c 0,66,67
 1061 -92 1061 -92 1061 0 c 0,68,69
 1061 121 1061 121 1057 213 c 1,70,71
 993 147 993 147 926 100 c 1,72,73
 854 55 854 55 780 33 c 0,74,75
 705 8 705 8 623 6 c 0,76,77
 524 6 524 6 424 29 c 0,78,79
 322 51 322 51 236 98 c 128,-1,80
 150 145 150 145 100 211 c 0,81,82
 51 274 51 274 51 356 c 0,83,84
 53 424 53 424 72 487 c 0,85,86
 88 551 88 551 123 606 c 0,87,88
 156 662 156 662 211 705 c 0,89,90
 262 745 262 745 336 766 c 1,91,-1
 54 765 l 1,23,24
EndSplineSet
EndChar

StartChar: bracketleft
Encoding: 91 91 62
Width: 2
Flags: W
LayerCount: 2
Fore
SplineSet
-1069 1110 m 1,0,-1
 -1004 1233 l 1,1,-1
 -233 1233 l 1,2,-1
 -291 1110 l 1,3,-1
 -1069 1110 l 1,0,-1
EndSplineSet
EndChar

StartChar: backslash
Encoding: 92 92 63
Width: 1024
Flags: W
LayerCount: 2
Fore
SplineSet
958 643 m 1,0,1
 909 514 909 514 842 449 c 0,2,3
 774 381 774 381 682 381 c 0,4,5
 627 381 627 381 553 410 c 0,6,7
 471 444 471 444 442 457 c 0,8,9
 414 467 414 467 369 467 c 0,10,11
 270 467 270 467 84 369 c 1,12,13
 94 397 94 397 127 459 c 0,14,15
 160 518 160 518 232.5 577.5 c 128,-1,16
 305 637 305 637 403 637 c 0,17,18
 479 637 479 637 573 590 c 0,19,20
 664 543 664 543 729 543 c 0,21,22
 823 543 823 543 958 643 c 1,0,1
EndSplineSet
EndChar

StartChar: bracketright
Encoding: 93 93 64
Width: 1280
Flags: W
LayerCount: 2
Fore
SplineSet
1004 98 m 1,0,1
 1051 109 1051 109 1090 129 c 0,2,3
 1128 150 1128 150 1192 193 c 0,4,5
 1253 238 1253 238 1262 242 c 1,6,-1
 1151 41 l 1,7,8
 1135 27 1135 27 1067 2 c 0,9,10
 997 -20 997 -20 850 -20 c 0,11,12
 815 -20 815 -20 754 -23 c 0,13,14
 690 -25 690 -25 649 -25 c 0,15,16
 596 -25 596 -25 561 -20 c 0,17,18
 438 -4 438 -4 344 25 c 0,19,20
 252 53 252 53 178 102 c 0,21,22
 106 154 106 154 70 225 c 0,23,24
 33 297 33 297 33 393 c 0,25,26
 33 451 33 451 66 586 c 0,27,28
 82 655 82 655 125 719 c 0,29,30
 168 780 168 780 242 823 c 0,31,32
 336 874 336 874 426 903 c 0,33,34
 514 930 514 930 635 930 c 0,35,36
 729 930 729 930 854 907 c 0,37,38
 872 903 872 903 893 901 c 0,39,40
 913 897 913 897 930 893 c 0,41,42
 944 887 944 887 961 877 c 0,43,44
 1090 799 1090 799 1090 723 c 0,45,46
 1090 702 1090 702 1085 692 c 0,47,48
 1069 639 1069 639 1020 602 c 0,49,50
 969 567 969 567 913 567 c 0,51,52
 868 567 868 567 838 590 c 1,53,54
 815 633 815 633 762 692 c 0,55,56
 709 752 709 752 668 762 c 0,57,58
 580 791 580 791 516 791 c 0,59,60
 420 791 420 791 367 731 c 0,61,62
 311 672 311 672 311 549 c 0,63,64
 311 496 311 496 319 446 c 0,65,66
 328 395 328 395 369 334 c 0,67,68
 408 270 408 270 463 215 c 128,-1,69
 518 160 518 160 573 131 c 0,70,71
 682 74 682 74 831 74 c 0,72,73
 934 74 934 74 1004 98 c 1,0,1
EndSplineSet
EndChar

StartChar: asciicircum
Encoding: 94 94 65
Width: 2
Flags: W
LayerCount: 2
Fore
SplineSet
-1235 1325 m 1,0,1
 -1182 1489 -1182 1489 -1135 1571 c 0,2,3
 -1087 1651 -1087 1651 -997 1724 c 1,4,5
 -944 1755 -944 1755 -891 1755 c 0,6,7
 -825 1755 -825 1755 -766 1702 c 0,8,9
 -743 1683 -743 1683 -735 1655 c 0,10,11
 -727 1622 -727 1622 -727 1569 c 1,12,13
 -733 1542 -733 1542 -758.5 1503 c 128,-1,14
 -784 1464 -784 1464 -786 1462 c 2,15,-1
 -815 1481 l 1,16,17
 -813 1495 -813 1495 -813 1522 c 0,18,19
 -813 1569 -813 1569 -834 1593 c 0,20,21
 -852 1616 -852 1616 -891 1616 c 0,22,23
 -924 1616 -924 1616 -954 1595 c 0,24,25
 -981 1579 -981 1579 -1022 1538 c 0,26,27
 -1063 1495 -1063 1495 -1106 1436 c 0,28,29
 -1149 1374 -1149 1374 -1184 1307 c 1,30,-1
 -1235 1325 l 1,0,1
EndSplineSet
EndChar

StartChar: underscore
Encoding: 95 95 66
Width: 512
Flags: W
LayerCount: 2
Fore
SplineSet
-115 113 m 1,0,-1
 -145 213 l 1,1,-1
 -270 309 l 1,2,3
 -158 319 -158 319 -78 319 c 0,4,5
 73 319 73 319 174.5 295 c 128,-1,6
 276 271 276 271 344 209 c 1,7,8
 400 167 400 167 442 74 c 0,9,10
 475 2 475 2 475 -80 c 0,11,12
 475 -141 475 -141 457 -203 c 1,13,14
 432 -268 432 -268 365 -301 c 0,15,16
 295 -336 295 -336 211 -336 c 0,17,18
 141 -334 141 -334 96 -293 c 0,19,20
 49 -252 49 -252 41 -180 c 1,21,22
 51 -131 51 -131 74 -106 c 0,23,24
 94 -82 94 -82 121 -82 c 0,25,26
 164 -82 164 -82 199 -131 c 0,27,28
 233 -182 233 -182 233 -254 c 1,29,30
 252 -260 252 -260 270 -260 c 0,31,32
 305 -260 305 -260 340 -242 c 0,33,34
 375 -223 375 -223 395 -193 c 1,35,36
 414 -156 414 -156 414 -106 c 0,37,38
 414 -43 414 -43 379 12 c 0,39,40
 335 75 335 75 274 94 c 1,41,42
 207 121 207 121 61 121 c 0,43,44
 6 121 6 121 -47 119 c 0,45,46
 -102 115 -102 115 -115 113 c 1,0,-1
EndSplineSet
EndChar

StartChar: grave
Encoding: 96 96 67
Width: 614
Flags: W
LayerCount: 2
Fore
SplineSet
451 850 m 2,0,-1
 451 313 l 2,1,2
 453 313 453 313 461 203 c 0,3,4
 469 84 469 84 469 68 c 0,5,6
 457 16 457 16 381 -35 c 128,-1,7
 305 -86 305 -86 260 -94 c 0,8,9
 233 -96 233 -96 215 -98 c 128,-1,10
 197 -100 197 -100 184 -100 c 0,11,12
 156 -100 156 -100 141 -98 c 1,13,14
 180 -33 180 -33 195 2 c 2,15,-1
 246 143 l 1,16,17
 270 262 270 262 270 352 c 0,18,19
 270 371 270 371 268 385 c 128,-1,20
 266 399 266 399 262 420 c 0,21,22
 256 436 256 436 246 471 c 0,23,24
 215 582 215 582 184 662 c 0,25,26
 173 691 173 691 146 717 c 128,-1,27
 119 743 119 743 102 768 c 1,28,-1
 246 860 l 2,29,30
 268 874 268 874 309 911 c 128,-1,31
 350 948 350 948 375 967 c 0,32,33
 397 985 397 985 418 985 c 0,34,35
 436 985 436 985 451 963 c 0,36,37
 459 946 459 946 459 926 c 0,38,39
 459 915 459 915 455 891 c 0,40,41
 451 857 451 857 451 850 c 2,0,-1
EndSplineSet
EndChar

StartChar: a
Encoding: 97 97 68
Width: 1331
Flags: W
LayerCount: 2
Fore
SplineSet
1057 213 m 1,0,1
 972 123 972 123 926 90 c 0,2,3
 854 45 854 45 779.5 22.5 c 128,-1,4
 705 0 705 0 623 -4 c 1,5,6
 524 -4 524 -4 424 18 c 0,7,8
 322 43 322 43 236 88 c 0,9,10
 150 135 150 135 100 201 c 0,11,12
 51 264 51 264 51 346 c 1,13,14
 59 501 59 501 109 590 c 0,15,16
 162 682 162 682 260 760 c 0,17,18
 340 819 340 819 430 856 c 0,19,20
 522 893 522 893 598 893 c 1,21,22
 653 889 653 889 692 860 c 128,-1,23
 731 831 731 831 754 795 c 0,24,25
 776 756 776 756 778 721 c 0,26,27
 778 662 778 662 741 621 c 0,28,29
 707 578 707 578 645 578 c 0,30,31
 614 578 614 578 588 586 c 1,32,33
 588 637 588 637 545 676 c 0,34,35
 500 713 500 713 440 713 c 0,36,37
 395 713 395 713 356 682 c 0,38,39
 315 649 315 649 289 600 c 1,40,41
 283 571 283 571 283 547 c 0,42,43
 283 458 283 458 311 397 c 0,44,45
 338 342 338 342 381 297 c 128,-1,46
 424 252 424 252 471 223 c 0,47,48
 537 186 537 186 609.5 168 c 128,-1,49
 682 150 682 150 748 150 c 1,50,51
 889 164 889 164 956 246 c 0,52,53
 990 286 990 286 1007 346 c 128,-1,54
 1024 406 1024 406 1024 473 c 0,55,56
 1024 510 1024 510 1018 551 c 0,57,58
 1008 596 1008 596 997.5 615.5 c 128,-1,59
 987 635 987 635 963.5 662.5 c 128,-1,60
 940 690 940 690 926 717 c 1,61,62
 999 743 999 743 1073 799 c 0,63,64
 1145 854 1145 854 1200 920 c 0,65,66
 1223 942 1223 942 1235 942 c 0,67,68
 1266 942 1266 942 1266 834 c 0,69,70
 1266 766 1266 766 1253 657 c 0,71,72
 1244 600 1244 600 1239.5 518.5 c 128,-1,73
 1235 437 1235 437 1235 272 c 0,74,75
 1235 109 1235 109 1237 -78 c 0,76,77
 1241 -262 1241 -262 1247 -463 c 0,78,79
 1255 -666 1255 -666 1260 -778 c 1,80,81
 1231 -854 1231 -854 1153 -913 c 0,82,83
 1077 -975 1077 -975 961 -1001 c 1,84,85
 928 -1001 928 -1001 928 -989 c 256,86,87
 928 -977 928 -977 940 -954 c 1,88,89
 985 -801 985 -801 1014 -604 c 0,90,91
 1040 -410 1040 -410 1051 -252 c 0,92,93
 1061 -92 1061 -92 1061 0 c 0,94,95
 1061 121 1061 121 1057 213 c 1,0,1
EndSplineSet
EndChar

StartChar: b
Encoding: 98 98 69
Width: 1946
Flags: W
LayerCount: 2
Fore
SplineSet
1628 543 m 0,0,1
 1608 639 1608 639 1597 680 c 0,2,3
 1585 719 1585 719 1559 770 c 1,4,-1
 1401 770 l 2,5,6
 1194 770 1194 770 1085 725 c 0,7,8
 977 678 977 678 961 578 c 0,9,10
 952 541 952 541 952 518 c 0,11,12
 952 421 952 421 1006 342 c 0,13,14
 1061 262 1061 262 1130 219 c 0,15,16
 1303 113 1303 113 1397 113 c 0,17,18
 1489 113 1489 113 1563 227 c 0,19,20
 1630 330 1630 330 1630 489 c 0,21,22
 1630 524 1630 524 1628 543 c 0,0,1
731 346 m 0,23,24
 731 425 731 425 750 492 c 0,25,26
 768 557 768 557 801 608 c 0,27,28
 834 662 834 662 879 701.5 c 128,-1,29
 924 741 924 741 979 766 c 1,30,-1
 778 766 l 2,31,32
 567 766 567 766 436 721 c 0,33,34
 303 674 303 674 276 578 c 0,35,36
 270 547 270 547 270 520 c 0,37,38
 270 421 270 421 324 342 c 0,39,40
 379 260 379 260 449 219 c 0,41,42
 516 180 516 180 587.5 155.5 c 128,-1,43
 659 131 659 131 719 131 c 0,44,45
 780 131 780 131 819 160 c 1,46,47
 731 256 731 256 731 346 c 0,23,24
1874 965 m 1,48,49
 1874 843 1874 843 1864 752 c 0,50,51
 1853 657 1853 657 1853 506 c 0,52,53
 1853 281 1853 281 1874 156 c 1,54,55
 1843 80 1843 80 1769 20 c 0,56,57
 1694 -39 1694 -39 1573 -68 c 1,58,59
 1554 -68 1554 -68 1548 -66 c 0,60,61
 1542 -66 1542 -66 1542 -55 c 0,62,63
 1542 -43 1542 -43 1554 -20 c 1,64,65
 1554 2 1554 2 1563 43 c 0,66,67
 1573 84 1573 84 1573 90 c 1,68,69
 1545 68 1545 68 1524 51.5 c 128,-1,70
 1503 35 1503 35 1491 29 c 0,71,72
 1456 10 1456 10 1405 2 c 128,-1,73
 1354 -6 1354 -6 1272 -8 c 0,74,75
 1047 -8 1047 -8 887 98 c 1,76,77
 803 43 803 43 731 16 c 0,78,79
 657 -8 657 -8 588 -8 c 0,80,81
 467 -4 467 -4 342 37 c 0,82,83
 215 78 215 78 133 158 c 0,84,85
 49 236 49 236 49 346 c 0,86,87
 52 449 52 449 84 532 c 0,88,89
 113 614 113 614 174 678 c 1,90,91
 236 737 236 737 334 766 c 1,92,-1
 49 765 l 1,93,94
 49 822 49 822 100 893 c 0,95,96
 135 936 135 936 176 950 c 0,97,98
 216 965 216 965 276 965 c 2,99,-1
 1874 965 l 1,48,49
EndSplineSet
EndChar

StartChar: c
Encoding: 99 99 70
Width: 1331
Flags: W
LayerCount: 2
Fore
SplineSet
1018 551 m 1,0,1
 1001 625 1001 625 989 668 c 128,-1,2
 977 711 977 711 948 766 c 1,3,-1
 793 764 l 2,4,5
 322 758 322 758 289 580 c 0,6,7
 283 552 283 552 283 516 c 0,8,9
 283 448 283 448 311 387 c 0,10,11
 338 332 338 332 381 287 c 128,-1,12
 424 242 424 242 471 213 c 0,13,14
 537 176 537 176 609.5 157.5 c 128,-1,15
 682 139 682 139 748 139 c 1,16,17
 892 154 892 154 961 279 c 0,18,19
 1018 383 1018 383 1018 551 c 1,0,1
54 765 m 1,20,21
 54 831 54 831 109 897 c 0,22,23
 143 938 143 938 184 953.5 c 128,-1,24
 225 969 225 969 285 969 c 2,25,-1
 1040 971 l 1,26,27
 1032 1094 1032 1094 1008 1200 c 0,28,29
 981 1309 981 1309 930 1393 c 1,30,31
 999 1417 999 1417 1073 1473 c 0,32,33
 1149 1528 1149 1528 1204 1595 c 0,34,35
 1227 1618 1227 1618 1239 1618 c 0,36,37
 1270 1618 1270 1618 1270 1509 c 0,38,39
 1270 1440 1270 1440 1257 1333 c 1,40,41
 1249 1081 1249 1081 1249 451 c 0,42,43
 1251 369 1251 369 1251 338 c 256,44,45
 1251 307 1251 307 1255 262 c 0,46,47
 1257 215 1257 215 1264 164 c 1,48,49
 1235 88 1235 88 1157 31 c 1,50,51
 1081 -31 1081 -31 963 -59 c 1,52,53
 944 -59 944 -59 938 -57 c 128,-1,54
 932 -55 932 -55 932 -47 c 0,55,56
 932 -35 932 -35 944 -12 c 1,57,58
 948 10 948 10 957.5 60.5 c 128,-1,59
 967 111 967 111 973 137 c 1,60,61
 890 68 890 68 802 28.5 c 128,-1,62
 714 -11 714 -11 623 -14 c 0,63,64
 489 -14 489 -14 358 29 c 0,65,66
 227 70 227 70 143 150 c 0,67,68
 57 229 57 229 51 336 c 0,69,70
 49 353 49 353 49 384 c 0,71,72
 49 585 49 585 211 705 c 0,73,74
 262 745 262 745 336 766 c 1,75,-1
 54 765 l 1,20,21
EndSplineSet
EndChar

StartChar: d
Encoding: 100 100 71
Width: 1331
Flags: W
LayerCount: 2
Fore
SplineSet
973 137 m 1,0,1
 807 2 807 2 623 -4 c 0,2,3
 524 -4 524 -4 424 18 c 0,4,5
 322 43 322 43 236 88 c 0,6,7
 150 135 150 135 100 201 c 0,8,9
 51 264 51 264 51 346 c 1,10,11
 59 501 59 501 109 590 c 0,12,13
 162 682 162 682 260 760 c 0,14,15
 340 819 340 819 430 856 c 0,16,17
 522 893 522 893 598 893 c 1,18,19
 653 889 653 889 692 860 c 128,-1,20
 731 831 731 831 754 795 c 0,21,22
 776 756 776 756 778 721 c 0,23,24
 778 662 778 662 741 621 c 0,25,26
 707 578 707 578 645 578 c 0,27,28
 614 578 614 578 588 586 c 1,29,30
 588 637 588 637 545 676 c 0,31,32
 500 713 500 713 440 713 c 0,33,34
 395 713 395 713 356 682 c 0,35,36
 315 649 315 649 289 600 c 1,37,38
 283 571 283 571 283 547 c 0,39,40
 283 458 283 458 311 397 c 0,41,42
 338 342 338 342 381 297 c 128,-1,43
 424 252 424 252 471 223 c 0,44,45
 537 186 537 186 609.5 168 c 128,-1,46
 682 150 682 150 748 150 c 1,47,48
 899 165 899 165 975 287 c 0,49,50
 1044 397 1044 397 1044 561 c 1,51,52
 1049 694 1049 694 1049 791 c 0,53,54
 1049 922 1049 922 1039.5 1022 c 128,-1,55
 1030 1122 1030 1122 1004 1217 c 0,56,57
 979 1311 979 1311 930 1393 c 1,58,59
 999 1417 999 1417 1073 1473 c 0,60,61
 1149 1528 1149 1528 1204 1595 c 0,62,63
 1227 1618 1227 1618 1239 1618 c 0,64,65
 1270 1618 1270 1618 1270 1509 c 0,66,67
 1270 1440 1270 1440 1257 1333 c 1,68,69
 1249 1081 1249 1081 1249 451 c 0,70,71
 1251 369 1251 369 1251 338 c 256,72,73
 1251 307 1251 307 1255 262 c 0,74,75
 1257 215 1257 215 1264 164 c 1,76,77
 1235 88 1235 88 1157 31 c 1,78,79
 1081 -31 1081 -31 963 -59 c 1,80,81
 944 -59 944 -59 938 -57 c 128,-1,82
 932 -55 932 -55 932 -47 c 0,83,84
 932 -35 932 -35 944 -12 c 1,85,86
 948 10 948 10 957.5 60.5 c 128,-1,87
 967 111 967 111 973 137 c 1,0,1
EndSplineSet
EndChar

StartChar: e
Encoding: 101 101 72
Width: 1331
Flags: W
LayerCount: 2
Fore
SplineSet
549 113 m 1,0,1
 731 117 731 117 834 133 c 0,2,3
 934 152 934 152 975 185.5 c 128,-1,4
 1016 219 1016 219 1036 291 c 0,5,6
 1042 317 1042 317 1042 346 c 0,7,8
 1042 410 1042 410 1016 473 c 1,9,10
 987 532 987 532 946 578 c 0,11,12
 903 623 903 623 856 649 c 0,13,14
 793 686 793 686 719 707 c 0,15,16
 643 725 643 725 582 725 c 1,17,18
 496 713 496 713 451 674 c 0,19,20
 410 641 410 641 387 573 c 0,21,22
 371 518 371 518 360 440 c 1,23,-1
 354 113 l 1,24,-1
 549 113 l 1,0,1
1288 113 m 1,25,26
 1288 40 1288 40 1239 -18 c 0,27,28
 1207 -56 1207 -56 1184 -66 c 0,29,30
 1155 -82 1155 -82 1126 -86 c 0,31,32
 1098 -92 1098 -92 1057 -92 c 2,33,-1
 354 -92 l 2,34,35
 248 -92 248 -92 145 -78 c 0,36,37
 45 -63 45 -63 45 -35 c 0,38,39
 45 -23 45 -23 59 -12 c 1,40,41
 109 154 109 154 131 246 c 0,42,43
 156 338 156 338 162 381 c 0,44,45
 168 426 168 426 180 532 c 0,46,47
 186 578 186 578 186 664 c 0,48,49
 186 848 186 848 153.5 1050.5 c 128,-1,50
 121 1253 121 1253 47 1393 c 1,51,52
 117 1417 117 1417 190 1473 c 0,53,54
 264 1526 264 1526 322 1595 c 0,55,56
 342 1618 342 1618 356 1618 c 0,57,58
 385 1618 385 1618 385 1516 c 0,59,60
 385 1448 385 1448 373 1333 c 0,61,62
 373 1305 373 1305 373 1249 c 0,63,64
 371 1196 371 1196 371 1163 c 256,65,66
 371 1130 371 1130 371 1090 c 0,67,68
 371 1040 371 1040 371 997 c 0,69,70
 371 956 371 956 373 881 c 0,71,72
 373 803 373 803 373 760 c 1,73,74
 393 774 393 774 411.5 787 c 128,-1,75
 430 800 430 800 447.5 811 c 128,-1,76
 465 822 465 822 485 831 c 0,77,78
 539 854 539 854 592 866 c 0,79,80
 643 877 643 877 707 877 c 0,81,82
 836 872 836 872 969 831 c 0,83,84
 1100 791 1100 791 1188 713 c 0,85,86
 1276 633 1276 633 1276 522 c 0,87,88
 1276 427 1276 427 1239 342 c 0,89,90
 1202 258 1202 258 1143 197 c 0,91,92
 1084 138 1084 138 1006 113 c 1,93,-1
 1288 113 l 1,25,26
EndSplineSet
EndChar

StartChar: f
Encoding: 102 102 73
Width: 1946
Flags: W
LayerCount: 2
Fore
SplineSet
1573 98 m 1,0,1
 1547 77 1547 77 1525.5 61.5 c 128,-1,2
 1504 46 1504 46 1484.5 33.5 c 128,-1,3
 1465 21 1465 21 1446 14 c 0,4,5
 1386 -6 1386 -6 1272 -8 c 0,6,7
 1047 -8 1047 -8 887 98 c 1,8,9
 803 43 803 43 731 16 c 0,10,11
 657 -8 657 -8 588 -8 c 0,12,13
 467 -4 467 -4 342 37 c 0,14,15
 215 78 215 78 133 158 c 0,16,17
 49 236 49 236 49 346 c 1,18,19
 56 494 56 494 106 590 c 0,20,21
 156 682 156 682 252 758 c 0,22,23
 330 817 330 817 416 854 c 0,24,25
 500 889 500 889 571 889 c 1,26,27
 647 881 647 881 694 824.5 c 128,-1,28
 741 768 741 768 741 715 c 0,29,30
 741 655 741 655 707 614 c 0,31,32
 672 571 672 571 616 571 c 0,33,34
 596 571 596 571 561 582 c 1,35,36
 561 614 561 614 543 643 c 0,37,38
 522 674 522 674 492 690 c 0,39,40
 459 709 459 709 420 709 c 0,41,42
 305 709 305 709 276 598 c 0,43,44
 270 567 270 567 270 541 c 0,45,46
 270 493 270 493 284 437 c 128,-1,47
 298 381 298 381 324 342 c 0,48,49
 379 260 379 260 449 219 c 0,50,51
 516 180 516 180 587.5 155.5 c 128,-1,52
 659 131 659 131 719 131 c 0,53,54
 780 131 780 131 819 160 c 1,55,56
 731 256 731 256 731 346 c 1,57,58
 738 494 738 494 788 590 c 0,59,60
 838 682 838 682 934 758 c 0,61,62
 1010 815 1010 815 1098 852 c 128,-1,63
 1186 889 1186 889 1255 889 c 1,64,65
 1331 881 1331 881 1378 825 c 0,66,67
 1423 768 1423 768 1423 715 c 0,68,69
 1423 655 1423 655 1389 614 c 0,70,71
 1354 571 1354 571 1298 571 c 0,72,73
 1278 571 1278 571 1243 582 c 1,74,75
 1243 614 1243 614 1225 643 c 0,76,77
 1204 674 1204 674 1174 690 c 0,78,79
 1141 709 1141 709 1102 709 c 0,80,81
 1040 709 1040 709 1006 686 c 0,82,83
 971 666 971 666 961 598 c 0,84,85
 952 559 952 559 952 539 c 0,86,87
 952 493 952 493 966 437 c 128,-1,88
 980 381 980 381 1006 342 c 0,89,90
 1061 262 1061 262 1130 219 c 0,91,92
 1303 113 1303 113 1397 113 c 0,93,94
 1456 113 1456 113 1526 176 c 0,95,96
 1583 231 1583 231 1620 332 c 0,97,98
 1655 432 1655 432 1655 561 c 0,99,100
 1659 721 1659 721 1659 791 c 0,101,102
 1659 922 1659 922 1651 1022 c 0,103,104
 1640 1122 1640 1122 1613.5 1216.5 c 128,-1,105
 1587 1311 1587 1311 1540 1393 c 1,106,107
 1610 1417 1610 1417 1683 1473 c 0,108,109
 1757 1526 1757 1526 1815 1595 c 0,110,111
 1835 1618 1835 1618 1849 1618 c 0,112,113
 1880 1618 1880 1618 1880 1509 c 0,114,115
 1880 1444 1880 1444 1868 1333 c 1,116,117
 1860 1081 1860 1081 1860 451 c 0,118,119
 1862 369 1862 369 1864 338 c 0,120,121
 1864 307 1864 307 1866 254 c 0,122,123
 1870 201 1870 201 1874 164 c 1,124,125
 1843 88 1843 88 1769 31 c 0,126,127
 1694 -29 1694 -29 1573 -59 c 1,128,129
 1554 -59 1554 -59 1548 -57 c 128,-1,130
 1542 -55 1542 -55 1542 -47 c 0,131,132
 1542 -35 1542 -35 1554 -12 c 0,133,134
 1561 10 1561 10 1573 98 c 1,0,1
EndSplineSet
EndChar

StartChar: g
Encoding: 103 103 74
Width: 1946
Flags: W
LayerCount: 2
Fore
SplineSet
1573 90 m 1,0,1
 1545 68 1545 68 1524 51.5 c 128,-1,2
 1503 35 1503 35 1491 29 c 0,3,4
 1456 10 1456 10 1405 2 c 128,-1,5
 1354 -6 1354 -6 1272 -8 c 0,6,7
 1047 -8 1047 -8 887 98 c 1,8,9
 803 43 803 43 731 16 c 0,10,11
 657 -8 657 -8 588 -8 c 0,12,13
 467 -4 467 -4 342 37 c 0,14,15
 215 78 215 78 133 158 c 0,16,17
 49 236 49 236 49 346 c 1,18,19
 56 494 56 494 106 590 c 0,20,21
 156 682 156 682 252 758 c 0,22,23
 330 817 330 817 416 854 c 0,24,25
 500 889 500 889 571 889 c 1,26,27
 647 881 647 881 694 824.5 c 128,-1,28
 741 768 741 768 741 715 c 0,29,30
 741 655 741 655 707 614 c 0,31,32
 672 571 672 571 616 571 c 0,33,34
 596 571 596 571 561 582 c 1,35,36
 561 614 561 614 543 643 c 0,37,38
 522 674 522 674 492 690 c 0,39,40
 459 709 459 709 420 709 c 0,41,42
 305 709 305 709 276 598 c 0,43,44
 270 567 270 567 270 541 c 0,45,46
 270 493 270 493 284 437 c 128,-1,47
 298 381 298 381 324 342 c 0,48,49
 379 260 379 260 449 219 c 0,50,51
 516 180 516 180 587.5 155.5 c 128,-1,52
 659 131 659 131 719 131 c 0,53,54
 780 131 780 131 819 160 c 1,55,56
 731 256 731 256 731 346 c 1,57,58
 738 494 738 494 788 590 c 0,59,60
 838 682 838 682 934 758 c 0,61,62
 1010 815 1010 815 1098 852 c 128,-1,63
 1186 889 1186 889 1255 889 c 1,64,65
 1331 881 1331 881 1378 825 c 0,66,67
 1423 768 1423 768 1423 715 c 0,68,69
 1423 655 1423 655 1389 614 c 0,70,71
 1354 571 1354 571 1298 571 c 0,72,73
 1278 571 1278 571 1243 582 c 1,74,75
 1243 614 1243 614 1225 643 c 0,76,77
 1204 674 1204 674 1174 690 c 0,78,79
 1141 709 1141 709 1102 709 c 0,80,81
 1040 709 1040 709 1006 686 c 0,82,83
 971 666 971 666 961 598 c 0,84,85
 952 559 952 559 952 539 c 0,86,87
 952 493 952 493 966 437 c 128,-1,88
 980 381 980 381 1006 342 c 0,89,90
 1061 262 1061 262 1130 219 c 0,91,92
 1303 113 1303 113 1397 113 c 0,93,94
 1489 113 1489 113 1563 227 c 0,95,96
 1630 330 1630 330 1630 489 c 0,97,98
 1630 524 1630 524 1628 543 c 0,99,100
 1618 591 1618 591 1607 609 c 128,-1,101
 1596 627 1596 627 1574.5 652.5 c 128,-1,102
 1553 678 1553 678 1536 709 c 1,103,104
 1610 735 1610 735 1682.5 790.5 c 128,-1,105
 1755 846 1755 846 1810 911 c 1,106,107
 1835 934 1835 934 1845 934 c 0,108,109
 1876 934 1876 934 1876 825 c 0,110,111
 1876 760 1876 760 1864 649 c 0,112,113
 1861 625 1861 625 1859.5 615.5 c 128,-1,114
 1858 606 1858 606 1856 592 c 128,-1,115
 1854 578 1854 578 1854 564 c 0,116,117
 1853 549 1853 549 1853 506 c 0,118,119
 1853 281 1853 281 1874 156 c 1,120,121
 1843 80 1843 80 1769 20 c 0,122,123
 1694 -39 1694 -39 1573 -68 c 1,124,125
 1554 -68 1554 -68 1548 -66 c 0,126,127
 1542 -66 1542 -66 1542 -55 c 0,128,129
 1542 -43 1542 -43 1554 -20 c 1,130,131
 1554 2 1554 2 1563 43 c 0,132,133
 1573 84 1573 84 1573 90 c 1,0,1
EndSplineSet
EndChar

StartChar: h
Encoding: 104 104 75
Width: 1331
Flags: W
LayerCount: 2
Fore
SplineSet
1253 657 m 0,0,1
 1247 617 1247 617 1246 607 c 128,-1,2
 1245 597 1245 597 1244 581.5 c 128,-1,3
 1243 566 1243 566 1243 514 c 0,4,5
 1243 281 1243 281 1264 164 c 1,6,7
 1235 88 1235 88 1157 31 c 1,8,9
 1081 -31 1081 -31 963 -59 c 1,10,11
 944 -59 944 -59 938 -57 c 128,-1,12
 932 -55 932 -55 932 -47 c 0,13,14
 932 -35 932 -35 944 -12 c 1,15,16
 954 37 954 37 975 135 c 1,17,18
 883 53 883 53 813 29 c 0,19,20
 729 0 729 0 623 -4 c 0,21,22
 524 -4 524 -4 424 18 c 0,23,24
 322 43 322 43 236 88 c 0,25,26
 150 135 150 135 100 201 c 0,27,28
 51 264 51 264 51 346 c 1,29,30
 59 501 59 501 109 590 c 0,31,32
 162 682 162 682 260 760 c 0,33,34
 340 819 340 819 430 856 c 0,35,36
 522 893 522 893 598 893 c 1,37,38
 653 889 653 889 692 860 c 128,-1,39
 731 831 731 831 754 795 c 0,40,41
 776 756 776 756 778 721 c 0,42,43
 778 662 778 662 741 621 c 0,44,45
 707 578 707 578 645 578 c 0,46,47
 614 578 614 578 588 586 c 1,48,49
 588 637 588 637 545 676 c 0,50,51
 500 713 500 713 440 713 c 0,52,53
 395 713 395 713 356 682 c 0,54,55
 315 649 315 649 289 600 c 1,56,57
 283 571 283 571 283 547 c 0,58,59
 283 458 283 458 311 397 c 0,60,61
 338 342 338 342 381 297 c 128,-1,62
 424 252 424 252 471 223 c 0,63,64
 537 186 537 186 609.5 168 c 128,-1,65
 682 150 682 150 748 150 c 1,66,67
 881 164 881 164 956 256 c 0,68,69
 1024 338 1024 338 1024 473 c 0,70,71
 1024 510 1024 510 1018 551 c 0,72,73
 1008 596 1008 596 997.5 615.5 c 128,-1,74
 987 635 987 635 963.5 662.5 c 128,-1,75
 940 690 940 690 926 717 c 1,76,77
 999 743 999 743 1073 799 c 0,78,79
 1145 854 1145 854 1200 920 c 0,80,81
 1223 942 1223 942 1235 942 c 0,82,83
 1266 942 1266 942 1266 834 c 0,84,85
 1266 766 1266 766 1253 657 c 0,0,1
EndSplineSet
EndChar

StartChar: i
Encoding: 105 105 76
Width: 1434
Flags: W
LayerCount: 2
Fore
SplineSet
479 614 m 1,0,1
 494 625 494 625 516 643 c 0,2,3
 539 659 539 659 571 678 c 0,4,5
 604 694 604 694 641 694 c 0,6,7
 659 694 659 694 680 688 c 0,8,9
 803 643 803 643 803 545 c 0,10,11
 803 532 803 532 799 512 c 1,12,13
 799 461 799 461 754 392.5 c 128,-1,14
 709 324 709 324 666 293 c 0,15,16
 655 287 655 287 633 274 c 0,17,18
 606 260 606 260 580 250 c 0,19,20
 551 238 551 238 537 233 c 0,21,22
 494 227 494 227 459 227 c 0,23,24
 399 227 399 227 352 240 c 0,25,26
 303 254 303 254 264 272 c 0,27,28
 225 293 225 293 176 324 c 0,29,30
 119 360 119 360 86 438 c 0,31,32
 53 514 53 514 53 610 c 0,33,34
 53 721 53 721 90 811 c 1,35,36
 117 860 117 860 144.5 895 c 128,-1,37
 172 930 172 930 240 969 c 0,38,39
 305 1006 305 1006 424 1028 c 0,40,41
 541 1053 541 1053 711 1053 c 0,42,43
 750 1053 750 1053 852 1049 c 1,44,45
 1141 1020 1141 1020 1272 905 c 0,46,47
 1401 788 1401 788 1401 629 c 0,48,49
 1401 582 1401 582 1393 547 c 0,50,51
 1382 487 1382 487 1364 444 c 0,52,53
 1343 399 1343 399 1307 360 c 0,54,55
 1270 322 1270 322 1204 276 c 0,56,57
 1137 231 1137 231 1028 168 c 0,58,59
 891 88 891 88 793 18 c 0,60,61
 692 -51 692 -51 614 -129 c 0,62,63
 537 -205 537 -205 471 -289 c 0,64,65
 408 -373 408 -373 336 -492 c 0,66,67
 328 -508 328 -508 328 -516 c 0,68,69
 328 -551 328 -551 369 -575 c 0,70,71
 410 -602 410 -602 467 -602 c 1,72,73
 465 -602 465 -602 436 -670 c 0,74,75
 408 -735 408 -735 373 -780 c 0,76,77
 336 -827 336 -827 285 -827 c 0,78,79
 264 -827 264 -827 254 -823 c 0,80,81
 238 -819 238 -819 199 -811 c 0,82,83
 158 -801 158 -801 131 -778.5 c 128,-1,84
 104 -756 104 -756 104 -713 c 0,85,86
 104 -696 104 -696 115 -657 c 1,87,88
 160 -547 160 -547 229 -438 c 0,89,90
 297 -334 297 -334 410 -213 c 0,91,92
 520 -90 520 -90 675.5 41 c 128,-1,93
 831 172 831 172 1053 328 c 1,94,95
 1124 410 1124 410 1124 545 c 0,96,97
 1124 621 1124 621 1102 682 c 0,98,99
 1079 745 1079 745 1044 774 c 1,100,101
 1014 811 1014 811 934 858 c 128,-1,102
 854 905 854 905 752 938 c 0,103,104
 647 973 647 973 553 973 c 0,105,106
 424 973 424 973 348 905 c 0,107,108
 287 850 287 850 287 727 c 0,109,110
 287 678 287 678 299 631 c 0,111,112
 311 582 311 582 336 537 c 1,113,114
 465 365 465 365 543 365 c 0,115,116
 598 365 598 365 598 451 c 0,117,118
 598 473 598 473 592 506 c 0,119,120
 588 528 588 528 569 547 c 0,121,122
 553 565 553 565 522 586 c 0,123,124
 492 604 492 604 479 614 c 1,0,1
EndSplineSet
EndChar

StartChar: j
Encoding: 106 106 77
Width: 1536
Flags: W
LayerCount: 2
Fore
SplineSet
160 -229 m 0,0,1
 78 -78 78 -78 78 88 c 0,2,3
 78 199 78 199 112 295 c 128,-1,4
 146 391 146 391 205 459 c 1,5,6
 279 572 279 572 388.5 644.5 c 128,-1,7
 498 717 498 717 668 774 c 1,8,-1
 45 774 l 1,9,10
 45 810 45 810 59 836 c 128,-1,11
 73 862 73 862 104 901 c 0,12,13
 139 942 139 942 179.5 957.5 c 128,-1,14
 220 973 220 973 281 973 c 2,15,-1
 1503 974 l 1,16,17
 1503 912 1503 912 1446 842 c 0,18,19
 1423 813 1423 813 1394 797 c 0,20,21
 1368 780 1368 780 1337 776 c 0,22,23
 1317 774 1317 774 1265 774 c 2,24,-1
 922 774 l 1,25,26
 790 753 790 753 653.5 683.5 c 128,-1,27
 517 614 517 614 422.5 482 c 128,-1,28
 328 350 328 350 328 160 c 0,29,30
 326 138 326 138 326 127 c 0,31,32
 326 43 326 43 366 -42 c 128,-1,33
 406 -127 406 -127 459.5 -190.5 c 128,-1,34
 513 -254 513 -254 545 -274 c 1,35,36
 611 -331 611 -331 714.5 -361 c 128,-1,37
 818 -391 818 -391 932 -391 c 0,38,39
 1051 -391 1051 -391 1147 -360 c 0,40,41
 1222 -334 1222 -334 1280 -279 c 128,-1,42
 1338 -224 1338 -224 1370.5 -155 c 128,-1,43
 1403 -86 1403 -86 1403 -25 c 0,44,45
 1403 12 1403 12 1389 45 c 0,46,47
 1382 59 1382 59 1368 76 c 0,48,49
 1354 90 1354 90 1337 100 c 0,50,51
 1321 109 1321 109 1300 109 c 0,52,53
 1270 109 1270 109 1243 84 c 1,54,55
 1217 96 1217 96 1198 131 c 0,56,57
 1180 166 1180 166 1180 203 c 0,58,59
 1180 221 1180 221 1188 250 c 0,60,61
 1206 307 1206 307 1270 307 c 0,62,63
 1321 307 1321 307 1366 285 c 0,64,65
 1409 260 1409 260 1442 203 c 0,66,67
 1475 143 1475 143 1477 47 c 0,68,69
 1477 6 1477 6 1465.5 -59.5 c 128,-1,70
 1454 -125 1454 -125 1423 -195 c 0,71,72
 1412 -218 1412 -218 1399.5 -236.5 c 128,-1,73
 1387 -255 1387 -255 1370.5 -275.5 c 128,-1,74
 1354 -296 1354 -296 1339 -315 c 0,75,76
 1302 -365 1302 -365 1213 -414 c 128,-1,77
 1124 -463 1124 -463 1007 -493.5 c 128,-1,78
 890 -524 890 -524 775 -524 c 0,79,80
 663 -524 663 -524 567 -494 c 1,81,82
 436 -466 436 -466 324 -395.5 c 128,-1,83
 212 -325 212 -325 160 -229 c 0,0,1
EndSplineSet
EndChar

StartChar: k
Encoding: 107 107 78
Width: 1434
Flags: W
LayerCount: 2
Fore
SplineSet
1143 547 m 1,0,1
 1130 610 1130 610 1085 675.5 c 128,-1,2
 1040 741 1040 741 999 741 c 1,3,4
 977 752 977 752 952 752 c 0,5,6
 924 752 924 752 906.5 734.5 c 128,-1,7
 889 717 889 717 881 688 c 0,8,9
 870 659 870 659 868 637 c 0,10,11
 864 612 864 612 862 596 c 1,12,13
 846 592 846 592 819 592 c 0,14,15
 772 592 772 592 735 615.5 c 128,-1,16
 698 639 698 639 690 678 c 1,17,18
 690 743 690 743 719 782 c 0,19,20
 748 819 748 819 844 850 c 1,21,22
 891 860 891 860 940 860 c 0,23,24
 1022 860 1022 860 1102 840 c 0,25,26
 1184 819 1184 819 1233 786 c 0,27,28
 1309 737 1309 737 1343 670 c 0,29,30
 1376 600 1376 600 1376 498 c 0,31,32
 1376 455 1376 455 1374 432 c 0,33,34
 1346 307 1346 307 1266 238 c 0,35,36
 1184 168 1184 168 1004 139 c 0,37,38
 800 109 800 109 655 53 c 128,-1,39
 510 -3 510 -3 426 -79 c 128,-1,40
 342 -155 342 -155 324 -242 c 1,41,42
 307 -286 307 -286 307 -356 c 0,43,44
 307 -424 307 -424 336 -486.5 c 128,-1,45
 365 -549 365 -549 422 -594 c 1,46,47
 479 -645 479 -645 545 -676 c 0,48,49
 612 -706 612 -706 700 -721 c 0,50,51
 741 -729 741 -729 844 -729 c 0,52,53
 973 -729 973 -729 1063 -678 c 0,54,55
 1114 -646 1114 -646 1135 -582 c 0,56,57
 1163 -503 1163 -503 1163 -434 c 0,58,59
 1163 -397 1163 -397 1143 -322 c 1,60,61
 1114 -266 1114 -266 1092 -238 c 0,62,63
 1054 -195 1054 -195 1024 -184 c 1,64,65
 1004 -172 1004 -172 965 -172 c 0,66,67
 891 -172 891 -172 862 -326 c 1,68,69
 850 -330 850 -330 819 -330 c 0,70,71
 774 -330 774 -330 737 -305 c 0,72,73
 702 -283 702 -283 690 -244 c 0,74,75
 682 -225 682 -225 682 -217 c 0,76,77
 682 -158 682 -158 774 -96 c 0,78,79
 797 -82 797 -82 844 -74 c 0,80,81
 897 -63 897 -63 977 -63 c 0,82,83
 1147 -63 1147 -63 1229 -117 c 0,84,85
 1298 -162 1298 -162 1341 -240 c 0,86,87
 1386 -317 1386 -317 1386 -406 c 0,88,89
 1386 -449 1386 -449 1374 -492 c 0,90,91
 1343 -588 1343 -588 1274 -651 c 0,92,93
 1204 -717 1204 -717 1038 -772 c 0,94,95
 874 -827 874 -827 713 -827 c 0,96,97
 643 -827 643 -827 575 -815 c 1,98,99
 477 -809 477 -809 385 -768 c 0,100,101
 293 -729 293 -729 215 -666 c 0,102,103
 135 -600 135 -600 92 -526 c 0,104,105
 57 -464 57 -464 57 -377 c 0,106,107
 57 -277 57 -277 111 -197 c 0,108,109
 131 -166 131 -166 149.5 -138 c 128,-1,110
 168 -110 168 -110 188 -88 c 128,-1,111
 208 -66 208 -66 238 -45 c 0,112,113
 333 25 333 25 348 33 c 0,114,115
 428 74 428 74 455 82 c 0,116,117
 525 101 525 101 575 106 c 1,118,119
 301 190 301 190 180 309 c 0,120,121
 59 426 59 426 59 580 c 1,122,123
 70 702 70 702 184 811 c 0,124,125
 299 920 299 920 484.5 1024 c 128,-1,126
 670 1128 670 1128 846 1229 c 0,127,128
 1022 1327 1022 1327 1100 1405 c 0,129,130
 1147 1452 1147 1452 1147 1495 c 0,131,132
 1147 1542 1147 1542 1096 1579 c 1,133,134
 1042 1612 1042 1612 989 1612 c 1,135,136
 1036 1667 1036 1667 1075 1690 c 0,137,138
 1114 1710 1114 1710 1194 1710 c 1,139,140
 1229 1706 1229 1706 1255 1675 c 0,141,142
 1282 1645 1282 1645 1288 1599 c 1,143,144
 1288 1460 1288 1460 1176 1360 c 0,145,146
 1061 1255 1061 1255 836 1126 c 0,147,148
 608 997 608 997 485 897 c 0,149,150
 362 799 362 799 338 664 c 0,151,152
 330 614 330 614 330 594 c 0,153,154
 330 504 330 504 381 430 c 0,155,156
 430 356 430 356 520 305 c 128,-1,157
 610 254 610 254 727 225 c 1,158,159
 784 217 784 217 844 217 c 0,160,161
 981 217 981 217 1053 258 c 0,162,163
 1110 295 1110 295 1126 375 c 0,164,165
 1143 455 1143 455 1143 547 c 1,0,1
EndSplineSet
EndChar

StartChar: l
Encoding: 108 108 79
Width: 1331
Flags: W
LayerCount: 2
Fore
SplineSet
1161 -43 m 1,0,1
 1081 -31 1081 -31 1001 31 c 0,2,3
 922 90 922 90 852 172 c 0,4,5
 829 197 829 197 805 232.5 c 128,-1,6
 781 268 781 268 761.5 298 c 128,-1,7
 742 328 742 328 721 360 c 0,8,9
 698 394 698 394 670 451.5 c 128,-1,10
 642 509 642 509 635 520 c 1,11,12
 608 471 608 471 575 403 c 0,13,14
 541 338 541 338 512 283 c 0,15,16
 481 227 481 227 444 164 c 0,17,18
 336 -31 336 -31 231 -31 c 0,19,20
 205 -31 205 -31 174 -18 c 0,21,22
 133 0 133 0 109 43 c 1,23,24
 82 82 82 82 82 127 c 0,25,26
 82 170 82 170 119 201 c 0,27,28
 154 231 154 231 197 231 c 0,29,30
 213 231 213 231 229 225 c 1,31,32
 256 178 256 178 324 168 c 1,33,34
 354 174 354 174 383 207 c 0,35,36
 406 230 406 230 422 254 c 2,37,-1
 586 586 l 1,38,39
 586 616 586 616 461 813 c 1,40,41
 414 854 414 854 367 854 c 0,42,43
 309 854 309 854 213 782 c 1,44,-1
 356 969 l 2,45,46
 385 1006 385 1006 432 1006 c 0,47,48
 487 1006 487 1006 528 987 c 0,49,50
 569 969 569 969 608 924 c 128,-1,51
 647 879 647 879 700 793 c 0,52,53
 730 747 730 747 809 616 c 0,54,55
 842 560 842 560 883.5 476 c 128,-1,56
 925 392 925 392 940 369 c 0,57,58
 968 327 968 327 979 310.5 c 128,-1,59
 990 294 990 294 1012 264.5 c 128,-1,60
 1034 235 1034 235 1044 225 c 0,61,62
 1112 152 1112 152 1202 96 c 0,63,64
 1274 53 1274 53 1304.5 43 c 128,-1,65
 1335 33 1335 33 1409 20 c 1,66,-1
 1161 -43 l 1,0,1
EndSplineSet
EndChar

StartChar: m
Encoding: 109 109 80
Width: 1536
Flags: W
LayerCount: 2
Fore
SplineSet
397 664 m 1,0,1
 463 710 463 710 530 742 c 128,-1,2
 597 774 597 774 668 774 c 2,3,-1
 45 774 l 1,4,5
 45 810 45 810 59 836 c 128,-1,6
 73 862 73 862 104 901 c 0,7,8
 139 942 139 942 179.5 957.5 c 128,-1,9
 220 973 220 973 281 973 c 2,10,-1
 1503 974 l 1,11,12
 1503 912 1503 912 1446 842 c 0,13,14
 1423 813 1423 813 1394 797 c 0,15,16
 1368 780 1368 780 1337 776 c 0,17,18
 1317 774 1317 774 1265 774 c 2,19,-1
 922 774 l 1,20,21
 717 744 717 744 631 668 c 0,22,23
 557 603 557 603 557 504 c 0,24,25
 557 443 557 443 605 404 c 128,-1,26
 653 365 653 365 733 365 c 0,27,28
 773 368 773 368 869 393 c 128,-1,29
 965 418 965 418 1024 418 c 0,30,31
 1215 418 1215 418 1319 349.5 c 128,-1,32
 1423 281 1423 281 1456 195 c 128,-1,33
 1489 109 1489 109 1491 37 c 0,34,35
 1491 -73 1491 -73 1435 -138 c 128,-1,36
 1379 -203 1379 -203 1298 -250 c 1,37,38
 1249 -292 1249 -292 1147 -317 c 128,-1,39
 1045 -342 1045 -342 918 -353.5 c 128,-1,40
 791 -365 791 -365 672 -365 c 0,41,42
 520 -365 520 -365 463 -352 c 0,43,44
 356 -329 356 -329 273 -296 c 128,-1,45
 190 -263 190 -263 137 -206.5 c 128,-1,46
 84 -150 84 -150 84 -61 c 1,47,48
 111 25 111 25 168 82 c 128,-1,49
 225 139 225 139 274 139 c 1,50,-1
 526 23 l 1,51,52
 401 23 401 23 381 -74 c 1,53,54
 381 -152 381 -152 448.5 -196.5 c 128,-1,55
 516 -241 516 -241 639 -266 c 0,56,57
 688 -272 688 -272 780 -272 c 0,58,59
 909 -272 909 -272 995 -254 c 0,60,61
 1073 -238 1073 -238 1125 -191.5 c 128,-1,62
 1177 -145 1177 -145 1203 -79.5 c 128,-1,63
 1229 -14 1229 -14 1229 61 c 1,64,65
 1225 112 1225 112 1196 169 c 128,-1,66
 1167 226 1167 226 1101 271 c 128,-1,67
 1035 316 1035 316 926 324 c 0,68,69
 890 324 890 324 824 310 c 128,-1,70
 758 296 758 296 725 291 c 0,71,72
 632 274 632 274 582 274 c 0,73,74
 436 274 436 274 385 340 c 0,75,76
 318 427 318 427 318 504 c 0,77,78
 318 588 318 588 397 664 c 1,0,1
EndSplineSet
EndChar

StartChar: n
Encoding: 110 110 81
Width: 1331
Flags: W
LayerCount: 2
Fore
SplineSet
1018 551 m 0,0,1
 1001 627 1001 627 989 672 c 128,-1,2
 977 717 977 717 948 770 c 1,3,-1
 793 764 l 2,4,5
 567 756 567 756 436 715 c 128,-1,6
 305 674 305 674 289 580 c 0,7,8
 283 553 283 553 283 526 c 0,9,10
 283 458 283 458 311 397 c 0,11,12
 338 342 338 342 381 297 c 128,-1,13
 424 252 424 252 471 223 c 0,14,15
 537 186 537 186 609.5 168 c 128,-1,16
 682 150 682 150 748 150 c 1,17,18
 881 164 881 164 956 256 c 0,19,20
 1024 338 1024 338 1024 473 c 0,21,22
 1024 510 1024 510 1018 551 c 0,0,1
1231 970 m 1,23,24
 1260 932 1260 932 1260 850 c 0,25,26
 1260 809 1260 809 1253 760 c 0,27,28
 1243 664 1243 664 1243 514 c 0,29,30
 1243 281 1243 281 1264 164 c 1,31,32
 1235 88 1235 88 1157 31 c 1,33,34
 1081 -31 1081 -31 963 -59 c 1,35,36
 944 -59 944 -59 938 -57 c 128,-1,37
 932 -55 932 -55 932 -47 c 0,38,39
 932 -35 932 -35 944 -12 c 1,40,41
 954 37 954 37 975 135 c 1,42,43
 883 53 883 53 813 29 c 0,44,45
 729 0 729 0 623 -4 c 0,46,47
 524 -4 524 -4 424 18 c 0,48,49
 322 43 322 43 236 88 c 0,50,51
 150 135 150 135 100 201 c 1,52,53
 50 279 50 279 50 380 c 0,54,55
 50 441 50 441 69.5 501.5 c 128,-1,56
 89 562 89 562 123 606 c 1,57,58
 156 662 156 662 211 705 c 0,59,60
 262 745 262 745 336 766 c 1,61,-1
 51 765 l 1,62,63
 51 801 51 801 65 830.5 c 128,-1,64
 79 860 79 860 109 897 c 0,65,66
 143 938 143 938 183.5 953.5 c 128,-1,67
 224 969 224 969 285 969 c 2,68,-1
 1231 970 l 1,23,24
EndSplineSet
EndChar

StartChar: o
Encoding: 111 111 82
Width: 1331
Flags: W
LayerCount: 2
Fore
SplineSet
963 270 m 0,0,1
 993 317 993 317 993 375 c 0,2,3
 993 432 993 432 963 485 c 0,4,5
 930 539 930 539 887 580 c 0,6,7
 842 621 842 621 795 647 c 0,8,9
 752 672 752 672 705 688 c 0,10,11
 657 707 657 707 610 715 c 128,-1,12
 563 723 563 723 522 723 c 0,13,14
 444 721 444 721 379 686 c 0,15,16
 311 651 311 651 289 580 c 0,17,18
 283 553 283 553 283 526 c 0,19,20
 283 465 283 465 310.5 407.5 c 128,-1,21
 338 350 338 350 381 305 c 128,-1,22
 424 260 424 260 471 233 c 0,23,24
 537 197 537 197 610 178 c 0,25,26
 682 160 682 160 748 160 c 1,27,28
 891 170 891 170 963 270 c 0,0,1
948 -69 m 0,29,30
 951 -56 951 -56 959 21 c 128,-1,31
 967 98 967 98 975 135 c 1,32,33
 897 70 897 70 813 39 c 128,-1,34
 729 8 729 8 623 6 c 1,35,36
 465 14 465 14 354 45 c 0,37,38
 244 74 244 74 176 121 c 0,39,40
 109 168 109 168 82 227 c 0,41,42
 53 287 53 287 51 356 c 0,43,44
 51 575 51 575 260 739 c 0,45,46
 307 776 307 776 377 809 c 0,47,48
 444 842 444 842 514 858 c 0,49,50
 582 874 582 874 647 874 c 0,51,52
 897 866 897 866 1044 770 c 1,53,54
 1044 891 1044 891 1040 961 c 0,55,56
 1038 1030 1038 1030 1026 1108 c 0,57,58
 1016 1186 1016 1186 991 1257 c 0,59,60
 967 1331 967 1331 930 1393 c 1,61,62
 999 1417 999 1417 1073 1473 c 0,63,64
 1149 1528 1149 1528 1204 1595 c 0,65,66
 1227 1618 1227 1618 1239 1618 c 0,67,68
 1270 1618 1270 1618 1270 1509 c 0,69,70
 1270 1440 1270 1440 1257 1333 c 1,71,72
 1249 1081 1249 1081 1249 451 c 0,73,74
 1251 342 1251 342 1253 266 c 256,75,76
 1255 190 1255 190 1260 121 c 0,77,78
 1268 -2 1268 -2 1276 -57 c 1,79,80
 1387 -77 1387 -77 1479 -77 c 0,81,82
 1529 -77 1529 -77 1561 -70 c 1,83,84
 1561 -110 1561 -110 1545.5 -151.5 c 128,-1,85
 1530 -193 1530 -193 1503 -223 c 1,86,87
 1426 -283 1426 -283 1294 -283 c 0,88,89
 1209 -283 1209 -283 1122 -259.5 c 128,-1,90
 1035 -236 1035 -236 1008 -217 c 0,91,92
 946 -171 946 -171 946 -96 c 0,93,94
 946 -87 946 -87 948 -69 c 0,29,30
EndSplineSet
EndChar

StartChar: p
Encoding: 112 112 83
Width: 2
Flags: W
LayerCount: 2
Fore
SplineSet
-213 1368 m 1,0,1
 -262 1237 -262 1237 -330 1171 c 0,2,3
 -397 1106 -397 1106 -489 1106 c 0,4,5
 -543 1106 -543 1106 -618 1135 c 0,6,7
 -694 1167 -694 1167 -725 1180 c 0,8,9
 -758 1192 -758 1192 -803 1192 c 0,10,11
 -903 1192 -903 1192 -1087 1094 c 1,12,13
 -1077 1124 -1077 1124 -1044 1184 c 0,14,15
 -1010 1243 -1010 1243 -938 1302.5 c 128,-1,16
 -866 1362 -866 1362 -768 1362 c 0,17,18
 -688 1362 -688 1362 -598 1315 c 0,19,20
 -506 1268 -506 1268 -442 1268 c 0,21,22
 -393 1268 -393 1268 -338 1292 c 0,23,24
 -283 1317 -283 1317 -213 1368 c 1,0,1
EndSplineSet
EndChar

StartChar: q
Encoding: 113 113 84
Width: 1331
Flags: W
LayerCount: 2
Fore
SplineSet
360 440 m 1,0,-1
 360 113 l 1,1,-1
 553 113 l 1,2,3
 735 117 735 117 836 133 c 0,4,5
 936 152 936 152 975 186 c 0,6,7
 1016 221 1016 221 1036 291 c 0,8,9
 1042 317 1042 317 1042 346 c 0,10,11
 1042 410 1042 410 1016 473 c 1,12,13
 987 532 987 532 946 578 c 0,14,15
 903 623 903 623 856 649 c 0,16,17
 793 686 793 686 719 707 c 0,18,19
 643 725 643 725 582 725 c 1,20,21
 516 716 516 716 451 664 c 0,22,23
 406 627 406 627 387 573 c 0,24,25
 371 518 371 518 360 440 c 1,0,-1
1277 113 m 1,26,27
 1277 34 1277 34 1229 -27 c 0,28,29
 1208 -53 1208 -53 1182 -68 c 0,30,31
 1153 -84 1153 -84 1122 -86 c 1,32,33
 1094 -92 1094 -92 1055 -92 c 2,34,-1
 360 -92 l 1,35,36
 362 -205 362 -205 365 -315 c 0,37,38
 367 -426 367 -426 371 -522 c 0,39,40
 373 -623 373 -623 379 -778 c 1,41,42
 350 -854 350 -854 274 -913 c 0,43,44
 199 -975 199 -975 80 -1001 c 1,45,46
 61 -1001 61 -1001 55 -999 c 128,-1,47
 49 -997 49 -997 49 -989 c 0,48,49
 49 -979 49 -979 59 -954 c 0,50,51
 106 -795 106 -795 133 -602 c 0,52,53
 162 -412 162 -412 170 -252 c 0,54,55
 180 -92 180 -92 180 0 c 2,56,-1
 180 51 l 2,57,58
 180 218 180 218 165 336.5 c 128,-1,59
 150 455 150 455 123 538.5 c 128,-1,60
 96 622 96 622 47 717 c 1,61,62
 121 743 121 743 195 799 c 0,63,64
 266 852 266 852 322 920 c 0,65,66
 344 942 344 942 356 942 c 0,67,68
 385 942 385 942 385 840 c 0,69,70
 385 820 385 820 381 810 c 128,-1,71
 377 800 377 800 373 760 c 1,72,73
 393 774 393 774 411.5 787 c 128,-1,74
 430 800 430 800 447.5 811 c 128,-1,75
 465 822 465 822 485 831 c 0,76,77
 539 854 539 854 592 866 c 0,78,79
 643 877 643 877 707 877 c 0,80,81
 836 872 836 872 969 831 c 0,82,83
 1100 791 1100 791 1188 713 c 0,84,85
 1276 633 1276 633 1276 522 c 0,86,87
 1276 427 1276 427 1239 342 c 0,88,89
 1202 258 1202 258 1143 197 c 0,90,91
 1084 138 1084 138 1006 113 c 1,92,-1
 1277 113 l 1,26,27
EndSplineSet
EndChar

StartChar: r
Encoding: 114 114 85
Width: 1946
Flags: W
LayerCount: 2
Fore
SplineSet
373 451 m 0,0,1
 365 385 365 385 360 305 c 0,2,3
 358 223 358 223 358 113 c 1,4,-1
 631 115 l 2,5,6
 649 113 649 113 686 113 c 0,7,8
 799 113 799 113 887 160 c 0,9,10
 973 205 973 205 991 291 c 0,11,12
 999 332 999 332 999 350 c 0,13,14
 999 415 999 415 973 475 c 0,15,16
 946 532 946 532 905 580 c 0,17,18
 862 625 862 625 821 649 c 0,19,20
 647 756 647 756 555 756 c 1,21,22
 500 748 500 748 467 721 c 0,23,24
 439 698 439 698 414 641 c 0,25,26
 395 598 395 598 391 571 c 0,27,28
 387 545 387 545 373 451 c 0,0,1
1391 113 m 2,29,30
 1479 113 1479 113 1532 125 c 0,31,32
 1585 133 1585 133 1622 174 c 0,33,34
 1659 213 1659 213 1673 291 c 0,35,36
 1681 332 1681 332 1681 352 c 0,37,38
 1681 451 1681 451 1626 530 c 0,39,40
 1573 610 1573 610 1503 649 c 0,41,42
 1346 737 1346 737 1233 737 c 0,43,44
 1169 737 1169 737 1133 709 c 1,45,46
 1219 610 1219 610 1221 522 c 0,47,48
 1221 479 1221 479 1214.5 435 c 128,-1,49
 1208 391 1208 391 1197 357 c 128,-1,50
 1186 323 1186 323 1165 287 c 0,51,52
 1108 190 1108 190 997 113 c 1,53,-1
 1391 113 l 2,29,30
1897 113 m 1,54,55
 1897 49 1897 49 1851 -20 c 0,56,57
 1821 -61 1821 -61 1784 -78 c 0,58,59
 1745 -92 1745 -92 1688 -92 c 2,60,-1
 362 -92 l 2,61,62
 264 -92 264 -92 158 -76 c 0,63,64
 51 -59 51 -59 51 -33 c 0,65,66
 51 -25 51 -25 68 -12 c 1,67,68
 111 131 111 131 137 233 c 0,69,70
 164 338 164 338 170 381 c 0,71,72
 176 426 176 426 188 532 c 0,73,74
 195 575 195 575 195 664 c 0,75,76
 195 848 195 848 164 1051 c 1,77,78
 129 1251 129 1251 55 1393 c 1,79,80
 123 1415 123 1415 199 1473 c 0,81,82
 274 1528 274 1528 330 1595 c 0,83,84
 350 1618 350 1618 365 1618 c 0,85,86
 393 1618 393 1618 393 1516 c 0,87,88
 393 1448 393 1448 381 1333 c 1,89,90
 369 956 369 956 369 725 c 1,91,92
 428 806 428 806 512 842 c 0,93,94
 604 877 604 877 680 877 c 0,95,96
 918 868 918 868 1065 770 c 1,97,98
 1225 877 1225 877 1364 877 c 1,99,100
 1485 872 1485 872 1610 831 c 0,101,102
 1735 791 1735 791 1819 713 c 0,103,104
 1903 633 1903 633 1903 522 c 0,105,106
 1903 446 1903 446 1887 381 c 128,-1,107
 1871 316 1871 316 1841 268 c 0,108,109
 1786 178 1786 178 1661 113 c 1,110,-1
 1897 113 l 1,54,55
EndSplineSet
EndChar

StartChar: s
Encoding: 115 115 86
Width: 1946
Flags: W
LayerCount: 2
Fore
SplineSet
1667 205 m 1,0,1
 1638 162 1638 162 1614 128.5 c 128,-1,2
 1590 95 1590 95 1569 78 c 0,3,4
 1516 33 1516 33 1448 14 c 0,5,6
 1378 -6 1378 -6 1272 -8 c 0,7,8
 1047 -8 1047 -8 887 98 c 1,9,10
 803 43 803 43 731 16 c 0,11,12
 657 -8 657 -8 588 -8 c 0,13,14
 467 -4 467 -4 342 37 c 0,15,16
 215 78 215 78 133 158 c 0,17,18
 49 236 49 236 49 346 c 1,19,20
 56 494 56 494 106 590 c 0,21,22
 156 682 156 682 252 758 c 0,23,24
 330 817 330 817 416 854 c 0,25,26
 500 889 500 889 571 889 c 1,27,28
 647 881 647 881 694 824.5 c 128,-1,29
 741 768 741 768 741 715 c 0,30,31
 741 655 741 655 707 614 c 0,32,33
 672 571 672 571 616 571 c 0,34,35
 596 571 596 571 561 582 c 1,36,37
 561 614 561 614 543 643 c 0,38,39
 522 674 522 674 492 690 c 0,40,41
 459 709 459 709 420 709 c 0,42,43
 305 709 305 709 276 598 c 0,44,45
 270 567 270 567 270 541 c 0,46,47
 270 493 270 493 284 437 c 128,-1,48
 298 381 298 381 324 342 c 0,49,50
 379 260 379 260 449 219 c 0,51,52
 516 180 516 180 587.5 155.5 c 128,-1,53
 659 131 659 131 719 131 c 0,54,55
 780 131 780 131 819 160 c 1,56,57
 731 256 731 256 731 346 c 1,58,59
 738 494 738 494 788 590 c 0,60,61
 838 682 838 682 934 758 c 0,62,63
 1010 815 1010 815 1098 852 c 128,-1,64
 1186 889 1186 889 1255 889 c 1,65,66
 1331 881 1331 881 1378 825 c 0,67,68
 1423 768 1423 768 1423 715 c 0,69,70
 1423 655 1423 655 1389 614 c 0,71,72
 1354 571 1354 571 1298 571 c 0,73,74
 1278 571 1278 571 1243 582 c 1,75,76
 1243 614 1243 614 1225 643 c 0,77,78
 1204 674 1204 674 1174 690 c 0,79,80
 1141 709 1141 709 1102 709 c 0,81,82
 1040 709 1040 709 1006 686 c 0,83,84
 971 666 971 666 961 598 c 0,85,86
 952 559 952 559 952 539 c 0,87,88
 952 493 952 493 966 437 c 128,-1,89
 980 381 980 381 1006 342 c 0,90,91
 1061 262 1061 262 1130 219 c 0,92,93
 1303 113 1303 113 1397 113 c 0,94,95
 1495 113 1495 113 1562.5 217 c 128,-1,96
 1630 321 1630 321 1630 489 c 0,97,98
 1630 524 1630 524 1628 543 c 0,99,100
 1618 591 1618 591 1607 609 c 128,-1,101
 1596 627 1596 627 1574.5 652.5 c 128,-1,102
 1553 678 1553 678 1536 709 c 1,103,104
 1610 735 1610 735 1682.5 790.5 c 128,-1,105
 1755 846 1755 846 1810 911 c 1,106,107
 1835 934 1835 934 1845 934 c 0,108,109
 1876 934 1876 934 1876 825 c 0,110,111
 1876 760 1876 760 1864 649 c 0,112,113
 1858 626 1858 626 1854.5 619 c 128,-1,114
 1851 612 1851 612 1849 565 c 0,115,116
 1843 444 1843 444 1843 264 c 0,117,118
 1843 100 1843 100 1847 -86 c 0,119,120
 1849 -270 1849 -270 1858 -471 c 0,121,122
 1866 -674 1866 -674 1870 -786 c 1,123,124
 1839 -862 1839 -862 1765 -922 c 0,125,126
 1690 -981 1690 -981 1571 -1010 c 1,127,128
 1538 -1010 1538 -1010 1538 -997 c 0,129,130
 1538 -983 1538 -983 1550 -963 c 1,131,132
 1597 -805 1597 -805 1624 -612 c 0,133,134
 1653 -420 1653 -420 1663 -260 c 0,135,136
 1671 -100 1671 -100 1671 -8 c 0,137,138
 1671 113 1671 113 1667 205 c 1,0,1
EndSplineSet
EndChar

StartChar: t
Encoding: 116 116 87
Width: 1946
Flags: W
LayerCount: 2
Fore
SplineSet
373 451 m 0,0,1
 365 385 365 385 360 305 c 0,2,3
 358 223 358 223 358 113 c 1,4,-1
 631 115 l 2,5,6
 649 113 649 113 686 113 c 0,7,8
 799 113 799 113 887 160 c 0,9,10
 973 205 973 205 991 291 c 0,11,12
 999 332 999 332 999 350 c 0,13,14
 999 415 999 415 973 475 c 0,15,16
 946 532 946 532 905 580 c 0,17,18
 862 625 862 625 821 649 c 0,19,20
 647 756 647 756 555 756 c 1,21,22
 500 748 500 748 467 721 c 0,23,24
 439 698 439 698 414 641 c 0,25,26
 395 598 395 598 391 571 c 0,27,28
 387 545 387 545 373 451 c 0,0,1
1391 113 m 2,29,30
 1479 113 1479 113 1532 125 c 0,31,32
 1585 133 1585 133 1622 174 c 0,33,34
 1659 213 1659 213 1673 291 c 0,35,36
 1681 332 1681 332 1681 352 c 0,37,38
 1681 451 1681 451 1626 530 c 0,39,40
 1573 610 1573 610 1503 649 c 0,41,42
 1346 737 1346 737 1233 737 c 0,43,44
 1169 737 1169 737 1133 709 c 1,45,46
 1219 610 1219 610 1221 522 c 0,47,48
 1221 479 1221 479 1214.5 435 c 128,-1,49
 1208 391 1208 391 1197 357 c 128,-1,50
 1186 323 1186 323 1165 287 c 0,51,52
 1108 190 1108 190 997 113 c 1,53,-1
 1391 113 l 2,29,30
1897 113 m 1,54,55
 1897 49 1897 49 1851 -20 c 0,56,57
 1821 -61 1821 -61 1784 -78 c 0,58,59
 1745 -92 1745 -92 1688 -92 c 2,60,-1
 362 -92 l 2,61,62
 264 -92 264 -92 158 -76 c 0,63,64
 51 -59 51 -59 51 -33 c 0,65,66
 51 -25 51 -25 68 -12 c 1,67,68
 86 49 86 49 102 131 c 0,69,70
 119 213 119 213 131 311 c 0,71,72
 143 410 143 410 143 500 c 0,73,74
 143 554 143 554 137.5 591.5 c 128,-1,75
 132 629 132 629 122.5 647 c 128,-1,76
 113 665 113 665 103 674.5 c 128,-1,77
 93 684 93 684 55 717 c 1,78,79
 127 741 127 741 201 799 c 0,80,81
 274 854 274 854 330 920 c 0,82,83
 352 942 352 942 365 942 c 0,84,85
 393 942 393 942 393 840 c 0,86,87
 393 820 393 820 389 810 c 128,-1,88
 385 800 385 800 381 760 c 1,89,90
 459 831 459 831 522 852 c 0,91,92
 602 877 602 877 680 877 c 0,93,94
 918 868 918 868 1065 770 c 1,95,96
 1225 877 1225 877 1364 877 c 1,97,98
 1485 872 1485 872 1610 831 c 0,99,100
 1735 791 1735 791 1819 713 c 0,101,102
 1903 633 1903 633 1903 522 c 0,103,104
 1903 446 1903 446 1887 381 c 128,-1,105
 1871 316 1871 316 1841 268 c 0,106,107
 1783 173 1783 173 1667 113 c 1,108,-1
 1897 113 l 1,54,55
EndSplineSet
EndChar

StartChar: u
Encoding: 117 117 88
Width: 1331
Flags: W
LayerCount: 2
Fore
SplineSet
451 238 m 1,0,1
 385 184 385 184 342.5 150.5 c 128,-1,2
 300 117 300 117 272 92 c 0,3,4
 268 89 268 89 257.5 81.5 c 128,-1,5
 247 74 247 74 238 66 c 128,-1,6
 229 58 229 58 223 47.5 c 128,-1,7
 217 37 217 37 217 25 c 0,8,9
 217 8 217 8 231 -12 c 0,10,11
 240 -22 240 -22 245.5 -28 c 128,-1,12
 251 -34 251 -34 267.5 -39.5 c 128,-1,13
 284 -45 284 -45 289 -47 c 1,14,15
 222 -108 222 -108 166 -129 c 1,16,17
 151 -111 151 -111 142.5 -103 c 128,-1,18
 134 -95 134 -95 132.5 -91.5 c 128,-1,19
 131 -88 131 -88 121 -66 c 0,20,21
 100 -19 100 -19 100 8 c 0,22,23
 100 39 100 39 117.5 67.5 c 128,-1,24
 135 96 135 96 178 135 c 0,25,26
 207 162 207 162 401 319 c 1,27,-1
 221 618 l 2,28,29
 183 682 183 682 156.5 718.5 c 128,-1,30
 130 755 130 755 111 769.5 c 128,-1,31
 92 784 92 784 75.5 788 c 128,-1,32
 59 792 59 792 12 803 c 1,33,-1
 246 905 l 1,34,35
 271 905 271 905 304 891 c 128,-1,36
 337 877 337 877 363 851 c 128,-1,37
 389 825 389 825 401 788 c 1,38,-1
 770 154 l 1,39,40
 918 277 918 277 975 329 c 128,-1,41
 1032 381 1032 381 1057.5 418 c 128,-1,42
 1083 455 1083 455 1083 494 c 0,43,44
 1083 518 1083 518 1061 604 c 1,45,46
 1039 662 1039 662 1013 698 c 128,-1,47
 987 734 987 734 962 751 c 128,-1,48
 937 768 937 768 910 777 c 128,-1,49
 883 786 883 786 842 795 c 1,50,-1
 1079 895 l 2,51,52
 1107 905 1107 905 1124 905 c 0,53,54
 1202 905 1202 905 1255 811 c 0,55,56
 1307 719 1307 719 1307 625 c 0,57,58
 1307 600 1307 600 1298 571 c 1,59,60
 1287 503 1287 503 1230.5 428.5 c 128,-1,61
 1174 354 1174 354 1092 280 c 128,-1,62
 1010 206 1010 206 909 126.5 c 128,-1,63
 808 47 808 47 655 -72 c 0,64,65
 602 -114 602 -114 579.5 -134.5 c 128,-1,66
 557 -155 557 -155 519.5 -191 c 128,-1,67
 482 -227 482 -227 434 -270 c 0,68,69
 401 -298 401 -298 363.5 -364.5 c 128,-1,70
 326 -431 326 -431 326 -494 c 0,71,72
 326 -544 326 -544 354 -582 c 0,73,74
 444 -702 444 -702 565 -758 c 1,75,76
 452 -863 452 -863 322 -922 c 1,77,78
 305 -903 305 -903 251.5 -847 c 128,-1,79
 198 -791 198 -791 176.5 -763.5 c 128,-1,80
 155 -736 155 -736 133 -688 c 0,81,82
 109 -636 109 -636 109 -582 c 0,83,84
 109 -409 109 -409 324 -217 c 0,85,86
 545 -19 545 -19 580 10 c 1,87,-1
 451 238 l 1,0,1
EndSplineSet
EndChar

StartChar: v
Encoding: 118 118 89
Width: 1946
Flags: W
LayerCount: 2
Fore
SplineSet
41 766 m 1,0,1
 41 799 41 799 54.5 824 c 128,-1,2
 68 849 68 849 100 893 c 0,3,4
 135 936 135 936 176 950 c 0,5,6
 217 965 217 965 276 965 c 2,7,-1
 1655 971 l 1,8,9
 1632 1235 1632 1235 1540 1393 c 1,10,11
 1610 1417 1610 1417 1683 1473 c 0,12,13
 1757 1526 1757 1526 1815 1595 c 0,14,15
 1835 1618 1835 1618 1849 1618 c 0,16,17
 1880 1618 1880 1618 1880 1509 c 0,18,19
 1880 1444 1880 1444 1868 1333 c 1,20,21
 1860 1081 1860 1081 1860 451 c 0,22,23
 1862 369 1862 369 1864 338 c 0,24,25
 1864 307 1864 307 1866 254 c 0,26,27
 1870 201 1870 201 1874 164 c 1,28,29
 1843 88 1843 88 1769 31 c 0,30,31
 1694 -29 1694 -29 1573 -59 c 1,32,33
 1554 -59 1554 -59 1548 -57 c 128,-1,34
 1542 -55 1542 -55 1542 -47 c 0,35,36
 1542 -35 1542 -35 1554 -12 c 0,37,38
 1561 10 1561 10 1573 98 c 1,39,40
 1547 77 1547 77 1525.5 61.5 c 128,-1,41
 1504 46 1504 46 1484.5 33.5 c 128,-1,42
 1465 21 1465 21 1446 14 c 0,43,44
 1386 -6 1386 -6 1272 -8 c 0,45,46
 1047 -8 1047 -8 887 98 c 1,47,48
 803 43 803 43 731 16 c 0,49,50
 657 -8 657 -8 588 -8 c 0,51,52
 467 -4 467 -4 342 37 c 0,53,54
 215 78 215 78 133 158 c 0,55,56
 49 236 49 236 49 346 c 0,57,58
 52 465 52 465 78 532 c 0,59,60
 103 603 103 603 174 678 c 1,61,62
 237 738 237 738 334 766 c 1,63,-1
 41 766 l 1,0,1
270 520 m 1,64,65
 270 421 270 421 324 342 c 0,66,67
 379 260 379 260 449 219 c 0,68,69
 516 180 516 180 587.5 155.5 c 128,-1,70
 659 131 659 131 719 131 c 0,71,72
 780 131 780 131 819 160 c 1,73,74
 731 256 731 256 731 346 c 2,75,-1
 731 395 l 2,76,77
 731 458 731 458 741 492 c 0,78,79
 759 557 759 557 791 606 c 0,80,81
 814 643 814 643 879 702 c 0,82,83
 924 741 924 741 979 766 c 1,84,-1
 778 766 l 2,85,86
 567 766 567 766 436 721 c 0,87,88
 361 695 361 695 319 650.5 c 128,-1,89
 277 606 277 606 270 520 c 1,64,65
952 518 m 1,90,91
 952 421 952 421 1006 342 c 0,92,93
 1061 262 1061 262 1130 219 c 0,94,95
 1303 113 1303 113 1397 113 c 0,96,97
 1456 113 1456 113 1526 176 c 0,98,99
 1583 231 1583 231 1620 332 c 0,100,101
 1655 432 1655 432 1655 561 c 0,102,103
 1653 633 1653 633 1653 674 c 256,104,105
 1653 715 1653 715 1649 770 c 1,106,-1
 1401 770 l 2,107,108
 1194 770 1194 770 1085 725 c 0,109,110
 960 671 960 671 952 518 c 1,90,91
EndSplineSet
EndChar

StartChar: w
Encoding: 119 119 90
Width: 1946
Flags: W
LayerCount: 2
Fore
SplineSet
373 451 m 0,0,1
 362 385 362 385 360 305 c 0,2,3
 356 223 356 223 356 113 c 1,4,-1
 631 115 l 2,5,6
 649 113 649 113 686 113 c 0,7,8
 799 113 799 113 887 160 c 0,9,10
 973 205 973 205 991 291 c 0,11,12
 999 332 999 332 999 350 c 0,13,14
 999 415 999 415 973 475 c 0,15,16
 946 532 946 532 905 580 c 0,17,18
 862 625 862 625 821 649 c 0,19,20
 647 756 647 756 555 756 c 1,21,22
 521 751 521 751 467 711 c 0,23,24
 432 682 432 682 414 641 c 0,25,26
 395 598 395 598 391 571 c 0,27,28
 387 545 387 545 373 451 c 0,0,1
1391 113 m 2,29,30
 1479 113 1479 113 1532 125 c 0,31,32
 1585 133 1585 133 1622 174 c 0,33,34
 1659 213 1659 213 1673 291 c 0,35,36
 1681 343 1681 343 1681 362 c 0,37,38
 1681 453 1681 453 1626 530 c 0,39,40
 1573 610 1573 610 1503 649 c 0,41,42
 1346 737 1346 737 1233 737 c 0,43,44
 1169 737 1169 737 1133 709 c 1,45,46
 1219 610 1219 610 1221 522 c 0,47,48
 1221 479 1221 479 1214.5 435 c 128,-1,49
 1208 391 1208 391 1197 357 c 128,-1,50
 1186 323 1186 323 1165 287 c 0,51,52
 1108 190 1108 190 997 113 c 1,53,-1
 1391 113 l 2,29,30
1897 113 m 1,54,55
 1897 49 1897 49 1851 -20 c 0,56,57
 1821 -61 1821 -61 1784 -78 c 0,58,59
 1745 -92 1745 -92 1688 -92 c 2,60,-1
 362 -92 l 1,61,62
 365 -190 365 -190 369 -295 c 0,63,64
 373 -401 373 -401 379 -528 c 0,65,66
 383 -657 383 -657 387 -778 c 1,67,68
 358 -854 358 -854 283 -913 c 0,69,70
 207 -975 207 -975 88 -1001 c 0,71,72
 70 -1001 70 -1001 63 -999 c 0,73,74
 57 -997 57 -997 57 -989 c 0,75,76
 57 -979 57 -979 68 -954 c 0,77,78
 115 -801 115 -801 141 -606 c 0,79,80
 170 -412 170 -412 178 -252 c 0,81,82
 188 -92 188 -92 188 0 c 2,83,-1
 188 51 l 2,84,85
 188 218 188 218 173 336.5 c 128,-1,86
 158 455 158 455 131 538.5 c 128,-1,87
 104 622 104 622 55 717 c 1,88,89
 127 741 127 741 201 799 c 0,90,91
 274 854 274 854 330 920 c 0,92,93
 352 942 352 942 365 942 c 0,94,95
 393 942 393 942 393 840 c 0,96,97
 393 820 393 820 389 810 c 128,-1,98
 385 800 385 800 381 760 c 1,99,100
 421 786 421 786 447.5 803 c 128,-1,101
 474 820 474 820 498 833.5 c 128,-1,102
 522 847 522 847 543 854 c 0,103,104
 610 877 610 877 680 877 c 0,105,106
 918 868 918 868 1065 770 c 1,107,108
 1225 877 1225 877 1364 877 c 1,109,110
 1485 872 1485 872 1610 831 c 0,111,112
 1735 791 1735 791 1819 713 c 0,113,114
 1903 633 1903 633 1903 522 c 0,115,116
 1903 446 1903 446 1887 381 c 128,-1,117
 1871 316 1871 316 1841 268 c 0,118,119
 1782 172 1782 172 1669 113 c 1,120,-1
 1897 113 l 1,54,55
EndSplineSet
EndChar

StartChar: x
Encoding: 120 120 91
Width: 1946
Flags: W
LayerCount: 2
Fore
SplineSet
965 586 m 0,0,1
 956 539 956 539 956 526 c 0,2,3
 956 458 956 458 983 399 c 0,4,5
 1010 342 1010 342 1051 299 c 0,6,7
 1092 254 1092 254 1135 227 c 0,8,9
 1305 121 1305 121 1401 121 c 0,10,11
 1499 121 1499 121 1566.5 225 c 128,-1,12
 1634 329 1634 329 1634 498 c 0,13,14
 1634 532 1634 532 1632 551 c 0,15,16
 1612 647 1612 647 1601.5 686 c 128,-1,17
 1591 725 1591 725 1563 778 c 1,18,-1
 1405 778 l 2,19,20
 1198 778 1198 778 1090 731 c 0,21,22
 981 686 981 686 965 586 c 0,0,1
293 582 m 0,23,24
 287 551 287 551 287 518 c 0,25,26
 287 418 287 418 338 344 c 1,27,28
 385 266 385 266 453 227 c 0,29,30
 602 139 602 139 723 139 c 0,31,32
 786 139 786 139 823 168 c 1,33,34
 741 258 741 258 735 354 c 1,35,36
 735 510 735 510 805 616 c 1,37,38
 872 727 872 727 983 774 c 1,39,-1
 782 774 l 2,40,41
 645 774 645 774 539 754 c 0,42,43
 430 733 430 733 369 690 c 0,44,45
 305 647 305 647 293 582 c 0,23,24
338 774 m 1,46,-1
 45 774 l 1,47,48
 45 810 45 810 59 836 c 128,-1,49
 73 862 73 862 104 901 c 0,50,51
 139 942 139 942 180 957.5 c 128,-1,52
 221 973 221 973 281 973 c 2,53,-1
 1597 975 l 1,54,-1
 1647 975 l 2,55,56
 1788 975 1788 975 1815 1030 c 1,57,58
 1837 1053 1837 1053 1849 1053 c 0,59,60
 1880 1053 1880 1053 1880 938 c 0,61,62
 1880 870 1880 870 1868 760 c 0,63,64
 1858 692 1858 692 1855 573 c 0,65,66
 1849 455 1849 455 1849 272 c 0,67,68
 1849 66 1849 66 1858 -246 c 0,69,70
 1864 -555 1864 -555 1874 -778 c 1,71,72
 1843 -854 1843 -854 1767 -913 c 0,73,74
 1692 -975 1692 -975 1573 -1001 c 1,75,76
 1554 -1001 1554 -1001 1548 -999 c 128,-1,77
 1542 -997 1542 -997 1542 -989 c 0,78,79
 1542 -977 1542 -977 1554 -954 c 1,80,81
 1622 -731 1622 -731 1647 -461 c 0,82,83
 1673 -188 1673 -188 1673 0 c 0,84,85
 1673 121 1673 121 1671 213 c 1,86,87
 1609 117 1609 117 1571 86 c 0,88,89
 1520 43 1520 43 1450 23 c 0,90,91
 1378 0 1378 0 1274 0 c 0,92,93
 1171 0 1171 0 1071 26.5 c 128,-1,94
 971 53 971 53 891 106 c 1,95,96
 805 49 805 49 733 25 c 0,97,98
 662 0 662 0 592 0 c 0,99,100
 489 0 489 0 391 25 c 0,101,102
 293 47 293 47 217 92 c 0,103,104
 141 135 141 135 98 205 c 1,105,106
 53 270 53 270 53 354 c 0,107,108
 56 447 56 447 86 541 c 1,109,110
 117 623 117 623 178 684 c 128,-1,111
 239 745 239 745 338 774 c 1,46,-1
EndSplineSet
EndChar

StartChar: y
Encoding: 121 121 92
Width: 1331
Flags: W
LayerCount: 2
Fore
SplineSet
553 113 m 1,0,1
 735 117 735 117 836 133 c 0,2,3
 936 152 936 152 975 186 c 0,4,5
 1016 221 1016 221 1036 291 c 0,6,7
 1042 318 1042 318 1042 356 c 0,8,9
 1042 416 1042 416 1016 473 c 0,10,11
 987 532 987 532 946 578 c 0,12,13
 903 623 903 623 856 649 c 0,14,15
 793 686 793 686 719 707 c 0,16,17
 643 725 643 725 582 725 c 1,18,19
 496 713 496 713 451 674 c 0,20,21
 410 641 410 641 387 573 c 0,22,23
 371 518 371 518 360 440 c 1,24,-1
 354 113 l 1,25,-1
 553 113 l 1,0,1
1287 113 m 1,26,27
 1287 48 1287 48 1233 -20 c 0,28,29
 1208 -49 1208 -49 1184 -66 c 0,30,31
 1155 -82 1155 -82 1126 -86 c 0,32,33
 1098 -92 1098 -92 1057 -92 c 2,34,-1
 354 -92 l 2,35,36
 276 -92 276 -92 162 -78 c 0,37,38
 45 -63 45 -63 45 -33 c 0,39,40
 45 -23 45 -23 59 -12 c 1,41,42
 111 233 111 233 127 326 c 0,43,44
 143 416 143 416 143 492 c 0,45,46
 143 571 143 571 121 645 c 0,47,48
 115 665 115 665 103 670.5 c 128,-1,49
 91 676 91 676 76.5 682.5 c 128,-1,50
 62 689 62 689 47 717 c 1,51,52
 121 743 121 743 195 799 c 0,53,54
 266 852 266 852 322 920 c 0,55,56
 344 942 344 942 356 942 c 0,57,58
 385 942 385 942 385 840 c 0,59,60
 385 820 385 820 381 810 c 128,-1,61
 377 800 377 800 373 760 c 1,62,63
 393 774 393 774 411.5 787 c 128,-1,64
 430 800 430 800 447.5 811 c 128,-1,65
 465 822 465 822 485 831 c 0,66,67
 539 854 539 854 592 866 c 0,68,69
 643 877 643 877 707 877 c 0,70,71
 836 872 836 872 967 831 c 0,72,73
 1098 791 1098 791 1186 713 c 0,74,75
 1274 633 1274 633 1274 522 c 0,76,77
 1274 427 1274 427 1237 342 c 0,78,79
 1200 258 1200 258 1141 197 c 0,80,81
 1083 139 1083 139 1001 113 c 1,82,-1
 1287 113 l 1,26,27
EndSplineSet
EndChar

StartChar: z
Encoding: 122 122 93
Width: 1331
Flags: W
LayerCount: 2
Fore
SplineSet
1018 551 m 0,0,1
 1001 627 1001 627 989 672 c 128,-1,2
 977 717 977 717 948 770 c 1,3,-1
 793 764 l 2,4,5
 567 756 567 756 436 715 c 128,-1,6
 305 674 305 674 289 580 c 0,7,8
 283 553 283 553 283 526 c 0,9,10
 283 458 283 458 311 397 c 0,11,12
 338 342 338 342 381 297 c 128,-1,13
 424 252 424 252 471 223 c 0,14,15
 537 186 537 186 609.5 168 c 128,-1,16
 682 150 682 150 748 150 c 1,17,18
 889 164 889 164 956 246 c 0,19,20
 990 286 990 286 1007 346 c 128,-1,21
 1024 406 1024 406 1024 473 c 0,22,23
 1024 510 1024 510 1018 551 c 0,0,1
1252 970 m 1,24,25
 1273 959 1273 959 1273 913 c 0,26,27
 1273 899 1273 899 1270 870.5 c 128,-1,28
 1267 842 1267 842 1260.5 803.5 c 128,-1,29
 1254 765 1254 765 1253 760 c 0,30,31
 1235 643 1235 643 1235 272 c 0,32,33
 1235 109 1235 109 1237 -78 c 0,34,35
 1241 -262 1241 -262 1247 -463 c 0,36,37
 1255 -666 1255 -666 1260 -778 c 1,38,39
 1231 -854 1231 -854 1153 -913 c 0,40,41
 1077 -975 1077 -975 961 -1001 c 1,42,43
 928 -1001 928 -1001 928 -989 c 256,44,45
 928 -977 928 -977 940 -954 c 1,46,47
 985 -801 985 -801 1014 -604 c 0,48,49
 1040 -410 1040 -410 1051 -252 c 0,50,51
 1061 -92 1061 -92 1061 0 c 0,52,53
 1061 121 1061 121 1057 213 c 1,54,55
 972 123 972 123 926 90 c 0,56,57
 854 45 854 45 779.5 22.5 c 128,-1,58
 705 0 705 0 623 -4 c 1,59,60
 524 -4 524 -4 424 18 c 0,61,62
 322 43 322 43 236 88 c 0,63,64
 150 135 150 135 100 201 c 0,65,66
 51 264 51 264 51 346 c 0,67,68
 55 430 55 430 72 487 c 0,69,70
 88 551 88 551 123 606 c 0,71,72
 156 662 156 662 211 705 c 0,73,74
 262 745 262 745 336 766 c 1,75,-1
 56 765 l 1,76,77
 56 833 56 833 109 897 c 0,78,79
 143 938 143 938 183.5 953.5 c 128,-1,80
 224 969 224 969 285 969 c 2,81,-1
 1252 970 l 1,24,25
EndSplineSet
EndChar

StartChar: braceleft
Encoding: 123 123 94
Width: 2
Flags: W
LayerCount: 2
Fore
SplineSet
-262 1114 m 1,0,-1
 -1688 1114 l 1,1,-1
 -1622 1237 l 1,2,-1
 -205 1237 l 1,3,-1
 -262 1114 l 1,0,-1
EndSplineSet
EndChar

StartChar: bar
Encoding: 124 124 95
Width: 2
Flags: W
LayerCount: 2
Fore
SplineSet
-678 -459 m 0,0,1
 -662 -497 -662 -497 -662 -528 c 0,2,3
 -662 -603 -662 -603 -723 -654 c 128,-1,4
 -784 -705 -784 -705 -868 -705 c 0,5,6
 -876 -705 -876 -705 -911 -700 c 0,7,8
 -977 -688 -977 -688 -1021 -638.5 c 128,-1,9
 -1065 -589 -1065 -589 -1065 -512 c 0,10,11
 -1065 -462 -1065 -462 -1042 -399 c 0,12,13
 -1014 -320 -1014 -320 -923.5 -235 c 128,-1,14
 -833 -150 -833 -150 -721 -79 c 128,-1,15
 -609 -8 -609 -8 -510 39 c 1,16,-1
 -469 18 l 1,17,18
 -515 -13 -515 -13 -604 -71 c 128,-1,19
 -693 -129 -693 -129 -757 -182 c 128,-1,20
 -821 -235 -821 -235 -865.5 -300 c 128,-1,21
 -910 -365 -910 -365 -915 -438 c 0,22,23
 -915 -491 -915 -491 -893 -522 c 128,-1,24
 -871 -553 -871 -553 -834 -553 c 0,25,26
 -772 -553 -772 -553 -725 -471 c 0,27,28
 -709 -442 -709 -442 -696 -442 c 0,29,30
 -688 -442 -688 -442 -678 -459 c 0,0,1
EndSplineSet
EndChar

StartChar: braceright
Encoding: 125 125 96
Width: 2
Flags: W
LayerCount: 2
Fore
SplineSet
-289 -408 m 1,0,-1
 -213 -410 l 1,1,2
 -213 -481 -213 -481 -248 -537 c 0,3,4
 -281 -590 -281 -590 -319 -598 c 1,5,6
 -352 -618 -352 -618 -401 -618 c 0,7,8
 -459 -616 -459 -616 -516 -596 c 0,9,10
 -575 -573 -575 -573 -602 -541 c 0,11,12
 -637 -494 -637 -494 -637 -422 c 0,13,14
 -637 -358 -637 -358 -606 -311 c 1,15,16
 -580 -250 -580 -250 -489.5 -162 c 128,-1,17
 -399 -74 -399 -74 -332 -45 c 1,18,-1
 -287 -74 l 1,19,20
 -391 -154 -391 -154 -451 -229 c 0,21,22
 -510 -303 -510 -303 -524 -385 c 1,23,24
 -524 -412 -524 -412 -516 -428 c 0,25,26
 -510 -449 -510 -449 -498 -461 c 0,27,28
 -485 -473 -485 -473 -469 -483 c 0,29,30
 -451 -494 -451 -494 -446 -496 c 0,31,32
 -432 -504 -432 -504 -408 -504 c 0,33,34
 -369 -504 -369 -504 -334 -479.5 c 128,-1,35
 -299 -455 -299 -455 -289 -408 c 1,0,-1
EndSplineSet
EndChar

StartChar: asciitilde
Encoding: 126 126 97
Width: 614
Flags: W
LayerCount: 2
Fore
SplineSet
451 709 m 0,0,1
 440 641 440 641 436 522 c 0,2,3
 432 362 432 362 432 272 c 0,4,5
 432 109 432 109 434 -78 c 0,6,7
 438 -262 438 -262 444 -463 c 0,8,9
 453 -666 453 -666 457 -778 c 1,10,11
 426 -854 426 -854 348 -913 c 0,12,13
 268 -975 268 -975 152 -1001 c 1,14,15
 119 -1001 119 -1001 119 -989 c 256,16,17
 119 -977 119 -977 131 -954 c 1,18,19
 199 -731 199 -731 227 -455 c 0,20,21
 254 -176 254 -176 254 0 c 2,22,-1
 254 49 l 2,23,24
 254 302 254 302 220.5 470 c 128,-1,25
 187 638 187 638 117 768 c 1,26,27
 193 795 193 795 266 850 c 0,28,29
 342 903 342 903 397 971 c 1,30,31
 422 993 422 993 432 993 c 0,32,33
 463 993 463 993 463 889 c 0,34,35
 463 823 463 823 451 709 c 0,0,1
EndSplineSet
EndChar

StartChar: u0080
Encoding: 128 128 98
Width: 1331
Flags: W
LayerCount: 2
Fore
SplineSet
852 307 m 1,0,1
 820 186 820 186 768.5 127 c 128,-1,2
 717 68 717 68 662 68 c 0,3,4
 597 68 597 68 543.5 136 c 128,-1,5
 490 204 490 204 475 307 c 1,6,7
 365 428 365 428 365 522 c 0,8,9
 365 576 365 576 403 615 c 128,-1,10
 441 654 441 654 503 673 c 128,-1,11
 565 692 565 692 637 692 c 0,12,13
 720 692 720 692 792.5 669.5 c 128,-1,14
 865 647 865 647 911.5 603.5 c 128,-1,15
 958 560 958 560 958 500 c 0,16,17
 958 410 958 410 852 307 c 1,0,1
561 541 m 0,18,19
 531 540 531 540 514.5 523.5 c 128,-1,20
 498 507 498 507 498 483 c 0,21,22
 498 463 498 463 513 448 c 0,23,24
 526 434 526 434 549 434 c 0,25,26
 551 434 551 434 553 434 c 0,27,28
 586 435 586 435 604.5 452 c 128,-1,29
 623 469 623 469 623 489 c 256,30,31
 623 509 623 509 607 523.5 c 128,-1,32
 591 538 591 538 561 541 c 0,18,19
762 537 m 0,33,34
 732 536 732 536 715 519.5 c 128,-1,35
 698 503 698 503 698 479 c 0,36,37
 698 459 698 459 713 444 c 0,38,39
 727 430 727 430 750 430 c 0,40,41
 752 430 752 430 754 430 c 0,42,43
 788 431 788 431 805.5 447.5 c 128,-1,44
 823 464 823 464 823 485 c 0,45,46
 823 503 823 503 806.5 518.5 c 128,-1,47
 790 534 790 534 762 537 c 0,33,34
659 406 m 0,48,49
 630 405 630 405 613 388 c 128,-1,50
 596 371 596 371 596 348 c 0,51,52
 596 328 596 328 611 313 c 0,53,54
 624 299 624 299 647 299 c 0,55,56
 649 299 649 299 651 299 c 0,57,58
 684 300 684 300 702.5 317 c 128,-1,59
 721 334 721 334 721 354 c 0,60,61
 721 372 721 372 704 387.5 c 128,-1,62
 687 403 687 403 659 406 c 0,48,49
53 705 m 1,63,-1
 90 762 l 1,64,65
 93 793 93 793 108.5 811 c 128,-1,66
 124 829 124 829 143 829 c 0,67,68
 188 829 188 829 188 750 c 1,69,-1
 385 655 l 1,70,71
 324 628 324 628 324 553 c 1,72,-1
 131 647 l 1,73,74
 97 614 97 614 66 614 c 0,75,76
 47 614 47 614 36 625 c 128,-1,77
 25 636 25 636 25 653 c 0,78,79
 25 681 25 681 53 705 c 1,63,-1
1198 788 m 1,80,-1
 1229 727 l 1,81,82
 1266 701 1266 701 1266 670 c 0,83,84
 1266 651 1266 651 1253 638 c 128,-1,85
 1240 625 1240 625 1221 625 c 0,86,87
 1195 625 1195 625 1169 647 c 1,88,-1
 989 524 l 1,89,90
 989 567 989 567 975.5 590 c 128,-1,91
 962 613 962 613 932 629 c 1,92,-1
 1110 750 l 1,93,94
 1106 762 1106 762 1106 784 c 0,95,96
 1106 813 1106 813 1118.5 828.5 c 128,-1,97
 1131 844 1131 844 1149 844 c 0,98,99
 1165 844 1165 844 1179.5 829.5 c 128,-1,100
 1194 815 1194 815 1198 788 c 1,80,-1
438 266 m 1,101,-1
 229 135 l 1,102,103
 233 123 233 123 233 100 c 0,104,105
 233 72 233 72 220.5 56.5 c 128,-1,106
 208 41 208 41 190 41 c 0,107,108
 150 41 150 41 141 96 c 1,109,-1
 111 158 l 1,110,111
 74 183 74 183 74 215 c 0,112,113
 74 233 74 233 86.5 246.5 c 128,-1,114
 99 260 99 260 119 260 c 0,115,116
 145 260 145 260 170 238 c 1,117,-1
 367 365 l 1,118,-1
 438 266 l 1,101,-1
958 375 m 1,119,-1
 1153 258 l 1,120,121
 1185 285 1185 285 1217 285 c 0,122,123
 1237 285 1237 285 1248.5 274.5 c 128,-1,124
 1260 264 1260 264 1260 246 c 0,125,126
 1260 219 1260 219 1227 195 c 1,127,-1
 1184 141 l 1,128,129
 1180 110 1180 110 1163 95 c 128,-1,130
 1146 80 1146 80 1128 80 c 0,131,132
 1112 80 1112 80 1097.5 94.5 c 128,-1,133
 1083 109 1083 109 1083 133 c 0,134,135
 1083 152 1083 152 1087 162 c 1,136,-1
 881 283 l 1,137,-1
 958 375 l 1,119,-1
EndSplineSet
EndChar

StartChar: u0081
Encoding: 129 129 99
Width: 1331
Flags: W
LayerCount: 2
Fore
SplineSet
852 307 m 1,0,1
 820 186 820 186 768.5 127 c 128,-1,2
 717 68 717 68 662 68 c 0,3,4
 597 68 597 68 543.5 136 c 128,-1,5
 490 204 490 204 475 307 c 1,6,7
 365 428 365 428 365 522 c 0,8,9
 365 576 365 576 403 615 c 128,-1,10
 441 654 441 654 503 673 c 128,-1,11
 565 692 565 692 637 692 c 0,12,13
 720 692 720 692 792.5 669.5 c 128,-1,14
 865 647 865 647 911.5 603.5 c 128,-1,15
 958 560 958 560 958 500 c 0,16,17
 958 410 958 410 852 307 c 1,0,1
561 541 m 0,18,19
 531 540 531 540 514.5 523.5 c 128,-1,20
 498 507 498 507 498 483 c 0,21,22
 498 463 498 463 513 448 c 0,23,24
 526 434 526 434 549 434 c 0,25,26
 551 434 551 434 553 434 c 0,27,28
 586 435 586 435 604.5 452 c 128,-1,29
 623 469 623 469 623 489 c 256,30,31
 623 509 623 509 607 523.5 c 128,-1,32
 591 538 591 538 561 541 c 0,18,19
762 537 m 0,33,34
 732 536 732 536 715 519.5 c 128,-1,35
 698 503 698 503 698 479 c 0,36,37
 698 459 698 459 713 444 c 0,38,39
 727 430 727 430 750 430 c 0,40,41
 752 430 752 430 754 430 c 0,42,43
 788 431 788 431 805.5 447.5 c 128,-1,44
 823 464 823 464 823 485 c 0,45,46
 823 503 823 503 806.5 518.5 c 128,-1,47
 790 534 790 534 762 537 c 0,33,34
659 406 m 0,48,49
 630 405 630 405 613 388 c 128,-1,50
 596 371 596 371 596 348 c 0,51,52
 596 328 596 328 611 313 c 0,53,54
 624 299 624 299 647 299 c 0,55,56
 649 299 649 299 651 299 c 0,57,58
 684 300 684 300 702.5 317 c 128,-1,59
 721 334 721 334 721 354 c 0,60,61
 721 372 721 372 704 387.5 c 128,-1,62
 687 403 687 403 659 406 c 0,48,49
53 705 m 1,63,-1
 90 762 l 1,64,65
 93 793 93 793 108.5 811 c 128,-1,66
 124 829 124 829 143 829 c 0,67,68
 188 829 188 829 188 750 c 1,69,-1
 385 655 l 1,70,71
 324 628 324 628 324 553 c 1,72,-1
 131 647 l 1,73,74
 97 614 97 614 66 614 c 0,75,76
 47 614 47 614 36 625 c 128,-1,77
 25 636 25 636 25 653 c 0,78,79
 25 681 25 681 53 705 c 1,63,-1
1198 788 m 1,80,-1
 1229 727 l 1,81,82
 1266 701 1266 701 1266 670 c 0,83,84
 1266 651 1266 651 1253 638 c 128,-1,85
 1240 625 1240 625 1221 625 c 0,86,87
 1195 625 1195 625 1169 647 c 1,88,-1
 989 524 l 1,89,90
 989 567 989 567 975.5 590 c 128,-1,91
 962 613 962 613 932 629 c 1,92,-1
 1110 750 l 1,93,94
 1106 762 1106 762 1106 784 c 0,95,96
 1106 813 1106 813 1118.5 828.5 c 128,-1,97
 1131 844 1131 844 1149 844 c 0,98,99
 1165 844 1165 844 1179.5 829.5 c 128,-1,100
 1194 815 1194 815 1198 788 c 1,80,-1
438 266 m 1,101,-1
 229 135 l 1,102,103
 233 123 233 123 233 100 c 0,104,105
 233 72 233 72 220.5 56.5 c 128,-1,106
 208 41 208 41 190 41 c 0,107,108
 150 41 150 41 141 96 c 1,109,-1
 111 158 l 1,110,111
 74 183 74 183 74 215 c 0,112,113
 74 233 74 233 86.5 246.5 c 128,-1,114
 99 260 99 260 119 260 c 0,115,116
 145 260 145 260 170 238 c 1,117,-1
 367 365 l 1,118,-1
 438 266 l 1,101,-1
958 375 m 1,119,-1
 1153 258 l 1,120,121
 1185 285 1185 285 1217 285 c 0,122,123
 1237 285 1237 285 1248.5 274.5 c 128,-1,124
 1260 264 1260 264 1260 246 c 0,125,126
 1260 219 1260 219 1227 195 c 1,127,-1
 1184 141 l 1,128,129
 1180 110 1180 110 1163 95 c 128,-1,130
 1146 80 1146 80 1128 80 c 0,131,132
 1112 80 1112 80 1097.5 94.5 c 128,-1,133
 1083 109 1083 109 1083 133 c 0,134,135
 1083 152 1083 152 1087 162 c 1,136,-1
 881 283 l 1,137,-1
 958 375 l 1,119,-1
EndSplineSet
EndChar

StartChar: quotesinglbase
Encoding: 8218 8218 100
Width: 2
Flags: W
LayerCount: 2
Fore
SplineSet
-1047 141 m 2,0,1
 -1058 133 -1058 133 -1069 133 c 0,2,3
 -1090 133 -1090 133 -1090 152 c 0,4,5
 -1090 162 -1090 162 -1081 174 c 2,6,-1
 -776 467 l 2,7,8
 -746 497 -746 497 -713 518 c 0,9,10
 -680 535 -680 535 -662 535 c 0,11,12
 -638 535 -638 535 -621 518 c 0,13,14
 -608 502 -608 502 -608 475 c 0,15,16
 -608 461 -608 461 -614 453 c 128,-1,17
 -620 445 -620 445 -637 426 c 0,18,19
 -653 408 -653 408 -698 379 c 2,20,-1
 -1047 141 l 2,0,1
-872 -29 m 2,21,22
 -884 -37 -884 -37 -895 -37 c 0,23,24
 -915 -37 -915 -37 -915 -18 c 0,25,26
 -915 -7 -915 -7 -907 4 c 2,27,-1
 -602 297 l 2,28,29
 -572 327 -572 327 -539 348 c 0,30,31
 -506 365 -506 365 -487 365 c 0,32,33
 -464 365 -464 365 -446 348 c 0,34,35
 -434 332 -434 332 -434 305 c 0,36,37
 -434 287 -434 287 -463 256 c 0,38,39
 -479 238 -479 238 -524 209 c 2,40,-1
 -872 -29 l 2,21,22
EndSplineSet
EndChar

StartChar: florin
Encoding: 402 402 101
Width: 2
Flags: W
LayerCount: 2
Fore
SplineSet
-1262 -629 m 2,0,1
 -1273 -637 -1273 -637 -1284 -637 c 0,2,3
 -1305 -637 -1305 -637 -1305 -618 c 0,4,5
 -1305 -606 -1305 -606 -1296 -596 c 2,6,-1
 -991 -303 l 2,7,8
 -961 -273 -961 -273 -928 -252 c 0,9,10
 -897 -236 -897 -236 -877 -236 c 0,11,12
 -852 -236 -852 -236 -836 -252 c 0,13,14
 -823 -268 -823 -268 -823 -295 c 0,15,16
 -823 -309 -823 -309 -829 -317 c 128,-1,17
 -835 -325 -835 -325 -852 -344 c 0,18,19
 -868 -362 -868 -362 -913 -391 c 2,20,-1
 -1262 -629 l 2,0,1
-1079 -750 m 2,21,22
 -1090 -758 -1090 -758 -1102 -758 c 0,23,24
 -1122 -758 -1122 -758 -1122 -739 c 0,25,26
 -1122 -728 -1122 -728 -1114 -717 c 2,27,-1
 -809 -424 l 2,28,29
 -778 -393 -778 -393 -745 -373 c 0,30,31
 -716 -356 -716 -356 -694 -356 c 0,32,33
 -670 -356 -670 -356 -653 -373 c 0,34,35
 -641 -389 -641 -389 -641 -416 c 0,36,37
 -641 -433 -641 -433 -670 -465 c 0,38,39
 -686 -483 -686 -483 -731 -512 c 2,40,-1
 -1079 -750 l 2,21,22
EndSplineSet
EndChar

StartChar: quotedblbase
Encoding: 8222 8222 102
Width: 2
Flags: W
LayerCount: 2
Fore
SplineSet
-911 -633 m 2,0,1
 -923 -641 -923 -641 -934 -641 c 0,2,3
 -954 -641 -954 -641 -954 -623 c 0,4,5
 -954 -611 -954 -611 -946 -600 c 2,6,-1
 -641 -307 l 2,7,8
 -611 -277 -611 -277 -578 -256 c 0,9,10
 -547 -240 -547 -240 -526 -240 c 0,11,12
 -502 -240 -502 -240 -485 -256 c 0,13,14
 -473 -272 -473 -272 -473 -299 c 0,15,16
 -473 -317 -473 -317 -502 -348 c 0,17,18
 -518 -367 -518 -367 -563 -395 c 2,19,-1
 -911 -633 l 2,0,1
-729 -754 m 2,20,21
 -740 -762 -740 -762 -752 -762 c 0,22,23
 -772 -762 -772 -762 -772 -743 c 0,24,25
 -772 -732 -772 -732 -764 -721 c 2,26,-1
 -459 -428 l 2,27,28
 -424 -395 -424 -395 -395 -377 c 0,29,30
 -364 -360 -364 -360 -344 -360 c 0,31,32
 -319 -360 -319 -360 -303 -377 c 0,33,34
 -291 -393 -291 -393 -291 -420 c 0,35,36
 -291 -437 -291 -437 -319 -469 c 0,37,38
 -336 -487 -336 -487 -381 -516 c 2,39,-1
 -729 -754 l 2,20,21
EndSplineSet
EndChar

StartChar: ellipsis
Encoding: 8230 8230 103
Width: 2
Flags: W
LayerCount: 2
Fore
SplineSet
-651 -641 m 2,0,1
 -662 -649 -662 -649 -674 -649 c 0,2,3
 -694 -649 -694 -649 -694 -631 c 0,4,5
 -694 -619 -694 -619 -686 -608 c 2,6,-1
 -381 -315 l 2,7,8
 -350 -286 -350 -286 -317 -264 c 0,9,10
 -288 -248 -288 -248 -266 -248 c 0,11,12
 -242 -248 -242 -248 -225 -264 c 1,13,14
 -213 -281 -213 -281 -213 -307 c 0,15,16
 -213 -320 -213 -320 -219.5 -330 c 128,-1,17
 -226 -340 -226 -340 -242 -356 c 0,18,19
 -258 -375 -258 -375 -303 -403 c 2,20,-1
 -651 -641 l 2,0,1
-469 -762 m 2,21,22
 -480 -770 -480 -770 -492 -770 c 0,23,24
 -512 -770 -512 -770 -512 -752 c 0,25,26
 -512 -740 -512 -740 -504 -729 c 2,27,-1
 -199 -436 l 2,28,29
 -164 -403 -164 -403 -135 -385 c 0,30,31
 -106 -369 -106 -369 -84 -369 c 0,32,33
 -59 -369 -59 -369 -43 -385 c 0,34,35
 -31 -401 -31 -401 -31 -428 c 0,36,37
 -31 -441 -31 -441 -36 -449 c 128,-1,38
 -41 -457 -41 -457 -59 -477 c 0,39,40
 -76 -496 -76 -496 -121 -524 c 2,41,-1
 -469 -762 l 2,21,22
EndSplineSet
EndChar

StartChar: dagger
Encoding: 8224 8224 104
Width: 2
Flags: W
LayerCount: 2
Fore
SplineSet
-532 -629 m 2,0,1
 -546 -639 -546 -639 -559 -639 c 0,2,3
 -578 -639 -578 -639 -578 -621 c 0,4,5
 -578 -614 -578 -614 -571 -600 c 2,6,-1
 -319 -305 l 2,7,8
 -298 -279 -298 -279 -260 -250 c 0,9,10
 -233 -231 -233 -231 -211 -229 c 0,11,12
 -184 -229 -184 -229 -168 -242 c 1,13,14
 -156 -257 -156 -257 -152 -283 c 0,15,16
 -152 -301 -152 -301 -176 -334 c 0,17,18
 -190 -354 -190 -354 -233 -387 c 2,19,-1
 -532 -629 l 2,0,1
-391 -782 m 2,20,21
 -401 -793 -401 -793 -416 -793 c 0,22,23
 -434 -793 -434 -793 -434 -774 c 0,24,25
 -434 -766 -434 -766 -428 -754 c 2,26,-1
 -168 -457 l 2,27,28
 -142 -426 -142 -426 -109 -401 c 0,29,30
 -82 -383 -82 -383 -59 -381 c 0,31,32
 -33 -381 -33 -381 -16 -393 c 1,33,34
 -2 -410 -2 -410 -2 -434 c 0,35,36
 -2 -459 -2 -459 -27 -485 c 1,37,38
 -41 -506 -41 -506 -82 -539 c 2,39,-1
 -391 -782 l 2,20,21
EndSplineSet
EndChar

StartChar: daggerdbl
Encoding: 8225 8225 105
Width: 1280
Flags: W
LayerCount: 2
Fore
SplineSet
561 -20 m 0,0,1
 530 -19 530 -19 504.5 -14.5 c 128,-1,2
 479 -10 479 -10 453 -4.5 c 128,-1,3
 427 1 427 1 390 12 c 128,-1,4
 353 23 353 23 344 25 c 0,5,6
 252 53 252 53 178 102 c 0,7,8
 106 154 106 154 70 225 c 0,9,10
 33 297 33 297 33 393 c 0,11,12
 33 451 33 451 66 586 c 0,13,14
 82 655 82 655 125 719 c 0,15,16
 173 787 173 787 250 831 c 0,17,18
 321 872 321 872 430 905 c 0,19,20
 512 930 512 930 635 930 c 0,21,22
 795 930 795 930 924 907 c 0,23,24
 940 903 940 903 963 901 c 0,25,26
 983 897 983 897 999 893 c 0,27,28
 1014 887 1014 887 1030 877 c 0,29,30
 1159 799 1159 799 1159 723 c 0,31,32
 1159 702 1159 702 1155 692 c 0,33,34
 1139 639 1139 639 1087 602 c 0,35,36
 1036 567 1036 567 983 567 c 0,37,38
 938 567 938 567 907 590 c 1,39,40
 897 621 897 621 888 653.5 c 128,-1,41
 879 686 879 686 856 709 c 0,42,43
 834 734 834 734 793 762 c 128,-1,44
 752 790 752 790 729 795 c 0,45,46
 666 815 666 815 520 815 c 0,47,48
 473 815 473 815 427.5 795 c 128,-1,49
 382 775 382 775 352 743 c 0,50,51
 326 712 326 712 310.5 649.5 c 128,-1,52
 295 587 295 587 295 528 c 0,53,54
 295 515 295 515 297 502 c 128,-1,55
 299 489 299 489 302.5 476 c 128,-1,56
 306 463 306 463 307 451 c 0,57,58
 312 426 312 426 325.5 389 c 128,-1,59
 339 352 339 352 360 319 c 0,60,61
 392 268 392 268 455 205 c 0,62,63
 510 150 510 150 582 115 c 0,64,65
 644 85 644 85 699.5 71 c 128,-1,66
 755 57 755 57 827 57 c 0,67,68
 856 57 856 57 890 64 c 128,-1,69
 924 71 924 71 950.5 79.5 c 128,-1,70
 977 88 977 88 1004 98 c 0,71,72
 1021 101 1021 101 1075.5 144.5 c 128,-1,73
 1130 188 1130 188 1139 193 c 1,74,75
 1139 215 1139 215 1155 234 c 128,-1,76
 1171 253 1171 253 1171 266 c 1,77,78
 1168 265 1168 265 1167.5 264 c 128,-1,79
 1167 263 1167 263 1167 262 c 1,80,81
 1169 262 1169 262 1219.5 294.5 c 128,-1,82
 1270 327 1270 327 1270 328 c 1,83,84
 1270 328 1270 328 1270 328 c 1,85,86
 1270 301 1270 301 1270 278 c 0,87,88
 1270 254 1270 254 1271 214 c 0,89,90
 1271 174 1271 174 1272 154 c 1,91,92
 1249 17 1249 17 1211.5 -129.5 c 128,-1,93
 1174 -276 1174 -276 1147 -291 c 0,94,95
 1101 -316 1101 -316 1026 -330 c 1,96,97
 1001 -330 1001 -330 1001 -324 c 0,98,99
 1001 -317 1001 -317 1012 -305 c 1,100,101
 1048 -212 1048 -212 1063.5 -155.5 c 128,-1,102
 1079 -99 1079 -99 1088.5 -43 c 128,-1,103
 1098 13 1098 13 1102 29 c 1,104,105
 992 -14 992 -14 850 -20 c 0,106,107
 801 -25 801 -25 707 -25 c 0,108,109
 612 -25 612 -25 561 -20 c 0,0,1
EndSplineSet
EndChar

StartChar: circumflex
Encoding: 710 710 106
Width: 573
Flags: W
LayerCount: 2
Fore
SplineSet
389 838 m 256,0,1
 389 795 389 795 358 764 c 0,2,3
 326 731 326 731 283 731 c 0,4,5
 242 731 242 731 209 764 c 128,-1,6
 176 797 176 797 176 838 c 256,7,8
 176 879 176 879 209 911 c 0,9,10
 242 944 242 944 283 944 c 0,11,12
 326 944 326 944 357.5 912.5 c 128,-1,13
 389 881 389 881 389 838 c 256,0,1
379 106 m 0,14,15
 379 63 379 63 348 33 c 0,16,17
 315 0 315 0 272 0 c 0,18,19
 231 0 231 0 198.5 33 c 128,-1,20
 166 66 166 66 166 106 c 0,21,22
 166 147 166 147 198.5 180 c 128,-1,23
 231 213 231 213 272 213 c 0,24,25
 315 213 315 213 348 182 c 0,26,27
 379 150 379 150 379 106 c 0,14,15
389 479 m 256,28,29
 389 436 389 436 358 406 c 0,30,31
 326 373 326 373 283 373 c 0,32,33
 242 373 242 373 209 405.5 c 128,-1,34
 176 438 176 438 176 479 c 256,35,36
 176 520 176 520 209 553 c 128,-1,37
 242 586 242 586 283 586 c 0,38,39
 326 586 326 586 358 555 c 0,40,41
 389 522 389 522 389 479 c 256,28,29
EndSplineSet
EndChar

StartChar: perthousand
Encoding: 8240 8240 107
Width: 2
Flags: W
LayerCount: 2
Fore
SplineSet
-1171 -686 m 2,0,1
 -1183 -694 -1183 -694 -1194 -694 c 0,2,3
 -1214 -694 -1214 -694 -1214 -676 c 0,4,5
 -1214 -665 -1214 -665 -1206 -653 c 2,6,-1
 -901 -360 l 2,7,8
 -876 -335 -876 -335 -838 -309 c 1,9,10
 -807 -293 -807 -293 -786 -293 c 0,11,12
 -762 -293 -762 -293 -745 -309 c 1,13,14
 -733 -326 -733 -326 -733 -352 c 0,15,16
 -733 -365 -733 -365 -739.5 -375 c 128,-1,17
 -746 -385 -746 -385 -762 -401 c 0,18,19
 -778 -420 -778 -420 -823 -449 c 2,20,-1
 -1171 -686 l 2,0,1
EndSplineSet
EndChar

StartChar: Scaron
Encoding: 352 352 108
Width: 2
Flags: W
LayerCount: 2
Fore
SplineSet
-813 -686 m 2,0,1
 -824 -694 -824 -694 -836 -694 c 0,2,3
 -856 -694 -856 -694 -856 -676 c 0,4,5
 -856 -665 -856 -665 -848 -653 c 2,6,-1
 -543 -360 l 2,7,8
 -512 -331 -512 -331 -479 -309 c 0,9,10
 -450 -293 -450 -293 -428 -293 c 0,11,12
 -403 -293 -403 -293 -387 -309 c 0,13,14
 -375 -326 -375 -326 -375 -352 c 0,15,16
 -375 -365 -375 -365 -380 -373 c 128,-1,17
 -385 -381 -385 -381 -403 -401 c 0,18,19
 -420 -420 -420 -420 -465 -449 c 2,20,-1
 -813 -686 l 2,0,1
EndSplineSet
EndChar

StartChar: guilsinglleft
Encoding: 8249 8249 109
Width: 2
Flags: W
LayerCount: 2
Fore
SplineSet
-549 -694 m 2,0,1
 -560 -702 -560 -702 -571 -702 c 0,2,3
 -592 -702 -592 -702 -592 -684 c 0,4,5
 -592 -673 -592 -673 -584 -662 c 2,6,-1
 -279 -369 l 2,7,8
 -250 -340 -250 -340 -215 -317 c 0,9,10
 -186 -301 -186 -301 -164 -301 c 0,11,12
 -139 -301 -139 -301 -123 -317 c 0,13,14
 -111 -334 -111 -334 -111 -360 c 0,15,16
 -111 -371 -111 -371 -114 -378 c 128,-1,17
 -117 -385 -117 -385 -123 -391.5 c 128,-1,18
 -129 -398 -129 -398 -139 -410 c 0,19,20
 -156 -428 -156 -428 -201 -457 c 2,21,-1
 -549 -694 l 2,0,1
EndSplineSet
EndChar

StartChar: OE
Encoding: 338 338 110
Width: 682
Flags: W
LayerCount: 2
Fore
SplineSet
492 -496 m 1,0,1
 553 -549 553 -549 582.5 -597 c 128,-1,2
 612 -645 612 -645 612 -680 c 0,3,4
 612 -712 612 -712 591.5 -728.5 c 128,-1,5
 571 -745 571 -745 539 -745 c 0,6,7
 450 -745 450 -745 369 -651 c 0,8,9
 294 -567 294 -567 237.5 -462 c 128,-1,10
 181 -357 181 -357 145 -239 c 128,-1,11
 109 -121 109 -121 91.5 7.5 c 128,-1,12
 74 136 74 136 74 262 c 0,13,14
 74 459 74 459 113.5 659 c 128,-1,15
 153 859 153 859 227.5 1031.5 c 128,-1,16
 302 1204 302 1204 405.5 1331 c 128,-1,17
 509 1458 509 1458 637 1524 c 1,18,-1
 637 1483 l 1,19,20
 539 1414 539 1414 461 1301 c 128,-1,21
 383 1188 383 1188 332.5 1050 c 128,-1,22
 282 912 282 912 255.5 750.5 c 128,-1,23
 229 589 229 589 229 428 c 0,24,25
 229 256 229 256 258.5 85 c 128,-1,26
 288 -86 288 -86 347 -235 c 128,-1,27
 406 -384 406 -384 492 -496 c 1,0,1
EndSplineSet
EndChar

StartChar: u008D
Encoding: 141 141 111
Width: 1331
Flags: W
LayerCount: 2
Fore
SplineSet
852 307 m 1,0,1
 820 186 820 186 768.5 127 c 128,-1,2
 717 68 717 68 662 68 c 0,3,4
 597 68 597 68 543.5 136 c 128,-1,5
 490 204 490 204 475 307 c 1,6,7
 365 428 365 428 365 522 c 0,8,9
 365 576 365 576 403 615 c 128,-1,10
 441 654 441 654 503 673 c 128,-1,11
 565 692 565 692 637 692 c 0,12,13
 720 692 720 692 792.5 669.5 c 128,-1,14
 865 647 865 647 911.5 603.5 c 128,-1,15
 958 560 958 560 958 500 c 0,16,17
 958 410 958 410 852 307 c 1,0,1
561 541 m 0,18,19
 531 540 531 540 514.5 523.5 c 128,-1,20
 498 507 498 507 498 483 c 0,21,22
 498 463 498 463 513 448 c 0,23,24
 526 434 526 434 549 434 c 0,25,26
 551 434 551 434 553 434 c 0,27,28
 586 435 586 435 604.5 452 c 128,-1,29
 623 469 623 469 623 489 c 256,30,31
 623 509 623 509 607 523.5 c 128,-1,32
 591 538 591 538 561 541 c 0,18,19
762 537 m 0,33,34
 732 536 732 536 715 519.5 c 128,-1,35
 698 503 698 503 698 479 c 0,36,37
 698 459 698 459 713 444 c 0,38,39
 727 430 727 430 750 430 c 0,40,41
 752 430 752 430 754 430 c 0,42,43
 788 431 788 431 805.5 447.5 c 128,-1,44
 823 464 823 464 823 485 c 0,45,46
 823 503 823 503 806.5 518.5 c 128,-1,47
 790 534 790 534 762 537 c 0,33,34
659 406 m 0,48,49
 630 405 630 405 613 388 c 128,-1,50
 596 371 596 371 596 348 c 0,51,52
 596 328 596 328 611 313 c 0,53,54
 624 299 624 299 647 299 c 0,55,56
 649 299 649 299 651 299 c 0,57,58
 684 300 684 300 702.5 317 c 128,-1,59
 721 334 721 334 721 354 c 0,60,61
 721 372 721 372 704 387.5 c 128,-1,62
 687 403 687 403 659 406 c 0,48,49
53 705 m 1,63,-1
 90 762 l 1,64,65
 93 793 93 793 108.5 811 c 128,-1,66
 124 829 124 829 143 829 c 0,67,68
 188 829 188 829 188 750 c 1,69,-1
 385 655 l 1,70,71
 324 628 324 628 324 553 c 1,72,-1
 131 647 l 1,73,74
 97 614 97 614 66 614 c 0,75,76
 47 614 47 614 36 625 c 128,-1,77
 25 636 25 636 25 653 c 0,78,79
 25 681 25 681 53 705 c 1,63,-1
1198 788 m 1,80,-1
 1229 727 l 1,81,82
 1266 701 1266 701 1266 670 c 0,83,84
 1266 651 1266 651 1253 638 c 128,-1,85
 1240 625 1240 625 1221 625 c 0,86,87
 1195 625 1195 625 1169 647 c 1,88,-1
 989 524 l 1,89,90
 989 567 989 567 975.5 590 c 128,-1,91
 962 613 962 613 932 629 c 1,92,-1
 1110 750 l 1,93,94
 1106 762 1106 762 1106 784 c 0,95,96
 1106 813 1106 813 1118.5 828.5 c 128,-1,97
 1131 844 1131 844 1149 844 c 0,98,99
 1165 844 1165 844 1179.5 829.5 c 128,-1,100
 1194 815 1194 815 1198 788 c 1,80,-1
438 266 m 1,101,-1
 229 135 l 1,102,103
 233 123 233 123 233 100 c 0,104,105
 233 72 233 72 220.5 56.5 c 128,-1,106
 208 41 208 41 190 41 c 0,107,108
 150 41 150 41 141 96 c 1,109,-1
 111 158 l 1,110,111
 74 183 74 183 74 215 c 0,112,113
 74 233 74 233 86.5 246.5 c 128,-1,114
 99 260 99 260 119 260 c 0,115,116
 145 260 145 260 170 238 c 1,117,-1
 367 365 l 1,118,-1
 438 266 l 1,101,-1
958 375 m 1,119,-1
 1153 258 l 1,120,121
 1185 285 1185 285 1217 285 c 0,122,123
 1237 285 1237 285 1248.5 274.5 c 128,-1,124
 1260 264 1260 264 1260 246 c 0,125,126
 1260 219 1260 219 1227 195 c 1,127,-1
 1184 141 l 1,128,129
 1180 110 1180 110 1163 95 c 128,-1,130
 1146 80 1146 80 1128 80 c 0,131,132
 1112 80 1112 80 1097.5 94.5 c 128,-1,133
 1083 109 1083 109 1083 133 c 0,134,135
 1083 152 1083 152 1087 162 c 1,136,-1
 881 283 l 1,137,-1
 958 375 l 1,119,-1
EndSplineSet
EndChar

StartChar: u008E
Encoding: 142 142 112
Width: 1331
Flags: W
LayerCount: 2
Fore
SplineSet
852 307 m 1,0,1
 820 186 820 186 768.5 127 c 128,-1,2
 717 68 717 68 662 68 c 0,3,4
 597 68 597 68 543.5 136 c 128,-1,5
 490 204 490 204 475 307 c 1,6,7
 365 428 365 428 365 522 c 0,8,9
 365 576 365 576 403 615 c 128,-1,10
 441 654 441 654 503 673 c 128,-1,11
 565 692 565 692 637 692 c 0,12,13
 720 692 720 692 792.5 669.5 c 128,-1,14
 865 647 865 647 911.5 603.5 c 128,-1,15
 958 560 958 560 958 500 c 0,16,17
 958 410 958 410 852 307 c 1,0,1
561 541 m 0,18,19
 531 540 531 540 514.5 523.5 c 128,-1,20
 498 507 498 507 498 483 c 0,21,22
 498 463 498 463 513 448 c 0,23,24
 526 434 526 434 549 434 c 0,25,26
 551 434 551 434 553 434 c 0,27,28
 586 435 586 435 604.5 452 c 128,-1,29
 623 469 623 469 623 489 c 256,30,31
 623 509 623 509 607 523.5 c 128,-1,32
 591 538 591 538 561 541 c 0,18,19
762 537 m 0,33,34
 732 536 732 536 715 519.5 c 128,-1,35
 698 503 698 503 698 479 c 0,36,37
 698 459 698 459 713 444 c 0,38,39
 727 430 727 430 750 430 c 0,40,41
 752 430 752 430 754 430 c 0,42,43
 788 431 788 431 805.5 447.5 c 128,-1,44
 823 464 823 464 823 485 c 0,45,46
 823 503 823 503 806.5 518.5 c 128,-1,47
 790 534 790 534 762 537 c 0,33,34
659 406 m 0,48,49
 630 405 630 405 613 388 c 128,-1,50
 596 371 596 371 596 348 c 0,51,52
 596 328 596 328 611 313 c 0,53,54
 624 299 624 299 647 299 c 0,55,56
 649 299 649 299 651 299 c 0,57,58
 684 300 684 300 702.5 317 c 128,-1,59
 721 334 721 334 721 354 c 0,60,61
 721 372 721 372 704 387.5 c 128,-1,62
 687 403 687 403 659 406 c 0,48,49
53 705 m 1,63,-1
 90 762 l 1,64,65
 93 793 93 793 108.5 811 c 128,-1,66
 124 829 124 829 143 829 c 0,67,68
 188 829 188 829 188 750 c 1,69,-1
 385 655 l 1,70,71
 324 628 324 628 324 553 c 1,72,-1
 131 647 l 1,73,74
 97 614 97 614 66 614 c 0,75,76
 47 614 47 614 36 625 c 128,-1,77
 25 636 25 636 25 653 c 0,78,79
 25 681 25 681 53 705 c 1,63,-1
1198 788 m 1,80,-1
 1229 727 l 1,81,82
 1266 701 1266 701 1266 670 c 0,83,84
 1266 651 1266 651 1253 638 c 128,-1,85
 1240 625 1240 625 1221 625 c 0,86,87
 1195 625 1195 625 1169 647 c 1,88,-1
 989 524 l 1,89,90
 989 567 989 567 975.5 590 c 128,-1,91
 962 613 962 613 932 629 c 1,92,-1
 1110 750 l 1,93,94
 1106 762 1106 762 1106 784 c 0,95,96
 1106 813 1106 813 1118.5 828.5 c 128,-1,97
 1131 844 1131 844 1149 844 c 0,98,99
 1165 844 1165 844 1179.5 829.5 c 128,-1,100
 1194 815 1194 815 1198 788 c 1,80,-1
438 266 m 1,101,-1
 229 135 l 1,102,103
 233 123 233 123 233 100 c 0,104,105
 233 72 233 72 220.5 56.5 c 128,-1,106
 208 41 208 41 190 41 c 0,107,108
 150 41 150 41 141 96 c 1,109,-1
 111 158 l 1,110,111
 74 183 74 183 74 215 c 0,112,113
 74 233 74 233 86.5 246.5 c 128,-1,114
 99 260 99 260 119 260 c 0,115,116
 145 260 145 260 170 238 c 1,117,-1
 367 365 l 1,118,-1
 438 266 l 1,101,-1
958 375 m 1,119,-1
 1153 258 l 1,120,121
 1185 285 1185 285 1217 285 c 0,122,123
 1237 285 1237 285 1248.5 274.5 c 128,-1,124
 1260 264 1260 264 1260 246 c 0,125,126
 1260 219 1260 219 1227 195 c 1,127,-1
 1184 141 l 1,128,129
 1180 110 1180 110 1163 95 c 128,-1,130
 1146 80 1146 80 1128 80 c 0,131,132
 1112 80 1112 80 1097.5 94.5 c 128,-1,133
 1083 109 1083 109 1083 133 c 0,134,135
 1083 152 1083 152 1087 162 c 1,136,-1
 881 283 l 1,137,-1
 958 375 l 1,119,-1
EndSplineSet
EndChar

StartChar: u008F
Encoding: 143 143 113
Width: 1331
Flags: W
LayerCount: 2
Fore
SplineSet
852 307 m 1,0,1
 820 186 820 186 768.5 127 c 128,-1,2
 717 68 717 68 662 68 c 0,3,4
 597 68 597 68 543.5 136 c 128,-1,5
 490 204 490 204 475 307 c 1,6,7
 365 428 365 428 365 522 c 0,8,9
 365 576 365 576 403 615 c 128,-1,10
 441 654 441 654 503 673 c 128,-1,11
 565 692 565 692 637 692 c 0,12,13
 720 692 720 692 792.5 669.5 c 128,-1,14
 865 647 865 647 911.5 603.5 c 128,-1,15
 958 560 958 560 958 500 c 0,16,17
 958 410 958 410 852 307 c 1,0,1
561 541 m 0,18,19
 531 540 531 540 514.5 523.5 c 128,-1,20
 498 507 498 507 498 483 c 0,21,22
 498 463 498 463 513 448 c 0,23,24
 526 434 526 434 549 434 c 0,25,26
 551 434 551 434 553 434 c 0,27,28
 586 435 586 435 604.5 452 c 128,-1,29
 623 469 623 469 623 489 c 256,30,31
 623 509 623 509 607 523.5 c 128,-1,32
 591 538 591 538 561 541 c 0,18,19
762 537 m 0,33,34
 732 536 732 536 715 519.5 c 128,-1,35
 698 503 698 503 698 479 c 0,36,37
 698 459 698 459 713 444 c 0,38,39
 727 430 727 430 750 430 c 0,40,41
 752 430 752 430 754 430 c 0,42,43
 788 431 788 431 805.5 447.5 c 128,-1,44
 823 464 823 464 823 485 c 0,45,46
 823 503 823 503 806.5 518.5 c 128,-1,47
 790 534 790 534 762 537 c 0,33,34
659 406 m 0,48,49
 630 405 630 405 613 388 c 128,-1,50
 596 371 596 371 596 348 c 0,51,52
 596 328 596 328 611 313 c 0,53,54
 624 299 624 299 647 299 c 0,55,56
 649 299 649 299 651 299 c 0,57,58
 684 300 684 300 702.5 317 c 128,-1,59
 721 334 721 334 721 354 c 0,60,61
 721 372 721 372 704 387.5 c 128,-1,62
 687 403 687 403 659 406 c 0,48,49
53 705 m 1,63,-1
 90 762 l 1,64,65
 93 793 93 793 108.5 811 c 128,-1,66
 124 829 124 829 143 829 c 0,67,68
 188 829 188 829 188 750 c 1,69,-1
 385 655 l 1,70,71
 324 628 324 628 324 553 c 1,72,-1
 131 647 l 1,73,74
 97 614 97 614 66 614 c 0,75,76
 47 614 47 614 36 625 c 128,-1,77
 25 636 25 636 25 653 c 0,78,79
 25 681 25 681 53 705 c 1,63,-1
1198 788 m 1,80,-1
 1229 727 l 1,81,82
 1266 701 1266 701 1266 670 c 0,83,84
 1266 651 1266 651 1253 638 c 128,-1,85
 1240 625 1240 625 1221 625 c 0,86,87
 1195 625 1195 625 1169 647 c 1,88,-1
 989 524 l 1,89,90
 989 567 989 567 975.5 590 c 128,-1,91
 962 613 962 613 932 629 c 1,92,-1
 1110 750 l 1,93,94
 1106 762 1106 762 1106 784 c 0,95,96
 1106 813 1106 813 1118.5 828.5 c 128,-1,97
 1131 844 1131 844 1149 844 c 0,98,99
 1165 844 1165 844 1179.5 829.5 c 128,-1,100
 1194 815 1194 815 1198 788 c 1,80,-1
438 266 m 1,101,-1
 229 135 l 1,102,103
 233 123 233 123 233 100 c 0,104,105
 233 72 233 72 220.5 56.5 c 128,-1,106
 208 41 208 41 190 41 c 0,107,108
 150 41 150 41 141 96 c 1,109,-1
 111 158 l 1,110,111
 74 183 74 183 74 215 c 0,112,113
 74 233 74 233 86.5 246.5 c 128,-1,114
 99 260 99 260 119 260 c 0,115,116
 145 260 145 260 170 238 c 1,117,-1
 367 365 l 1,118,-1
 438 266 l 1,101,-1
958 375 m 1,119,-1
 1153 258 l 1,120,121
 1185 285 1185 285 1217 285 c 0,122,123
 1237 285 1237 285 1248.5 274.5 c 128,-1,124
 1260 264 1260 264 1260 246 c 0,125,126
 1260 219 1260 219 1227 195 c 1,127,-1
 1184 141 l 1,128,129
 1180 110 1180 110 1163 95 c 128,-1,130
 1146 80 1146 80 1128 80 c 0,131,132
 1112 80 1112 80 1097.5 94.5 c 128,-1,133
 1083 109 1083 109 1083 133 c 0,134,135
 1083 152 1083 152 1087 162 c 1,136,-1
 881 283 l 1,137,-1
 958 375 l 1,119,-1
EndSplineSet
EndChar

StartChar: u0090
Encoding: 144 144 114
Width: 1331
Flags: W
LayerCount: 2
Fore
SplineSet
852 307 m 1,0,1
 820 186 820 186 768.5 127 c 128,-1,2
 717 68 717 68 662 68 c 0,3,4
 597 68 597 68 543.5 136 c 128,-1,5
 490 204 490 204 475 307 c 1,6,7
 365 428 365 428 365 522 c 0,8,9
 365 576 365 576 403 615 c 128,-1,10
 441 654 441 654 503 673 c 128,-1,11
 565 692 565 692 637 692 c 0,12,13
 720 692 720 692 792.5 669.5 c 128,-1,14
 865 647 865 647 911.5 603.5 c 128,-1,15
 958 560 958 560 958 500 c 0,16,17
 958 410 958 410 852 307 c 1,0,1
561 541 m 0,18,19
 531 540 531 540 514.5 523.5 c 128,-1,20
 498 507 498 507 498 483 c 0,21,22
 498 463 498 463 513 448 c 0,23,24
 526 434 526 434 549 434 c 0,25,26
 551 434 551 434 553 434 c 0,27,28
 586 435 586 435 604.5 452 c 128,-1,29
 623 469 623 469 623 489 c 256,30,31
 623 509 623 509 607 523.5 c 128,-1,32
 591 538 591 538 561 541 c 0,18,19
762 537 m 0,33,34
 732 536 732 536 715 519.5 c 128,-1,35
 698 503 698 503 698 479 c 0,36,37
 698 459 698 459 713 444 c 0,38,39
 727 430 727 430 750 430 c 0,40,41
 752 430 752 430 754 430 c 0,42,43
 788 431 788 431 805.5 447.5 c 128,-1,44
 823 464 823 464 823 485 c 0,45,46
 823 503 823 503 806.5 518.5 c 128,-1,47
 790 534 790 534 762 537 c 0,33,34
659 406 m 0,48,49
 630 405 630 405 613 388 c 128,-1,50
 596 371 596 371 596 348 c 0,51,52
 596 328 596 328 611 313 c 0,53,54
 624 299 624 299 647 299 c 0,55,56
 649 299 649 299 651 299 c 0,57,58
 684 300 684 300 702.5 317 c 128,-1,59
 721 334 721 334 721 354 c 0,60,61
 721 372 721 372 704 387.5 c 128,-1,62
 687 403 687 403 659 406 c 0,48,49
53 705 m 1,63,-1
 90 762 l 1,64,65
 93 793 93 793 108.5 811 c 128,-1,66
 124 829 124 829 143 829 c 0,67,68
 188 829 188 829 188 750 c 1,69,-1
 385 655 l 1,70,71
 324 628 324 628 324 553 c 1,72,-1
 131 647 l 1,73,74
 97 614 97 614 66 614 c 0,75,76
 47 614 47 614 36 625 c 128,-1,77
 25 636 25 636 25 653 c 0,78,79
 25 681 25 681 53 705 c 1,63,-1
1198 788 m 1,80,-1
 1229 727 l 1,81,82
 1266 701 1266 701 1266 670 c 0,83,84
 1266 651 1266 651 1253 638 c 128,-1,85
 1240 625 1240 625 1221 625 c 0,86,87
 1195 625 1195 625 1169 647 c 1,88,-1
 989 524 l 1,89,90
 989 567 989 567 975.5 590 c 128,-1,91
 962 613 962 613 932 629 c 1,92,-1
 1110 750 l 1,93,94
 1106 762 1106 762 1106 784 c 0,95,96
 1106 813 1106 813 1118.5 828.5 c 128,-1,97
 1131 844 1131 844 1149 844 c 0,98,99
 1165 844 1165 844 1179.5 829.5 c 128,-1,100
 1194 815 1194 815 1198 788 c 1,80,-1
438 266 m 1,101,-1
 229 135 l 1,102,103
 233 123 233 123 233 100 c 0,104,105
 233 72 233 72 220.5 56.5 c 128,-1,106
 208 41 208 41 190 41 c 0,107,108
 150 41 150 41 141 96 c 1,109,-1
 111 158 l 1,110,111
 74 183 74 183 74 215 c 0,112,113
 74 233 74 233 86.5 246.5 c 128,-1,114
 99 260 99 260 119 260 c 0,115,116
 145 260 145 260 170 238 c 1,117,-1
 367 365 l 1,118,-1
 438 266 l 1,101,-1
958 375 m 1,119,-1
 1153 258 l 1,120,121
 1185 285 1185 285 1217 285 c 0,122,123
 1237 285 1237 285 1248.5 274.5 c 128,-1,124
 1260 264 1260 264 1260 246 c 0,125,126
 1260 219 1260 219 1227 195 c 1,127,-1
 1184 141 l 1,128,129
 1180 110 1180 110 1163 95 c 128,-1,130
 1146 80 1146 80 1128 80 c 0,131,132
 1112 80 1112 80 1097.5 94.5 c 128,-1,133
 1083 109 1083 109 1083 133 c 0,134,135
 1083 152 1083 152 1087 162 c 1,136,-1
 881 283 l 1,137,-1
 958 375 l 1,119,-1
EndSplineSet
EndChar

StartChar: quoteleft
Encoding: 8216 8216 115
Width: 2
Flags: W
LayerCount: 2
Fore
SplineSet
-627 -109 m 1,0,1
 -746 -278 -746 -278 -839 -400.5 c 128,-1,2
 -932 -523 -932 -523 -1062 -658.5 c 128,-1,3
 -1192 -794 -1192 -794 -1347 -889.5 c 128,-1,4
 -1502 -985 -1502 -985 -1651 -985 c 1,5,6
 -1698 -975 -1698 -975 -1741 -944.5 c 128,-1,7
 -1784 -914 -1784 -914 -1784 -860 c 0,8,9
 -1784 -824 -1784 -824 -1759 -778 c 1,10,-1
 -1614 -662 l 1,11,12
 -1632 -701 -1632 -701 -1632 -733 c 0,13,14
 -1632 -789 -1632 -789 -1587 -825.5 c 128,-1,15
 -1542 -862 -1542 -862 -1483 -862 c 0,16,17
 -1457 -862 -1457 -862 -1425 -852 c 0,18,19
 -1310 -807 -1310 -807 -1207.5 -720 c 128,-1,20
 -1105 -633 -1105 -633 -981.5 -482 c 128,-1,21
 -858 -331 -858 -331 -676 -80 c 1,22,23
 -651 -59 -651 -59 -641 -59 c 0,24,25
 -627 -59 -627 -59 -627 -95 c 0,26,27
 -627 -101 -627 -101 -627 -109 c 1,0,1
EndSplineSet
EndChar

StartChar: quoteright
Encoding: 8217 8217 116
Width: 2
Flags: W
LayerCount: 2
Fore
SplineSet
-401 -109 m 0,0,1
 -461 -198 -461 -198 -577 -364 c 128,-1,2
 -693 -530 -693 -530 -818.5 -670.5 c 128,-1,3
 -944 -811 -944 -811 -1092.5 -907.5 c 128,-1,4
 -1241 -1004 -1241 -1004 -1393 -1004 c 0,5,6
 -1419 -1004 -1419 -1004 -1434 -1001 c 0,7,8
 -1476 -997 -1476 -997 -1521.5 -965 c 128,-1,9
 -1567 -933 -1567 -933 -1567 -877 c 0,10,11
 -1567 -839 -1567 -839 -1542 -795 c 1,12,-1
 -1389 -662 l 1,13,14
 -1397 -686 -1397 -686 -1397 -715 c 0,15,16
 -1397 -775 -1397 -775 -1353.5 -817.5 c 128,-1,17
 -1310 -860 -1310 -860 -1251 -860 c 0,18,19
 -1223 -860 -1223 -860 -1200 -852 c 0,20,21
 -1085 -807 -1085 -807 -982.5 -720 c 128,-1,22
 -880 -633 -880 -633 -756.5 -482 c 128,-1,23
 -633 -331 -633 -331 -451 -80 c 1,24,25
 -426 -59 -426 -59 -416 -59 c 0,26,27
 -401 -59 -401 -59 -401 -96 c 0,28,29
 -401 -102 -401 -102 -401 -109 c 0,0,1
EndSplineSet
EndChar

StartChar: quotedblleft
Encoding: 8220 8220 117
Width: 2
Flags: W
LayerCount: 2
Fore
SplineSet
-209 -109 m 0,0,1
 -260 -181 -260 -181 -310.5 -320.5 c 128,-1,2
 -361 -460 -361 -460 -429 -640.5 c 128,-1,3
 -497 -821 -497 -821 -572 -917.5 c 128,-1,4
 -647 -1014 -647 -1014 -748 -1014 c 0,5,6
 -785 -1014 -785 -1014 -815 -1004 c 0,7,8
 -848 -992 -848 -992 -879.5 -952.5 c 128,-1,9
 -911 -913 -911 -913 -911 -854 c 0,10,11
 -911 -801 -911 -801 -881 -745 c 1,12,-1
 -778 -662 l 1,13,14
 -778 -728 -778 -728 -742.5 -779.5 c 128,-1,15
 -707 -831 -707 -831 -666 -831 c 0,16,17
 -659 -831 -659 -831 -647 -827 c 0,18,19
 -610 -824 -610 -824 -569.5 -752 c 128,-1,20
 -529 -680 -529 -680 -457 -502.5 c 128,-1,21
 -385 -325 -385 -325 -350 -241.5 c 128,-1,22
 -315 -158 -315 -158 -262 -66 c 1,23,24
 -243 -49 -243 -49 -231 -49 c 0,25,26
 -209 -49 -209 -49 -209 -97 c 0,27,28
 -209 -103 -209 -103 -209 -109 c 0,0,1
EndSplineSet
EndChar

StartChar: quotedblright
Encoding: 8221 8221 118
Width: 2
Flags: W
LayerCount: 2
Fore
SplineSet
-6 -66 m 1,0,1
 -38 -128 -38 -128 -69 -348 c 128,-1,2
 -100 -568 -100 -568 -122.5 -678.5 c 128,-1,3
 -145 -789 -145 -789 -223.5 -901.5 c 128,-1,4
 -302 -1014 -302 -1014 -449 -1028 c 1,5,6
 -496 -1028 -496 -1028 -548 -998 c 128,-1,7
 -600 -968 -600 -968 -600 -901 c 0,8,9
 -600 -874 -600 -874 -588 -838 c 1,10,-1
 -469 -705 l 1,11,12
 -477 -726 -477 -726 -477 -752 c 0,13,14
 -477 -809 -477 -809 -438 -847 c 128,-1,15
 -399 -885 -399 -885 -352 -885 c 0,16,17
 -304 -885 -304 -885 -281 -848 c 0,18,19
 -219 -749 -219 -749 -190.5 -657 c 128,-1,20
 -162 -565 -162 -565 -149 -476 c 128,-1,21
 -136 -387 -136 -387 -113.5 -263 c 128,-1,22
 -91 -139 -91 -139 -53 -47 c 0,23,24
 -45 -33 -45 -33 -31 -33 c 0,25,26
 -6 -33 -6 -33 -6 -66 c 1,0,1
EndSplineSet
EndChar

StartChar: bullet
Encoding: 8226 8226 119
Width: 1331
Flags: W
LayerCount: 2
Fore
SplineSet
1214 276 m 1,0,1
 1161 201 1161 201 1074.5 123 c 128,-1,2
 988 45 988 45 908 -12 c 128,-1,3
 828 -69 828 -69 736 -127.5 c 128,-1,4
 644 -186 644 -186 569 -233 c 1,5,6
 480 -300 480 -300 392.5 -398.5 c 128,-1,7
 305 -497 305 -497 283 -573 c 1,8,9
 407 -526 407 -526 541 -526 c 0,10,11
 605 -526 605 -526 672 -535 c 128,-1,12
 739 -544 739 -544 848 -565 c 0,13,14
 921 -578 921 -578 987 -578 c 0,15,16
 1101 -575 1101 -575 1190.5 -548 c 128,-1,17
 1280 -521 1280 -521 1319 -473 c 1,18,19
 1318 -523 1318 -523 1289.5 -587.5 c 128,-1,20
 1261 -652 1261 -652 1225 -688 c 1,21,22
 1091 -780 1091 -780 952 -780 c 0,23,24
 916 -780 916 -780 871 -774 c 128,-1,25
 826 -768 826 -768 787.5 -760 c 128,-1,26
 749 -752 749 -752 651 -729 c 0,27,28
 614 -722 614 -722 572 -718.5 c 128,-1,29
 530 -715 530 -715 465 -715 c 0,30,31
 341 -715 341 -715 219.5 -733.5 c 128,-1,32
 98 -752 98 -752 12 -793 c 1,33,34
 50 -648 50 -648 127 -535 c 128,-1,35
 204 -422 204 -422 285.5 -349 c 128,-1,36
 367 -276 367 -276 524 -152 c 1,37,38
 658 -65 658 -65 770 8.5 c 128,-1,39
 882 82 882 82 957.5 161 c 128,-1,40
 1033 240 1033 240 1042 326 c 0,41,42
 1042 362 1042 362 1035.5 402.5 c 128,-1,43
 1029 443 1029 443 1016 473 c 0,44,45
 987 532 987 532 946 578 c 0,46,47
 903 623 903 623 856 649 c 0,48,49
 793 686 793 686 719 707 c 0,50,51
 643 725 643 725 582 725 c 1,52,53
 518 717 518 717 475 692 c 0,54,55
 438 669 438 669 414 625 c 0,56,57
 391 590 391 590 383 551 c 0,58,59
 375 510 375 510 365 451 c 1,60,61
 365 307 365 307 379 164 c 1,62,63
 360 115 360 115 322 72 c 0,64,65
 281 29 281 29 221 -4 c 0,66,67
 164 -39 164 -39 80 -59 c 1,68,69
 61 -59 61 -59 55 -57 c 128,-1,70
 49 -55 49 -55 49 -47 c 0,71,72
 49 -37 49 -37 59 -12 c 0,73,74
 109 154 109 154 131 246 c 0,75,76
 156 338 156 338 162 381 c 0,77,78
 168 426 168 426 180 532 c 0,79,80
 186 578 186 578 186 664 c 0,81,82
 186 848 186 848 153.5 1050.5 c 128,-1,83
 121 1253 121 1253 47 1393 c 1,84,85
 117 1417 117 1417 190 1473 c 0,86,87
 264 1526 264 1526 322 1595 c 0,88,89
 342 1618 342 1618 356 1618 c 0,90,91
 385 1618 385 1618 385 1516 c 0,92,93
 385 1448 385 1448 373 1333 c 0,94,95
 373 1305 373 1305 373 1249 c 0,96,97
 371 1196 371 1196 371 1163 c 256,98,99
 371 1130 371 1130 371 1090 c 0,100,101
 371 1040 371 1040 371 997 c 0,102,103
 371 956 371 956 373 881 c 0,104,105
 373 803 373 803 373 760 c 1,106,107
 393 774 393 774 411.5 787 c 128,-1,108
 430 800 430 800 447.5 811 c 128,-1,109
 465 822 465 822 485 831 c 0,110,111
 539 854 539 854 592 866 c 0,112,113
 643 877 643 877 707 877 c 0,114,115
 836 872 836 872 969 831 c 0,116,117
 1100 791 1100 791 1188 713 c 0,118,119
 1276 633 1276 633 1276 522 c 1,120,121
 1265 366 1265 366 1214 276 c 1,0,1
EndSplineSet
EndChar

StartChar: emdash
Encoding: 8211 8211 120
Width: 1946
Flags: W
LayerCount: 2
Fore
SplineSet
270 541 m 0,0,1
 270 493 270 493 284 437 c 128,-1,2
 298 381 298 381 324 342 c 0,3,4
 379 260 379 260 449 219 c 0,5,6
 516 180 516 180 587.5 155.5 c 128,-1,7
 659 131 659 131 719 131 c 0,8,9
 780 131 780 131 819 160 c 1,10,11
 731 256 731 256 731 346 c 1,12,13
 738 494 738 494 788 590 c 0,14,15
 838 682 838 682 934 758 c 0,16,17
 1010 815 1010 815 1098 852 c 128,-1,18
 1186 889 1186 889 1255 889 c 1,19,20
 1331 881 1331 881 1378 825 c 0,21,22
 1423 768 1423 768 1423 715 c 0,23,24
 1423 655 1423 655 1389 614 c 0,25,26
 1354 571 1354 571 1298 571 c 0,27,28
 1278 571 1278 571 1243 582 c 1,29,30
 1243 614 1243 614 1225 643 c 0,31,32
 1204 674 1204 674 1174 690 c 0,33,34
 1141 709 1141 709 1102 709 c 0,35,36
 1040 709 1040 709 1006 686 c 0,37,38
 971 666 971 666 961 598 c 0,39,40
 952 559 952 559 952 539 c 0,41,42
 952 493 952 493 966 437 c 128,-1,43
 980 381 980 381 1006 342 c 0,44,45
 1061 262 1061 262 1130 219 c 0,46,47
 1303 113 1303 113 1397 113 c 0,48,49
 1456 113 1456 113 1526 176 c 0,50,51
 1583 231 1583 231 1620 332 c 0,52,53
 1655 432 1655 432 1655 561 c 0,54,55
 1659 721 1659 721 1659 791 c 0,56,57
 1659 922 1659 922 1651 1022 c 0,58,59
 1640 1122 1640 1122 1613.5 1216.5 c 128,-1,60
 1587 1311 1587 1311 1540 1393 c 1,61,62
 1261 1388 1261 1388 1141 1384 c 0,63,64
 1021 1379 1021 1379 879 1359.5 c 128,-1,65
 737 1340 737 1340 625.5 1295 c 128,-1,66
 514 1250 514 1250 451 1171 c 0,67,68
 359 1058 359 1058 313.5 896.5 c 128,-1,69
 268 735 268 735 268 594 c 0,70,71
 268 557 268 557 270 541 c 0,0,1
342 37 m 1,72,73
 217 88 217 88 136.5 194 c 128,-1,74
 56 300 56 300 49 387 c 1,75,76
 37 469 37 469 37 545 c 0,77,78
 37 965 37 965 406 1266 c 0,79,80
 540 1377 540 1377 697.5 1449 c 128,-1,81
 855 1521 855 1521 1096 1559 c 128,-1,82
 1337 1597 1337 1597 1692 1597 c 0,83,84
 1732 1597 1732 1597 1758 1597 c 0,85,86
 1784 1596 1784 1596 1815 1595 c 0,87,88
 1825 1595 1825 1595 1835.5 1606.5 c 128,-1,89
 1846 1618 1846 1618 1849 1618 c 0,90,91
 1880 1618 1880 1618 1880 1509 c 0,92,93
 1880 1444 1880 1444 1868 1333 c 1,94,95
 1860 1081 1860 1081 1860 451 c 0,96,97
 1862 369 1862 369 1864 338 c 0,98,99
 1864 307 1864 307 1866 254 c 0,100,101
 1870 201 1870 201 1874 164 c 1,102,103
 1843 88 1843 88 1769 31 c 0,104,105
 1694 -29 1694 -29 1573 -59 c 1,106,107
 1554 -59 1554 -59 1548 -57 c 128,-1,108
 1542 -55 1542 -55 1542 -47 c 0,109,110
 1542 -35 1542 -35 1554 -12 c 0,111,112
 1561 10 1561 10 1573 98 c 1,113,114
 1547 77 1547 77 1525.5 61.5 c 128,-1,115
 1504 46 1504 46 1484.5 33.5 c 128,-1,116
 1465 21 1465 21 1446 14 c 0,117,118
 1386 -6 1386 -6 1272 -8 c 0,119,120
 1047 -8 1047 -8 887 98 c 1,121,122
 803 43 803 43 731 16 c 0,123,124
 657 -8 657 -8 588 -8 c 0,125,126
 467 -4 467 -4 342 37 c 1,72,73
EndSplineSet
EndChar

StartChar: endash
Encoding: 8212 8212 121
Width: 1331
Flags: W
LayerCount: 2
Fore
SplineSet
1174 522 m 0,0,1
 1176 463 1176 463 1176 334 c 0,2,3
 1176 228 1176 228 1174 107 c 0,4,5
 1171 -14 1171 -14 1171 -78 c 0,6,7
 1174 -94 1174 -94 1174 -127 c 0,8,9
 1174 -236 1174 -236 1121 -355.5 c 128,-1,10
 1068 -475 1068 -475 970.5 -579 c 128,-1,11
 873 -683 873 -683 741.5 -747 c 128,-1,12
 610 -811 610 -811 461 -811 c 0,13,14
 409 -808 409 -808 357 -782.5 c 128,-1,15
 305 -757 305 -757 305 -688 c 0,16,17
 305 -663 305 -663 317 -627 c 1,18,-1
 475 -459 l 1,19,20
 469 -477 469 -477 469 -498 c 0,21,22
 469 -546 469 -546 503.5 -588 c 128,-1,23
 538 -630 538 -630 591.5 -655 c 128,-1,24
 645 -680 645 -680 694 -680 c 0,25,26
 732 -680 732 -680 762 -664 c 0,27,28
 833 -631 833 -631 875 -559.5 c 128,-1,29
 917 -488 917 -488 932.5 -396 c 128,-1,30
 948 -304 948 -304 948 -197 c 0,31,32
 948 -141 948 -141 938 49 c 0,33,34
 934 115 934 115 934 236 c 0,35,36
 935 288 935 288 936 343 c 0,37,38
 937 397 937 397 938 440 c 256,39,40
 939 483 939 483 940 509 c 0,41,42
 940 535 940 535 940 584 c 0,43,44
 940 702 940 702 918 778 c 1,45,46
 850 768 850 768 766 768 c 0,47,48
 619 768 619 768 508 803 c 0,49,50
 437 829 437 829 360 829 c 0,51,52
 230 829 230 829 45 745 c 1,53,54
 106 878 106 878 215.5 942 c 128,-1,55
 325 1006 325 1006 502 1006 c 0,56,57
 588 1006 588 1006 692 991 c 0,58,59
 871 963 871 963 965 963 c 0,60,61
 1067 963 1067 963 1169 993 c 1,62,63
 1200 993 1200 993 1200 889 c 1,64,65
 1190 812 1190 812 1183.5 764 c 128,-1,66
 1177 716 1177 716 1174 672.5 c 128,-1,67
 1171 629 1171 629 1171 588 c 0,68,69
 1172 572 1172 572 1173 554 c 128,-1,70
 1174 536 1174 536 1174 522 c 0,0,1
EndSplineSet
EndChar

StartChar: tilde
Encoding: 732 732 122
Width: 2
Flags: W
LayerCount: 2
Fore
SplineSet
-993 -385 m 0,0,1
 -918 -385 -918 -385 -870 -432 c 0,2,3
 -829 -475 -829 -475 -829 -530 c 0,4,5
 -829 -571 -829 -571 -852 -608 c 0,6,7
 -874 -649 -874 -649 -911 -668 c 0,8,9
 -950 -688 -950 -688 -999 -688 c 0,10,11
 -1075 -688 -1075 -688 -1122 -639 c 0,12,13
 -1161 -596 -1161 -596 -1161 -539 c 0,14,15
 -1161 -500 -1161 -500 -1139 -461 c 0,16,17
 -1114 -422 -1114 -422 -1075 -401 c 0,18,19
 -1038 -385 -1038 -385 -993 -385 c 0,0,1
-1006 -403 m 0,20,21
 -1026 -403 -1026 -403 -1047 -414 c 0,22,23
 -1067 -424 -1067 -424 -1079 -449 c 0,24,25
 -1092 -473 -1092 -473 -1092 -512 c 0,26,27
 -1092 -575 -1092 -575 -1061 -621 c 0,28,29
 -1032 -668 -1032 -668 -981 -668 c 0,30,31
 -946 -668 -946 -668 -924 -641 c 0,32,33
 -899 -616 -899 -616 -899 -555 c 0,34,35
 -899 -477 -899 -477 -938 -434 c 0,36,37
 -965 -403 -965 -403 -1006 -403 c 0,20,21
EndSplineSet
EndChar

StartChar: trademark
Encoding: 8482 8482 123
Width: 2
Flags: W
LayerCount: 2
Fore
SplineSet
-616 -383 m 0,0,1
 -541 -383 -541 -383 -494 -432 c 0,2,3
 -453 -475 -453 -475 -453 -530 c 0,4,5
 -453 -571 -453 -571 -473 -608 c 0,6,7
 -498 -649 -498 -649 -535.5 -668.5 c 128,-1,8
 -573 -688 -573 -688 -623 -688 c 0,9,10
 -698 -688 -698 -688 -745 -639 c 0,11,12
 -782 -596 -782 -596 -782 -539 c 0,13,14
 -782 -500 -782 -500 -762 -461 c 1,15,16
 -737 -422 -737 -422 -698 -399 c 1,17,18
 -662 -383 -662 -383 -616 -383 c 0,0,1
-629 -403 m 0,19,20
 -649 -403 -649 -403 -670 -414 c 0,21,22
 -688 -424 -688 -424 -702 -449 c 0,23,24
 -715 -473 -715 -473 -715 -512 c 0,25,26
 -715 -575 -715 -575 -684 -621 c 0,27,28
 -655 -668 -655 -668 -604 -668 c 0,29,30
 -569 -668 -569 -668 -547 -641 c 0,31,32
 -522 -616 -522 -616 -522 -555 c 0,33,34
 -522 -477 -522 -477 -561 -434 c 0,35,36
 -588 -403 -588 -403 -629 -403 c 0,19,20
EndSplineSet
EndChar

StartChar: scaron
Encoding: 353 353 124
Width: 2048
Flags: W
LayerCount: 2
Fore
SplineSet
373 451 m 0,0,1
 365 385 365 385 360 305 c 0,2,3
 358 223 358 223 358 113 c 1,4,-1
 631 115 l 2,5,6
 649 113 649 113 686 113 c 0,7,8
 799 113 799 113 887 160 c 0,9,10
 973 205 973 205 991 291 c 0,11,12
 999 332 999 332 999 350 c 0,13,14
 999 415 999 415 973 475 c 0,15,16
 946 532 946 532 905 580 c 0,17,18
 862 625 862 625 821 649 c 0,19,20
 647 756 647 756 555 756 c 1,21,22
 500 748 500 748 467 721 c 0,23,24
 439 698 439 698 414 641 c 0,25,26
 395 598 395 598 391 571 c 0,27,28
 387 545 387 545 373 451 c 0,0,1
1391 113 m 2,29,30
 1479 113 1479 113 1532 125 c 0,31,32
 1585 133 1585 133 1622 174 c 0,33,34
 1659 213 1659 213 1673 291 c 0,35,36
 1681 332 1681 332 1681 352 c 0,37,38
 1681 451 1681 451 1626 530 c 0,39,40
 1573 610 1573 610 1503 649 c 0,41,42
 1346 737 1346 737 1233 737 c 0,43,44
 1169 737 1169 737 1133 709 c 1,45,46
 1219 610 1219 610 1221 522 c 0,47,48
 1221 479 1221 479 1214.5 435 c 128,-1,49
 1208 391 1208 391 1197 357 c 128,-1,50
 1186 323 1186 323 1165 287 c 0,51,52
 1108 190 1108 190 997 113 c 1,53,-1
 1391 113 l 2,29,30
1663 111 m 1,54,55
 1771 101 1771 101 1872 37 c 0,56,57
 1963 -19 1963 -19 1995 -90 c 0,58,59
 2030 -170 2030 -170 2030 -272 c 0,60,61
 2030 -368 2030 -368 1976 -459 c 0,62,63
 1931 -532 1931 -532 1869.5 -587 c 128,-1,64
 1808 -642 1808 -642 1726.5 -674.5 c 128,-1,65
 1645 -707 1645 -707 1550 -707 c 1,66,67
 1419 -695 1419 -695 1323 -639 c 0,68,69
 1223 -585 1223 -585 1223 -489 c 1,70,71
 1235 -440 1235 -440 1260 -410 c 0,72,73
 1286 -379 1286 -379 1319 -365 c 0,74,75
 1350 -350 1350 -350 1382 -350 c 0,76,77
 1427 -350 1427 -350 1456 -371.5 c 128,-1,78
 1485 -393 1485 -393 1485 -428 c 0,79,80
 1485 -459 1485 -459 1450 -500 c 1,81,82
 1477 -629 1477 -629 1610 -629 c 0,83,84
 1701 -626 1701 -626 1757 -586 c 0,85,86
 1816 -547 1816 -547 1840 -495.5 c 128,-1,87
 1864 -444 1864 -444 1864 -369 c 0,88,89
 1861 -283 1861 -283 1810 -217 c 0,90,91
 1782 -179 1782 -179 1732 -156 c 128,-1,92
 1682 -133 1682 -133 1597 -111 c 1,93,94
 1525 -102 1525 -102 1447 -99 c 0,95,96
 1368 -97 1368 -97 1196 -94 c 2,97,-1
 362 -92 l 2,98,99
 272 -92 272 -92 158 -76 c 0,100,101
 51 -59 51 -59 51 -33 c 0,102,103
 51 -25 51 -25 68 -12 c 1,104,105
 86 49 86 49 102 131 c 0,106,107
 119 213 119 213 131 311 c 0,108,109
 143 410 143 410 143 500 c 0,110,111
 143 554 143 554 137.5 591.5 c 128,-1,112
 132 629 132 629 122.5 647 c 128,-1,113
 113 665 113 665 103 674.5 c 128,-1,114
 93 684 93 684 55 717 c 1,115,116
 127 741 127 741 201 799 c 0,117,118
 274 854 274 854 330 920 c 0,119,120
 352 942 352 942 365 942 c 0,121,122
 393 942 393 942 393 840 c 0,123,124
 393 820 393 820 389 810 c 128,-1,125
 385 800 385 800 381 760 c 1,126,127
 459 831 459 831 522 852 c 0,128,129
 602 877 602 877 680 877 c 0,130,131
 918 868 918 868 1065 770 c 1,132,133
 1225 877 1225 877 1364 877 c 1,134,135
 1485 872 1485 872 1610 831 c 0,136,137
 1735 791 1735 791 1819 713 c 0,138,139
 1903 633 1903 633 1903 522 c 0,140,141
 1903 446 1903 446 1887 381 c 128,-1,142
 1871 316 1871 316 1841 268 c 0,143,144
 1782 172 1782 172 1663 111 c 1,54,55
EndSplineSet
EndChar

StartChar: guilsinglright
Encoding: 8250 8250 125
Width: 870
Flags: W
LayerCount: 2
Fore
SplineSet
776 664 m 0,0,1
 777 580 777 580 779 464 c 0,2,3
 780 347 780 347 781 203 c 0,4,5
 782 58 782 58 784 -44 c 0,6,7
 785 -147 785 -147 786 -193 c 0,8,9
 795 -395 795 -395 799 -508 c 1,10,11
 768 -584 768 -584 690 -643 c 0,12,13
 651 -673 651 -673 626 -683.5 c 128,-1,14
 601 -694 601 -694 535 -711 c 1,15,16
 502 -711 502 -711 502 -698 c 0,17,18
 502 -686 502 -686 514 -664 c 1,19,20
 529 -617 529 -617 539 -565 c 128,-1,21
 549 -513 549 -513 557 -449.5 c 128,-1,22
 565 -386 565 -386 571.5 -317.5 c 128,-1,23
 578 -249 578 -249 584 -180 c 0,24,25
 596 -46 596 -46 596 98 c 2,26,-1
 596 246 l 2,27,28
 596 267 596 267 598 302 c 0,29,30
 599 337 599 337 600 378 c 0,31,32
 601 418 601 418 602 451 c 0,33,34
 602 484 602 484 602 555 c 0,35,36
 602 745 602 745 589.5 945.5 c 128,-1,37
 577 1146 577 1146 547 1360 c 0,38,39
 533 1458 533 1458 518 1520.5 c 128,-1,40
 503 1583 503 1583 473 1630 c 1,41,42
 509 1643 509 1643 533.5 1658 c 128,-1,43
 558 1673 558 1673 598 1702 c 0,44,45
 674 1757 674 1757 731 1825 c 0,46,47
 754 1847 754 1847 766 1847 c 0,48,49
 797 1847 797 1847 797 1743 c 0,50,51
 797 1673 797 1673 784 1563 c 1,52,53
 780 1458 780 1458 779 1357 c 256,54,55
 778 1256 778 1256 777 1093 c 256,56,57
 776 930 776 930 776 664 c 0,0,1
129 -864 m 1,58,59
 153 -829 153 -829 170.5 -772 c 128,-1,60
 188 -715 188 -715 196 -664 c 128,-1,61
 204 -613 204 -613 210.5 -545 c 128,-1,62
 217 -477 217 -477 225 -385 c 0,63,64
 236 -283 236 -283 240 -169 c 0,65,66
 244 -56 244 -56 244 70 c 0,67,68
 245 118 245 118 246 163 c 0,69,70
 246 208 246 208 246 315 c 0,71,72
 246 822 246 822 195 1126 c 0,73,74
 187 1172 187 1172 167.5 1210.5 c 128,-1,75
 148 1249 148 1249 113.5 1298 c 128,-1,76
 79 1347 79 1347 63 1372 c 1,77,78
 101 1386 101 1386 154 1413 c 128,-1,79
 207 1440 207 1440 246 1468 c 0,80,81
 322 1524 322 1524 379 1591 c 0,82,83
 401 1614 401 1614 414 1614 c 0,84,85
 444 1614 444 1614 444 1509 c 0,86,87
 444 1440 444 1440 432 1329 c 1,88,89
 424 1105 424 1105 424 483 c 1,90,91
 434 -121 434 -121 442 -393 c 1,92,93
 452 -594 452 -594 455 -692 c 1,94,95
 424 -768 424 -768 346 -827 c 0,96,97
 328 -839 328 -839 250.5 -883.5 c 128,-1,98
 173 -928 173 -928 129.5 -959.5 c 128,-1,99
 86 -991 86 -991 55.5 -1036 c 128,-1,100
 25 -1081 25 -1081 25 -1139 c 1,101,102
 29 -1174 29 -1174 61 -1198.5 c 128,-1,103
 93 -1223 93 -1223 131 -1223 c 0,104,105
 187 -1223 187 -1223 215 -1171 c 0,106,107
 231 -1143 231 -1143 244 -1143 c 0,108,109
 252 -1143 252 -1143 262 -1159 c 0,110,111
 279 -1201 279 -1201 279 -1229 c 0,112,113
 279 -1302 279 -1302 217.5 -1353.5 c 128,-1,114
 156 -1405 156 -1405 72 -1405 c 0,115,116
 57 -1405 57 -1405 29 -1401 c 0,117,118
 -38 -1388 -38 -1388 -78.5 -1347.5 c 128,-1,119
 -119 -1307 -119 -1307 -119 -1239 c 0,120,121
 -119 -1186 -119 -1186 -92 -1122 c 0,122,123
 -43 -1006 -43 -1006 129 -864 c 1,58,59
EndSplineSet
EndChar

StartChar: oe
Encoding: 339 339 126
Width: 682
Flags: W
LayerCount: 2
Fore
SplineSet
188 1337 m 1,0,1
 68 1443 68 1443 68 1524 c 0,2,3
 68 1587 68 1587 139 1587 c 0,4,5
 178 1587 178 1587 224 1564 c 128,-1,6
 270 1541 270 1541 311 1493 c 0,7,8
 386 1412 386 1412 441.5 1308.5 c 128,-1,9
 497 1205 497 1205 533.5 1089.5 c 128,-1,10
 570 974 570 974 588 847 c 128,-1,11
 606 720 606 720 606 582 c 0,12,13
 606 379 606 379 567 183 c 128,-1,14
 528 -13 528 -13 454 -185.5 c 128,-1,15
 380 -358 380 -358 275.5 -487 c 128,-1,16
 171 -616 171 -616 43 -682 c 1,17,-1
 43 -639 l 1,18,19
 144 -566 144 -566 220 -455.5 c 128,-1,20
 296 -345 296 -345 348 -203 c 128,-1,21
 400 -61 400 -61 425.5 93.5 c 128,-1,22
 451 248 451 248 451 414 c 0,23,24
 451 586 451 586 421.5 755 c 128,-1,25
 392 924 392 924 332 1075.5 c 128,-1,26
 272 1227 272 1227 188 1337 c 1,0,1
EndSplineSet
EndChar

StartChar: u009D
Encoding: 157 157 127
Width: 1331
Flags: W
LayerCount: 2
Fore
SplineSet
852 307 m 1,0,1
 820 186 820 186 768.5 127 c 128,-1,2
 717 68 717 68 662 68 c 0,3,4
 597 68 597 68 543.5 136 c 128,-1,5
 490 204 490 204 475 307 c 1,6,7
 365 428 365 428 365 522 c 0,8,9
 365 576 365 576 403 615 c 128,-1,10
 441 654 441 654 503 673 c 128,-1,11
 565 692 565 692 637 692 c 0,12,13
 720 692 720 692 792.5 669.5 c 128,-1,14
 865 647 865 647 911.5 603.5 c 128,-1,15
 958 560 958 560 958 500 c 0,16,17
 958 410 958 410 852 307 c 1,0,1
561 541 m 0,18,19
 531 540 531 540 514.5 523.5 c 128,-1,20
 498 507 498 507 498 483 c 0,21,22
 498 463 498 463 513 448 c 0,23,24
 526 434 526 434 549 434 c 0,25,26
 551 434 551 434 553 434 c 0,27,28
 586 435 586 435 604.5 452 c 128,-1,29
 623 469 623 469 623 489 c 256,30,31
 623 509 623 509 607 523.5 c 128,-1,32
 591 538 591 538 561 541 c 0,18,19
762 537 m 0,33,34
 732 536 732 536 715 519.5 c 128,-1,35
 698 503 698 503 698 479 c 0,36,37
 698 459 698 459 713 444 c 0,38,39
 727 430 727 430 750 430 c 0,40,41
 752 430 752 430 754 430 c 0,42,43
 788 431 788 431 805.5 447.5 c 128,-1,44
 823 464 823 464 823 485 c 0,45,46
 823 503 823 503 806.5 518.5 c 128,-1,47
 790 534 790 534 762 537 c 0,33,34
659 406 m 0,48,49
 630 405 630 405 613 388 c 128,-1,50
 596 371 596 371 596 348 c 0,51,52
 596 328 596 328 611 313 c 0,53,54
 624 299 624 299 647 299 c 0,55,56
 649 299 649 299 651 299 c 0,57,58
 684 300 684 300 702.5 317 c 128,-1,59
 721 334 721 334 721 354 c 0,60,61
 721 372 721 372 704 387.5 c 128,-1,62
 687 403 687 403 659 406 c 0,48,49
53 705 m 1,63,-1
 90 762 l 1,64,65
 93 793 93 793 108.5 811 c 128,-1,66
 124 829 124 829 143 829 c 0,67,68
 188 829 188 829 188 750 c 1,69,-1
 385 655 l 1,70,71
 324 628 324 628 324 553 c 1,72,-1
 131 647 l 1,73,74
 97 614 97 614 66 614 c 0,75,76
 47 614 47 614 36 625 c 128,-1,77
 25 636 25 636 25 653 c 0,78,79
 25 681 25 681 53 705 c 1,63,-1
1198 788 m 1,80,-1
 1229 727 l 1,81,82
 1266 701 1266 701 1266 670 c 0,83,84
 1266 651 1266 651 1253 638 c 128,-1,85
 1240 625 1240 625 1221 625 c 0,86,87
 1195 625 1195 625 1169 647 c 1,88,-1
 989 524 l 1,89,90
 989 567 989 567 975.5 590 c 128,-1,91
 962 613 962 613 932 629 c 1,92,-1
 1110 750 l 1,93,94
 1106 762 1106 762 1106 784 c 0,95,96
 1106 813 1106 813 1118.5 828.5 c 128,-1,97
 1131 844 1131 844 1149 844 c 0,98,99
 1165 844 1165 844 1179.5 829.5 c 128,-1,100
 1194 815 1194 815 1198 788 c 1,80,-1
438 266 m 1,101,-1
 229 135 l 1,102,103
 233 123 233 123 233 100 c 0,104,105
 233 72 233 72 220.5 56.5 c 128,-1,106
 208 41 208 41 190 41 c 0,107,108
 150 41 150 41 141 96 c 1,109,-1
 111 158 l 1,110,111
 74 183 74 183 74 215 c 0,112,113
 74 233 74 233 86.5 246.5 c 128,-1,114
 99 260 99 260 119 260 c 0,115,116
 145 260 145 260 170 238 c 1,117,-1
 367 365 l 1,118,-1
 438 266 l 1,101,-1
958 375 m 1,119,-1
 1153 258 l 1,120,121
 1185 285 1185 285 1217 285 c 0,122,123
 1237 285 1237 285 1248.5 274.5 c 128,-1,124
 1260 264 1260 264 1260 246 c 0,125,126
 1260 219 1260 219 1227 195 c 1,127,-1
 1184 141 l 1,128,129
 1180 110 1180 110 1163 95 c 128,-1,130
 1146 80 1146 80 1128 80 c 0,131,132
 1112 80 1112 80 1097.5 94.5 c 128,-1,133
 1083 109 1083 109 1083 133 c 0,134,135
 1083 152 1083 152 1087 162 c 1,136,-1
 881 283 l 1,137,-1
 958 375 l 1,119,-1
EndSplineSet
EndChar

StartChar: Ydieresis
Encoding: 376 376 128
Width: 2
Flags: W
LayerCount: 2
Fore
SplineSet
-455 -702 m 2,0,1
 -467 -713 -467 -713 -481 -713 c 0,2,3
 -500 -713 -500 -713 -500 -694 c 0,4,5
 -500 -686 -500 -686 -494 -674 c 2,6,-1
 -242 -379 l 2,7,8
 -222 -355 -222 -355 -182 -324 c 0,9,10
 -157 -305 -157 -305 -133 -303 c 0,11,12
 -106 -303 -106 -303 -90 -315 c 1,13,14
 -78 -330 -78 -330 -74 -356 c 0,15,16
 -74 -375 -74 -375 -98 -408 c 0,17,18
 -113 -428 -113 -428 -156 -461 c 2,19,-1
 -455 -702 l 2,0,1
EndSplineSet
EndChar

StartChar: exclamdown
Encoding: 161 161 130
Width: 922
Flags: W
LayerCount: 2
Fore
SplineSet
516 750 m 1,0,1
 643 742 643 742 722 681 c 128,-1,2
 801 620 801 620 835.5 553.5 c 128,-1,3
 870 487 870 487 893 418 c 1,4,5
 906 360 906 360 906 304 c 0,6,7
 906 208 906 208 873 129.5 c 128,-1,8
 840 51 840 51 786 0 c 0,9,10
 750 -30 750 -30 712 -46 c 128,-1,11
 674 -62 674 -62 623 -72 c 0,12,13
 596 -78 596 -78 571 -78 c 0,14,15
 506 -78 506 -78 463 -35 c 1,16,17
 438 6 438 6 436 41 c 0,18,19
 434 53 434 53 434 63 c 0,20,21
 434 84 434 84 440 102 c 0,22,23
 453 129 453 129 471 147 c 0,24,25
 498 172 498 172 528 176 c 0,26,27
 530 176 530 176 532 176 c 0,28,29
 561 176 561 176 582 156 c 1,30,31
 598 135 598 135 606 88 c 1,32,33
 651 55 651 55 692 55 c 0,34,35
 716 55 716 55 744.5 67 c 128,-1,36
 773 79 773 79 786 102 c 0,37,38
 825 168 825 168 825 246 c 0,39,40
 825 341 825 341 766 410 c 1,41,42
 675 501 675 501 602 512 c 0,43,44
 583 518 583 518 559 518 c 0,45,46
 504 518 504 518 459 486.5 c 128,-1,47
 414 455 414 455 410 397 c 1,48,49
 376 248 376 248 337.5 161 c 128,-1,50
 299 74 299 74 250.5 29.5 c 128,-1,51
 202 -15 202 -15 131 -45 c 1,52,53
 26 -76 26 -76 -123 -76 c 0,54,55
 -213 -76 -213 -76 -387 -61 c 1,56,-1
 -256 108 l 1,57,-1
 -188 209 l 2,58,59
 -178 227 -178 227 -173 227 c 0,60,61
 -170 227 -170 227 -165 204 c 128,-1,62
 -160 181 -160 181 -147 164 c 128,-1,63
 -134 147 -134 147 -106 147 c 0,64,65
 112 158 112 158 164 340 c 0,66,67
 182 401 182 401 208.5 486.5 c 128,-1,68
 235 572 235 572 269.5 627.5 c 128,-1,69
 304 683 304 683 364 716.5 c 128,-1,70
 424 750 424 750 516 750 c 1,0,1
EndSplineSet
EndChar

StartChar: cent
Encoding: 162 162 131
Width: 973
Flags: W
LayerCount: 2
Fore
SplineSet
184 971 m 2,0,1
 486 971 486 971 609 939 c 128,-1,2
 732 907 732 907 781 873 c 1,3,4
 833 847 833 847 868.5 797 c 128,-1,5
 904 747 904 747 922 683.5 c 128,-1,6
 940 620 940 620 940 557 c 0,7,8
 940 509 940 509 929 462 c 0,9,10
 913 365 913 365 850.5 286.5 c 128,-1,11
 788 208 788 208 698 165 c 128,-1,12
 608 122 608 122 511 122 c 0,13,14
 487 122 487 122 461 125 c 0,15,16
 332 135 332 135 233 193 c 0,17,18
 133 247 133 247 133 342 c 1,19,20
 145 391 145 391 170 422 c 0,21,22
 197 453 197 453 228.5 467 c 128,-1,23
 260 481 260 481 293 481 c 0,24,25
 338 481 338 481 367 461 c 0,26,27
 395 438 395 438 395 403 c 0,28,29
 395 373 395 373 360 332 c 1,30,31
 388 206 388 206 524 197 c 1,32,33
 620 197 620 197 694.5 259 c 128,-1,34
 769 321 769 321 774 463 c 1,35,36
 770 569 770 569 729 623 c 0,37,38
 696 671 696 671 605 708 c 128,-1,39
 514 745 514 745 232 745 c 2,40,-1
 179 745 l 2,41,42
 151 746 151 746 63 746 c 0,43,44
 -35 746 -35 746 -89 745.5 c 128,-1,45
 -143 745 -143 745 -205 745 c 1,46,-1
 -131 926 l 2,47,48
 -115 970 -115 970 -79 970 c 2,49,-1
 184 971 l 2,0,1
EndSplineSet
EndChar

